{"glyphs":{"0":{"ha":1286,"x_min":46,"x_max":1240,"o":"m 643 178 q 415 260 500 178 q 329 486 329 342 q 415 713 329 631 q 643 794 500 794 q 869 713 783 794 q 954 486 954 631 q 869 260 954 342 q 643 178 783 178 m 204 851 q 46 486 46 717 q 204 121 46 256 q 643 -14 361 -14 q 1082 121 925 -14 q 1240 486 1240 256 q 1082 851 1240 717 q 643 986 925 986 q 204 851 361 986 "},"1":{"ha":665,"x_min":22,"x_max":536,"o":"m 268 972 q 198 822 267 876 q 22 768 129 768 l 22 590 q 250 635 158 590 l 254 635 l 254 0 l 536 0 l 536 972 l 268 972 "},"2":{"ha":1161,"x_min":24,"x_max":1115,"o":"m 358 189 q 481 342 354 297 q 654 386 554 369 l 739 403 q 824 424 775 410 q 983 488 901 443 q 1100 685 1092 551 q 564 986 1100 986 q 347 968 478 986 q 157 938 207 949 l 157 735 l 203 750 q 343 778 243 763 q 528 793 442 793 q 822 689 822 793 q 751 610 822 642 q 518 554 686 581 q 274 476 375 531 q 125 347 172 422 q 74 0 24 185 l 1115 0 l 1115 189 l 358 189 "},"3":{"ha":1171,"x_min":56,"x_max":1110,"o":"m 858 521 q 1008 609 956 553 q 1061 736 1061 665 q 488 986 1061 986 q 281 975 417 986 q 100 954 154 965 l 100 769 q 265 794 150 782 q 457 808 375 808 q 704 783 625 808 q 783 699 783 757 q 699 611 783 642 q 463 581 614 581 l 404 581 q 286 579 326 581 l 221 579 l 221 424 q 511 433 338 436 q 749 398 668 431 q 828 303 829 365 q 728 203 828 240 q 451 165 628 165 q 233 181 363 165 q 56 215 106 197 l 56 24 q 250 -3 125 7 q 488 -14 394 -14 q 943 58 778 -14 q 1110 276 1110 131 q 858 513 1110 449 l 858 521 "},"4":{"ha":1275,"x_min":10,"x_max":1229,"o":"m 1038 972 l 775 972 l 10 357 l 10 193 l 756 193 l 756 0 l 1038 0 l 1038 193 l 1229 193 l 1229 383 l 1038 383 l 1038 972 m 314 383 l 314 390 l 750 725 l 756 725 l 756 383 l 314 383 "},"5":{"ha":1193,"x_min":46,"x_max":1147,"o":"m 1072 972 l 65 972 l 65 469 l 176 414 q 333 444 217 431 q 546 461 454 461 q 779 426 693 461 q 865 322 865 390 q 769 215 865 256 q 542 176 675 176 q 313 194 426 176 q 128 232 196 213 q 46 261 63 251 l 46 63 q 357 3 72 42 q 582 -14 486 -14 q 999 75 850 -14 q 1147 321 1147 164 q 1084 502 1147 428 q 926 608 1021 576 q 714 640 831 640 q 315 567 482 640 l 311 569 l 311 781 l 1072 781 l 1072 972 "},"6":{"ha":1324,"x_min":64,"x_max":1263,"o":"m 776 800 q 969 782 879 800 q 1100 753 1067 765 l 1151 733 l 1151 933 q 747 986 990 986 q 258 844 453 986 q 65 478 64 704 q 235 115 68 246 q 689 -14 403 -17 q 1179 138 1024 -11 q 1263 336 1263 219 q 1122 564 1263 482 q 743 646 982 646 q 531 619 632 646 q 368 549 431 593 l 363 553 q 488 733 374 669 q 776 800 603 800 m 675 493 q 899 455 817 493 q 982 344 982 417 q 899 226 982 272 q 676 182 817 181 q 453 231 539 182 q 369 346 369 281 q 465 455 369 414 q 675 493 560 496 "},"7":{"ha":1057,"x_min":22,"x_max":1035,"o":"m 22 781 l 708 781 l 708 775 l 150 0 l 469 0 l 1035 808 l 1035 972 l 22 972 l 22 781 "},"8":{"ha":1310,"x_min":61,"x_max":1249,"o":"m 61 271 q 221 60 61 135 q 654 -14 383 -14 q 1089 60 926 -14 q 1249 269 1249 132 q 985 511 1249 443 l 985 518 q 1207 729 1207 578 q 1057 918 1207 851 q 656 986 911 986 q 253 919 403 986 q 103 731 103 853 q 325 519 103 579 l 325 511 q 61 271 61 447 m 338 301 q 423 403 338 367 q 656 440 508 440 q 887 403 801 440 q 972 301 972 365 q 886 201 972 239 q 656 163 800 163 q 424 201 510 164 q 338 301 338 239 m 656 811 q 855 778 781 810 q 929 694 929 746 q 853 610 929 643 q 656 578 776 578 q 457 610 533 578 q 381 694 381 642 q 456 778 381 746 q 656 811 532 811 "},"9":{"ha":1325,"x_min":61,"x_max":1260,"o":"m 547 172 q 354 189 449 172 q 224 219 253 210 l 172 239 l 172 39 q 576 -14 333 -14 q 1065 126 871 -14 q 1258 494 1260 269 q 1089 857 1256 726 q 635 986 919 989 q 144 833 297 983 q 61 636 61 753 q 200 408 61 489 q 581 326 340 326 q 792 353 692 326 q 956 424 893 379 l 961 419 q 836 238 950 304 q 547 172 721 172 m 649 479 q 424 517 507 479 q 342 628 342 556 q 424 746 342 700 q 647 790 507 792 q 869 740 786 790 q 954 626 954 693 q 859 517 954 558 q 649 479 764 476 "},"\u0000":{"ha":800,"x_min":46,"x_max":754,"o":"m 271 188 l 394 188 l 221 361 l 221 368 l 754 368 l 754 785 l 665 785 l 665 458 l 221 458 l 221 465 l 394 639 l 271 639 l 46 413 l 271 188 "}," ":{"ha":500,"x_min":0,"x_max":0,"o":""},"!":{"ha":407,"x_min":46,"x_max":361,"o":"m 361 972 l 46 972 l 94 332 l 322 332 l 361 972 m 360 119 q 319 218 361 182 q 204 254 276 254 q 90 219 133 254 q 47 121 47 183 q 90 22 47 58 q 204 -14 132 -14 q 317 22 275 -14 q 360 119 360 57 "},"\"":{"ha":643,"x_min":46,"x_max":597,"o":"m 63 581 l 258 581 l 276 972 l 46 972 l 63 581 m 383 581 l 579 581 l 597 972 l 367 972 l 383 581 "},"#":{"ha":1394,"x_min":46,"x_max":1349,"o":"m 1349 738 l 1153 738 l 1183 972 l 901 972 l 871 738 l 589 738 l 619 972 l 338 972 l 307 738 l 119 738 l 119 594 l 288 594 l 260 378 l 46 378 l 46 235 l 242 235 l 211 0 l 493 0 l 524 235 l 806 235 l 775 0 l 1057 0 l 1088 235 l 1265 235 l 1265 378 l 1106 378 l 1135 594 l 1349 594 l 1349 738 m 542 378 l 569 594 l 853 594 l 824 378 l 542 378 "},"$":{"ha":1289,"x_min":46,"x_max":1243,"o":"m 667 608 q 418 638 492 621 q 346 703 346 656 q 649 793 346 793 q 886 772 765 793 q 1068 735 1007 754 q 1161 703 1142 713 l 1161 911 q 932 963 1104 935 q 728 983 831 979 l 728 1140 l 561 1140 l 561 983 q 54 685 54 964 q 217 457 46 533 q 335 422 260 438 q 468 403 418 408 q 622 389 574 392 q 883 354 814 374 q 957 282 957 335 q 629 182 957 182 q 311 221 468 182 q 46 308 151 261 l 46 89 q 283 29 144 54 q 561 -8 432 1 l 561 -168 l 728 -168 l 728 -12 q 1111 80 979 -3 q 1243 307 1243 163 q 1187 469 1238 411 q 1024 557 1136 526 q 869 589 956 578 q 675 608 782 600 l 667 608 "},"%":{"ha":1425,"x_min":46,"x_max":1379,"o":"m 1379 244 q 1300 431 1379 357 q 1104 503 1224 503 q 907 431 985 503 q 829 244 829 357 q 907 58 829 132 q 1104 -14 985 -14 q 1300 58 1224 -14 q 1379 244 1379 131 m 596 728 q 517 913 596 839 q 321 986 439 986 q 124 913 204 986 q 46 728 46 839 q 124 542 46 615 q 321 469 201 469 q 517 542 440 469 q 596 728 596 614 m 1086 972 l 864 972 l 338 0 l 560 0 l 1086 972 m 235 810 q 322 840 269 840 q 407 808 374 840 q 442 728 442 778 q 407 646 442 676 q 321 614 372 614 q 235 646 269 614 q 200 728 200 678 q 235 810 200 778 m 1018 164 q 983 244 983 194 q 1018 326 983 296 q 1104 358 1053 358 q 1190 326 1156 358 q 1225 244 1225 294 q 1190 163 1225 194 q 1103 132 1156 132 q 1018 164 1051 132 "},"&":{"ha":1401,"x_min":46,"x_max":1356,"o":"m 1150 213 q 1238 472 1238 331 q 1215 592 1238 542 l 951 592 q 981 467 981 539 q 922 286 981 367 q 917 285 921 285 q 719 439 826 336 q 596 581 635 522 q 557 694 557 639 q 765 808 557 808 q 1021 761 897 808 l 1021 944 q 686 986 833 986 q 351 879 465 986 q 288 731 288 819 q 319 604 288 672 l 317 599 q 120 515 194 585 q 46 329 46 446 q 126 139 46 218 q 333 22 208 60 q 617 -14 463 -14 q 957 57 811 -14 l 960 57 q 1221 -14 1111 -14 q 1356 13 1285 -14 l 1356 228 q 1153 206 1264 199 l 1150 213 m 618 146 q 356 233 457 146 q 303 347 303 282 q 328 429 303 392 q 396 483 354 467 l 400 483 q 571 314 471 400 q 756 172 646 247 l 756 165 q 618 146 690 146 "},"'":{"ha":322,"x_min":46,"x_max":276,"o":"m 63 581 l 258 581 l 276 972 l 46 972 l 63 581 "},"(":{"ha":656,"x_min":46,"x_max":610,"o":"m 610 67 q 402 225 475 117 q 329 486 329 333 q 402 747 329 639 q 610 906 475 856 l 524 1082 q 171 864 296 1018 q 46 486 46 710 q 171 108 46 263 q 524 -110 296 -46 l 610 67 "},")":{"ha":656,"x_min":46,"x_max":610,"o":"m 132 -110 q 485 108 360 -46 q 610 486 610 263 q 485 864 610 710 q 132 1082 360 1018 l 46 906 q 253 747 181 856 q 326 486 326 639 q 253 225 326 333 q 46 67 181 117 l 132 -110 "},"*":{"ha":831,"x_min":46,"x_max":785,"o":"m 704 851 l 490 714 l 485 718 l 496 972 l 335 972 l 347 718 l 340 714 l 126 851 l 46 713 l 272 596 l 272 588 l 46 471 l 126 332 l 340 469 l 346 465 l 335 211 l 496 211 l 485 465 l 490 469 l 704 332 l 785 471 l 558 588 l 558 596 l 785 713 l 704 851 "},"+":{"ha":1026,"x_min":46,"x_max":981,"o":"m 621 582 l 621 875 l 406 875 l 406 582 l 46 582 l 46 390 l 406 390 l 406 97 l 621 97 l 621 390 l 981 390 l 981 582 l 621 582 "},",":{"ha":419,"x_min":46,"x_max":374,"o":"m 210 265 q 92 228 136 265 q 46 126 47 192 q 88 26 46 65 q 190 -14 131 -14 l 186 -28 q 107 -99 171 -65 l 183 -193 q 314 -78 254 -161 q 374 104 374 4 q 329 222 374 179 q 210 265 285 265 "},"-":{"ha":843,"x_min":46,"x_max":797,"o":"m 797 390 l 797 582 l 46 582 l 46 390 l 797 390 "},".":{"ha":421,"x_min":46,"x_max":375,"o":"m 210 268 q 91 231 136 268 q 46 128 46 193 q 91 24 46 63 q 210 -14 136 -14 q 328 24 283 -14 q 374 126 374 61 q 330 229 375 192 q 210 268 285 267 "},"/":{"ha":850,"x_min":22,"x_max":828,"o":"m 828 972 l 549 972 l 22 0 l 301 0 l 828 972 "},":":{"ha":421,"x_min":46,"x_max":375,"o":"m 210 788 q 91 750 136 788 q 46 647 46 713 q 91 544 46 582 q 210 506 136 506 q 328 543 283 506 q 374 646 374 581 q 330 749 375 711 q 210 788 285 786 m 210 268 q 91 231 136 268 q 46 128 46 193 q 91 24 46 63 q 210 -14 136 -14 q 328 24 283 -14 q 374 126 374 61 q 330 229 375 192 q 210 268 285 267 "},";":{"ha":421,"x_min":46,"x_max":375,"o":"m 210 265 q 92 228 136 265 q 46 126 47 192 q 88 26 46 65 q 190 -14 131 -14 l 186 -28 q 107 -99 171 -65 l 183 -193 q 314 -78 254 -161 q 374 104 374 4 q 329 222 374 179 q 210 265 285 265 m 210 788 q 91 750 136 788 q 46 647 46 713 q 91 544 46 582 q 210 506 136 506 q 328 543 283 506 q 374 646 374 581 q 330 749 375 711 q 210 788 285 786 "},"<":{"ha":835,"x_min":46,"x_max":789,"o":"m 46 618 l 46 354 l 789 119 l 789 374 l 310 482 l 310 490 l 789 599 l 789 853 l 46 618 "},"=":{"ha":1036,"x_min":46,"x_max":990,"o":"m 990 203 l 990 399 l 46 399 l 46 203 l 990 203 m 990 576 l 990 769 l 46 769 l 46 576 l 990 576 "},">":{"ha":835,"x_min":46,"x_max":789,"o":"m 46 599 l 525 490 l 525 482 l 46 374 l 46 119 l 789 354 l 789 618 l 46 853 l 46 599 "},"?":{"ha":1004,"x_min":46,"x_max":958,"o":"m 446 986 q 232 968 332 986 q 94 939 128 950 q 46 921 90 938 l 46 732 l 97 750 q 247 788 147 769 q 446 806 343 806 q 620 771 558 806 q 682 679 682 736 q 603 579 682 611 q 314 547 522 547 l 344 328 l 572 328 l 588 447 q 958 713 958 483 q 822 913 958 839 q 446 986 686 986 m 344 22 q 458 -14 388 -14 q 572 22 529 -14 q 615 119 615 57 q 572 218 615 182 q 458 254 529 254 q 344 218 386 254 q 301 119 301 182 q 323 39 301 57 q 344 22 344 22 "},"@":{"ha":1581,"x_min":53,"x_max":1525,"o":"m 897 276 q 767 235 843 235 q 642 275 690 235 q 597 386 594 314 q 651 497 600 458 q 781 538 704 538 q 907 494 858 538 q 956 386 958 454 q 897 276 954 321 m 811 986 q 281 831 482 988 q 68 388 81 675 q 243 -56 53 101 q 765 -214 433 -214 q 978 -199 860 -214 q 1164 -157 1092 -183 l 1164 -50 q 992 -97 1099 -79 q 769 -118 879 -118 q 317 15 475 -118 q 171 388 161 150 q 347 760 182 628 q 807 890 515 892 q 1261 756 1104 890 q 1410 385 1421 624 q 1285 188 1401 188 q 1174 311 1172 189 l 1192 669 l 988 669 l 965 575 l 958 575 q 861 663 925 629 q 719 696 797 696 q 476 611 571 696 q 375 386 382 528 q 456 160 369 246 q 690 76 543 76 q 840 110 772 76 q 946 199 907 143 l 953 199 q 1206 78 1014 78 q 1431 153 1357 78 q 1513 385 1506 229 q 1333 828 1525 671 q 811 986 1144 986 "},"A":{"ha":1353,"x_min":7,"x_max":1346,"o":"m 478 972 l 7 0 l 308 0 l 393 178 l 961 178 l 1044 0 l 1346 0 l 875 972 l 478 972 m 672 776 l 681 776 l 881 358 l 472 358 l 672 776 "},"B":{"ha":1379,"x_min":129,"x_max":1318,"o":"m 129 0 l 911 0 q 1318 260 1318 0 q 1097 499 1318 449 l 1097 506 q 1272 722 1272 561 q 865 972 1272 972 l 129 972 l 129 0 m 410 176 l 410 425 l 842 425 q 975 393 926 425 q 1024 300 1024 361 q 975 208 1024 240 q 842 176 926 176 l 410 176 m 796 796 q 929 767 881 796 q 978 683 978 738 q 929 600 978 629 q 796 571 881 571 l 410 571 l 410 796 l 796 796 "},"C":{"ha":1276,"x_min":65,"x_max":1235,"o":"m 1233 304 q 1054 213 1181 247 q 801 178 929 178 q 471 257 594 178 q 347 486 347 336 q 471 715 347 638 q 801 794 594 794 q 1042 760 921 794 q 1213 676 1164 726 l 1213 911 q 1014 965 1136 946 q 775 986 894 986 q 247 855 428 986 q 65 486 65 724 q 247 117 65 249 q 775 -14 428 -14 q 1026 8 901 -14 q 1235 67 1158 31 l 1233 304 "},"D":{"ha":1414,"x_min":129,"x_max":1349,"o":"m 129 0 l 735 0 q 1190 129 1032 0 q 1349 486 1349 258 q 1190 843 1349 714 q 735 972 1032 972 l 129 972 l 129 0 m 721 781 q 975 705 885 781 q 1065 486 1065 629 q 975 267 1065 343 q 721 192 885 192 l 410 192 l 410 781 l 721 781 "},"E":{"ha":1331,"x_min":129,"x_max":1275,"o":"m 410 193 l 410 406 l 1153 406 l 1153 575 l 410 575 l 410 779 l 1253 779 l 1253 972 l 129 972 l 129 0 l 1275 0 l 1275 193 l 410 193 "},"F":{"ha":1282,"x_min":129,"x_max":1253,"o":"m 1160 322 l 1160 506 l 410 506 l 410 779 l 1253 779 l 1253 972 l 129 972 l 129 0 l 410 0 l 410 322 l 1160 322 "},"G":{"ha":1344,"x_min":65,"x_max":1285,"o":"m 665 557 l 665 394 l 1004 394 l 1004 218 q 799 174 907 174 q 467 254 585 174 q 349 486 349 335 q 469 715 349 635 q 801 794 589 794 q 1218 714 1056 794 l 1218 915 q 776 986 1008 986 q 247 855 429 986 q 65 486 65 724 q 247 117 65 249 q 776 -14 429 -14 q 1051 19 900 -14 q 1285 97 1208 56 l 1285 557 l 665 557 "},"H":{"ha":1429,"x_min":129,"x_max":1300,"o":"m 1018 381 l 1018 0 l 1300 0 l 1300 972 l 1018 972 l 1018 592 l 410 592 l 410 972 l 129 972 l 129 0 l 410 0 l 410 381 l 1018 381 "},"I":{"ha":539,"x_min":129,"x_max":410,"o":"m 410 0 l 410 972 l 129 972 l 129 0 l 410 0 "},"J":{"ha":458,"x_min":-174,"x_max":349,"o":"m 65 54 q 8 -81 65 -43 q -174 -119 -49 -119 l -174 -294 q -3 -290 -65 -294 q 74 -283 53 -287 q 201 -247 171 -265 q 347 63 349 -174 l 347 972 l 65 972 l 65 54 "},"K":{"ha":1378,"x_min":129,"x_max":1379,"o":"m 1331 972 l 946 972 l 417 539 l 410 539 l 410 972 l 129 972 l 129 0 l 410 0 l 410 215 l 635 403 l 1025 0 l 1379 0 l 847 565 l 1331 972 "},"L":{"ha":1233,"x_min":129,"x_max":1221,"o":"m 129 0 l 1221 0 l 1221 193 l 410 193 l 410 972 l 129 972 l 129 0 "},"M":{"ha":1740,"x_min":129,"x_max":1611,"o":"m 874 282 l 867 282 l 500 972 l 129 972 l 129 0 l 407 0 l 407 631 l 414 631 l 751 0 l 989 0 l 1326 631 l 1333 631 l 1333 0 l 1611 0 l 1611 972 l 1239 972 l 874 282 "},"N":{"ha":1435,"x_min":129,"x_max":1306,"o":"m 1036 361 l 1029 361 l 410 972 l 129 972 l 129 0 l 400 0 l 400 610 l 407 610 l 1021 0 l 1306 0 l 1306 972 l 1036 972 l 1036 361 "},"O":{"ha":1386,"x_min":65,"x_max":1321,"o":"m 693 178 q 434 258 526 178 q 342 486 342 338 q 434 715 342 635 q 693 794 526 794 q 951 715 858 794 q 1043 486 1043 635 q 951 258 1043 338 q 693 178 858 178 m 228 851 q 65 486 65 718 q 228 119 65 256 q 693 -14 390 -14 q 1158 119 996 -14 q 1321 486 1321 256 q 1158 851 1321 718 q 693 986 997 986 q 228 851 389 986 "},"P":{"ha":1332,"x_min":129,"x_max":1293,"o":"m 793 276 q 1293 625 1293 276 q 793 972 1293 972 l 129 972 l 129 0 l 410 0 l 410 276 l 793 276 m 792 781 q 955 741 897 781 q 1013 625 1013 701 q 955 509 1013 549 q 792 469 897 469 l 410 469 l 410 781 l 792 781 "},"Q":{"ha":1386,"x_min":65,"x_max":1321,"o":"m 1000 69 q 1235 231 1150 121 q 1321 486 1321 342 q 1158 851 1321 718 q 693 986 997 986 q 228 851 389 986 q 65 486 65 718 q 169 178 65 301 q 471 8 272 56 q 1182 -172 681 -42 l 1229 21 l 1000 63 l 1000 69 m 693 178 q 433 258 525 178 q 340 486 340 338 q 433 715 340 635 q 693 794 525 794 q 952 715 860 794 q 1044 486 1044 635 q 952 258 1044 338 q 693 178 860 178 "},"R":{"ha":1381,"x_min":129,"x_max":1335,"o":"m 1290 188 q 1235 357 1276 300 q 1094 428 1194 411 l 1094 436 q 1292 683 1292 507 q 790 972 1292 972 l 129 972 l 129 0 l 410 0 l 410 332 l 736 332 q 931 301 871 332 q 1000 188 990 272 l 1008 103 q 1010 90 1008 97 q 1014 71 1011 82 q 1018 51 1017 60 q 1039 0 1026 18 l 1335 0 q 1303 85 1311 25 l 1297 132 l 1290 188 m 410 507 l 410 781 l 790 781 q 1011 646 1011 781 q 953 542 1011 578 q 790 507 896 507 l 410 507 "},"S":{"ha":1289,"x_min":46,"x_max":1243,"o":"m 667 608 q 418 638 492 621 q 346 703 346 656 q 649 793 346 793 q 960 761 813 793 q 1161 706 1110 729 l 1161 911 q 889 968 1076 943 q 650 986 771 986 q 54 685 54 986 q 217 457 46 533 q 335 422 260 438 q 468 403 418 408 q 622 389 574 392 q 883 354 814 374 q 957 282 957 335 q 629 182 957 182 q 314 222 494 182 q 46 303 144 260 l 46 89 q 342 17 176 46 q 664 -14 515 -14 q 1096 69 949 -14 q 1243 307 1243 151 q 1187 469 1238 411 q 1025 558 1136 528 q 869 589 953 578 q 675 608 782 600 l 667 608 "},"T":{"ha":1139,"x_min":11,"x_max":1128,"o":"m 429 779 l 429 0 l 710 0 l 710 779 l 1128 779 l 1128 972 l 11 972 l 11 779 l 429 779 "},"U":{"ha":1393,"x_min":113,"x_max":1281,"o":"m 696 -14 q 1128 110 975 -14 q 1281 457 1281 235 l 1281 972 l 1000 972 l 1000 471 q 921 252 1000 328 q 697 176 842 176 q 473 252 553 176 q 393 471 393 328 l 393 972 l 113 972 l 113 454 q 265 110 115 232 q 696 -14 418 -14 "},"V":{"ha":1342,"x_min":7,"x_max":1335,"o":"m 1335 972 l 1029 972 l 675 224 l 668 224 l 313 972 l 7 972 l 472 0 l 869 0 l 1335 972 "},"W":{"ha":1772,"x_min":25,"x_max":1749,"o":"m 1242 308 l 1235 308 l 1024 972 l 749 972 l 539 308 l 532 308 l 322 972 l 25 972 l 326 0 l 683 0 l 883 604 l 890 604 l 1090 0 l 1447 0 l 1749 972 l 1450 972 l 1242 308 "},"X":{"ha":1299,"x_min":11,"x_max":1288,"o":"m 646 356 l 653 356 l 968 0 l 1288 0 l 843 503 l 843 507 l 1263 972 l 942 972 l 653 651 l 647 651 l 357 972 l 38 972 l 456 507 l 456 503 l 11 0 l 331 0 l 646 356 "},"Y":{"ha":1364,"x_min":10,"x_max":1354,"o":"m 822 344 l 1354 972 l 1043 972 l 686 554 l 679 554 l 322 972 l 10 972 l 542 346 l 542 0 l 822 0 l 822 344 "},"Z":{"ha":1232,"x_min":39,"x_max":1190,"o":"m 471 197 l 1161 803 l 1161 972 l 71 972 l 71 782 l 721 782 l 721 775 l 39 169 l 39 0 l 1190 0 l 1190 190 l 472 190 l 471 197 "},"[":{"ha":661,"x_min":129,"x_max":615,"o":"m 410 193 l 410 779 l 615 779 l 615 972 l 129 972 l 129 0 l 615 0 l 615 193 l 410 193 "},"\\":{"ha":850,"x_min":22,"x_max":828,"o":"m 828 0 l 301 972 l 22 972 l 549 0 l 828 0 "},"]":{"ha":661,"x_min":46,"x_max":532,"o":"m 46 0 l 532 0 l 532 972 l 46 972 l 46 779 l 251 779 l 251 193 l 46 193 l 46 0 "},"^":{"ha":833,"x_min":46,"x_max":788,"o":"m 257 972 l 46 296 l 286 294 l 413 744 l 421 744 l 547 294 l 788 296 l 576 972 l 257 972 "},"_":{"ha":899,"x_min":-7,"x_max":906,"o":"m 906 -192 l 906 0 l -7 0 l -7 -192 l 906 -192 "},"`":{"ha":576,"x_min":46,"x_max":531,"o":"m 344 878 l 531 878 l 354 1078 l 46 1078 l 344 878 "},"a":{"ha":1133,"x_min":43,"x_max":1032,"o":"m 519 753 q 290 733 429 753 q 114 696 158 715 l 114 500 q 271 549 157 525 q 483 571 378 571 q 753 435 753 571 l 753 424 q 465 465 625 465 q 151 406 260 465 q 43 229 43 346 q 143 50 43 114 q 418 -14 243 -14 q 767 99 664 -14 l 774 99 l 794 0 l 1032 0 l 1032 456 q 519 753 1032 753 m 751 300 q 690 183 751 225 q 503 142 628 142 q 318 244 318 142 q 549 347 318 347 q 751 313 651 347 l 751 300 "},"b":{"ha":1239,"x_min":108,"x_max":1181,"o":"m 644 161 q 458 219 529 161 q 386 372 386 276 q 458 522 386 467 q 644 578 529 578 q 834 523 764 578 q 904 372 904 468 q 833 217 904 274 q 644 161 763 161 m 733 753 q 390 629 507 753 l 383 629 l 383 1014 l 108 1014 l 108 0 l 356 0 l 374 126 l 381 126 q 733 -14 504 -14 q 1063 90 944 -14 q 1181 372 1181 196 q 1063 650 1181 549 q 733 753 943 753 "},"c":{"ha":1046,"x_min":58,"x_max":1007,"o":"m 1007 240 q 863 188 963 210 q 660 165 768 165 q 421 218 506 165 q 336 369 336 271 q 420 520 336 468 q 658 572 504 572 q 838 551 744 572 q 983 500 933 531 l 983 706 q 822 739 931 726 q 626 753 719 753 q 203 653 347 753 q 58 369 58 553 q 204 87 58 188 q 628 -14 350 -14 q 838 0 728 -14 q 1007 35 953 15 l 1007 240 "},"d":{"ha":1239,"x_min":58,"x_max":1131,"o":"m 506 753 q 176 650 296 753 q 58 372 58 549 q 176 90 58 196 q 506 -14 294 -14 q 858 126 735 -14 l 865 126 l 883 0 l 1131 0 l 1131 1014 l 856 1014 l 856 629 l 849 629 q 506 753 732 753 m 594 161 q 406 217 476 161 q 335 372 335 274 q 405 523 335 468 q 594 578 475 578 q 781 522 710 578 q 853 372 853 467 q 781 219 853 276 q 594 161 710 161 "},"e":{"ha":1144,"x_min":58,"x_max":1094,"o":"m 1094 379 q 956 653 1092 553 q 575 753 818 753 q 196 647 335 753 q 58 369 58 543 q 201 86 58 186 q 601 -14 343 -14 q 838 0 714 -14 q 1040 36 974 15 l 1040 221 q 875 179 981 199 q 676 161 775 161 q 353 304 383 161 l 1094 304 l 1094 379 m 351 428 q 430 540 369 499 q 575 582 490 582 q 738 542 679 582 q 803 428 797 501 l 351 428 "},"f":{"ha":908,"x_min":11,"x_max":897,"o":"m 783 882 q 897 881 885 882 l 897 1050 q 740 1054 850 1054 q 249 776 249 1054 l 249 739 l 11 739 l 11 574 l 249 574 l 249 0 l 522 0 l 522 574 l 897 574 l 897 739 l 522 739 q 583 852 524 822 q 783 882 643 882 "},"g":{"ha":1239,"x_min":58,"x_max":1131,"o":"m 865 615 l 860 615 q 500 753 744 753 q 175 651 292 753 q 58 372 58 550 q 175 94 58 197 q 500 -8 293 -8 q 854 125 739 -8 l 861 125 l 861 81 q 543 -107 861 -107 q 125 -39 299 -107 l 125 -239 q 325 -275 193 -258 q 579 -293 457 -293 q 982 -210 835 -293 q 1131 39 1131 -126 l 1131 739 l 883 739 l 865 615 m 783 222 q 594 167 713 167 q 405 221 475 167 q 335 372 335 275 q 405 524 335 469 q 594 578 475 578 q 783 523 713 578 q 853 372 853 468 q 818 249 853 276 q 783 222 783 222 "},"h":{"ha":1278,"x_min":108,"x_max":1176,"o":"m 744 753 q 390 629 511 753 l 383 629 l 383 1014 l 108 1014 l 108 0 l 383 0 l 383 375 q 453 524 383 471 q 640 578 522 578 q 831 524 761 578 q 900 372 900 471 l 900 0 l 1176 0 l 1176 372 q 1063 651 1176 550 q 744 753 949 753 "},"i":{"ha":518,"x_min":92,"x_max":406,"o":"m 111 0 l 386 0 l 386 739 l 111 739 l 111 0 m 249 842 q 363 876 319 840 q 406 975 406 913 q 363 1074 406 1039 q 249 1110 318 1110 q 135 1074 179 1110 q 92 975 92 1039 q 135 877 92 913 q 249 842 178 842 "},"j":{"ha":521,"x_min":-115,"x_max":408,"o":"m 106 31 q 50 -87 106 -53 q -115 -121 -6 -121 l -115 -293 q -21 -292 -42 -293 q 63 -289 -7 -292 q 142 -281 114 -286 q 269 -236 236 -262 q 351 -136 335 -183 q 381 38 381 -61 l 381 739 l 106 739 l 106 31 m 408 976 q 364 1074 408 1036 q 243 1113 319 1113 q 123 1074 168 1113 q 78 976 78 1036 q 123 878 78 917 q 243 840 168 840 q 364 878 319 840 q 408 976 408 915 "},"k":{"ha":1193,"x_min":108,"x_max":1196,"o":"m 1160 739 l 811 739 l 383 422 l 383 1014 l 108 1014 l 108 0 l 383 0 l 383 169 l 569 303 l 849 0 l 1196 0 l 771 453 l 1160 739 "},"l":{"ha":500,"x_min":113,"x_max":388,"o":"m 113 0 l 388 0 l 388 1014 l 113 1014 l 113 0 "},"m":{"ha":1876,"x_min":108,"x_max":1775,"o":"m 1385 753 q 1035 597 1140 753 l 1029 597 q 693 753 940 753 q 379 611 475 753 l 372 611 l 356 739 l 108 739 l 108 0 l 383 0 l 383 375 q 439 522 383 467 q 589 578 494 578 q 747 523 692 578 q 803 372 803 468 l 803 0 l 1079 0 l 1079 376 q 1135 522 1079 467 q 1285 578 1192 578 q 1444 523 1389 578 q 1499 372 1499 468 l 1499 0 l 1775 0 l 1775 375 q 1678 655 1775 557 q 1385 753 1581 753 "},"n":{"ha":1278,"x_min":108,"x_max":1176,"o":"m 744 753 q 379 624 497 753 l 372 624 l 356 739 l 108 739 l 108 0 l 383 0 l 383 376 q 452 525 383 472 q 640 578 521 578 q 831 524 761 578 q 900 375 900 471 l 900 0 l 1176 0 l 1176 375 q 1063 652 1176 551 q 744 753 949 753 "},"o":{"ha":1163,"x_min":58,"x_max":1104,"o":"m 760 523 q 828 369 828 468 q 760 216 828 271 q 581 161 692 161 q 402 216 469 161 q 335 369 335 271 q 402 523 335 468 q 581 578 469 578 q 726 550 692 578 q 760 523 760 523 m 1104 369 q 965 650 1104 549 q 582 753 825 753 q 197 650 338 753 q 58 369 58 549 q 197 89 58 190 q 582 -14 338 -14 q 965 88 826 -14 q 1104 369 1104 189 "},"p":{"ha":1239,"x_min":108,"x_max":1181,"o":"m 733 -14 q 1063 90 944 -14 q 1181 371 1181 196 q 1063 650 1181 549 q 733 753 943 753 q 381 621 497 753 l 374 621 l 356 739 l 108 739 l 108 -279 l 383 -279 l 383 108 l 390 108 q 733 -14 508 -14 m 644 578 q 834 522 764 578 q 904 369 904 467 q 834 217 904 272 q 644 161 764 161 q 458 218 529 161 q 386 371 386 275 q 458 522 386 465 q 644 578 529 578 "},"q":{"ha":1239,"x_min":58,"x_max":1131,"o":"m 594 578 q 781 522 710 578 q 853 371 853 465 q 781 218 853 275 q 594 161 710 161 q 405 217 475 161 q 335 369 335 272 q 405 522 335 467 q 594 578 475 578 m 506 -14 q 849 108 731 -14 l 856 108 l 856 -279 l 1131 -279 l 1131 739 l 883 739 l 865 621 l 858 621 q 506 753 742 753 q 176 650 296 753 q 58 371 58 549 q 176 90 58 196 q 506 -14 294 -14 "},"r":{"ha":746,"x_min":108,"x_max":743,"o":"m 375 586 l 356 739 l 108 739 l 108 0 l 383 0 l 383 319 q 423 429 385 382 q 518 500 461 476 q 634 533 575 524 q 743 536 693 542 l 743 753 q 382 586 483 753 l 375 586 "},"s":{"ha":1035,"x_min":40,"x_max":994,"o":"m 546 469 q 515 471 529 469 q 356 490 399 479 q 313 533 313 501 q 539 590 313 590 q 910 542 736 590 l 910 711 q 515 753 743 753 q 170 690 294 753 q 46 515 46 626 q 178 343 46 397 q 499 285 304 294 q 677 262 629 276 q 725 213 725 247 q 526 150 725 150 q 40 222 274 150 l 40 46 q 526 -14 261 -14 q 994 239 994 -14 q 883 403 994 349 q 546 469 771 457 "},"t":{"ha":894,"x_min":7,"x_max":894,"o":"m 756 164 q 570 208 625 164 q 515 354 515 253 l 515 574 l 867 574 l 867 739 l 515 739 l 515 972 l 242 972 l 242 739 l 7 739 l 7 574 l 242 574 l 242 343 q 426 25 242 93 q 735 -14 539 -14 q 894 -3 799 -14 l 894 176 l 756 164 "},"u":{"ha":1278,"x_min":101,"x_max":1169,"o":"m 533 -14 q 899 115 781 -14 l 906 115 l 922 0 l 1169 0 l 1169 739 l 894 739 l 894 363 q 826 214 894 267 q 638 161 757 161 q 447 215 517 161 q 378 364 378 268 l 378 739 l 101 739 l 101 364 q 215 87 101 188 q 533 -14 329 -14 "},"v":{"ha":1182,"x_min":14,"x_max":1168,"o":"m 594 218 l 588 218 l 322 739 l 14 739 l 410 0 l 774 0 l 1168 739 l 860 739 l 594 218 "},"w":{"ha":1607,"x_min":26,"x_max":1581,"o":"m 1122 246 l 1115 246 l 928 739 l 679 739 l 492 246 l 485 246 l 311 739 l 26 739 l 303 0 l 622 0 l 800 435 l 807 435 l 985 0 l 1304 0 l 1581 739 l 1296 739 l 1122 246 "},"x":{"ha":1169,"x_min":18,"x_max":1151,"o":"m 806 739 l 588 499 l 582 499 l 364 739 l 43 739 l 378 385 l 378 379 l 18 0 l 338 0 l 582 257 l 588 257 l 832 0 l 1151 0 l 792 379 l 792 385 l 1126 739 l 806 739 "},"y":{"ha":1171,"x_min":14,"x_max":1157,"o":"m 608 281 l 601 281 l 322 739 l 14 739 l 479 32 l 318 -279 l 596 -279 l 1157 739 l 850 739 l 608 281 "},"z":{"ha":1074,"x_min":35,"x_max":1039,"o":"m 1000 747 l 58 747 l 58 574 l 583 574 l 583 567 l 35 146 l 35 8 l 1039 8 l 1039 181 l 467 181 l 465 188 l 1000 604 l 1000 747 "},"{":{"ha":703,"x_min":46,"x_max":657,"o":"m 446 250 q 339 482 449 435 l 339 490 q 446 722 449 538 q 485 838 446 804 q 581 868 525 871 q 657 858 631 868 l 656 1054 q 482 1081 557 1082 q 175 785 175 1081 q 147 613 176 667 q 46 561 118 558 l 46 411 q 147 360 118 414 q 175 188 176 306 q 482 -108 175 -108 q 656 -82 557 -110 l 657 114 q 581 103 631 104 q 518 113 543 103 q 467 160 488 125 q 446 250 446 196 "},"|":{"ha":483,"x_min":129,"x_max":354,"o":"m 129 -78 l 354 -78 l 354 1050 l 129 1050 l 129 -78 "},"}":{"ha":703,"x_min":46,"x_max":657,"o":"m 257 250 q 216 134 254 168 q 121 103 178 100 q 46 114 71 104 l 47 -82 q 221 -108 146 -110 q 528 188 528 -108 q 556 360 526 306 q 657 411 585 414 l 657 561 q 556 613 585 558 q 528 785 526 667 q 221 1081 528 1081 q 47 1054 146 1082 l 46 858 q 121 868 72 868 q 185 858 154 869 q 236 813 215 849 q 257 722 257 776 q 364 490 254 538 l 364 482 q 257 250 254 435 "},"~":{"ha":944,"x_min":46,"x_max":899,"o":"m 124 354 q 235 403 172 390 q 353 407 299 417 q 481 381 389 403 q 899 415 761 313 l 817 618 q 703 569 767 582 q 586 564 640 556 q 458 592 556 569 q 46 558 179 658 l 124 354 "}," ":{"ha":0,"x_min":0,"x_max":0,"o":""},"¡":{"ha":407,"x_min":46,"x_max":361,"o":"m 94 626 l 46 -14 l 361 -14 l 322 626 l 94 626 m 90 740 q 204 704 133 704 q 319 740 276 704 q 360 839 361 776 q 317 937 360 901 q 204 972 275 972 q 90 936 132 972 q 47 838 47 900 q 69 757 47 775 q 90 740 90 740 "},"¢":{"ha":1029,"x_min":46,"x_max":983,"o":"m 675 117 q 983 164 878 122 l 983 357 q 840 307 938 329 q 640 285 746 285 q 405 336 489 285 q 321 483 321 388 q 404 631 321 579 q 639 682 488 682 q 815 661 722 682 q 958 611 911 640 l 958 806 q 675 849 867 842 l 675 972 l 508 972 l 508 847 q 164 736 282 831 q 46 483 46 642 q 164 231 46 325 q 508 119 282 136 l 508 0 l 675 0 l 675 117 "},"£":{"ha":1261,"x_min":46,"x_max":1215,"o":"m 540 408 l 1110 408 l 1110 576 l 540 576 l 540 679 q 602 769 540 735 q 778 804 664 804 q 981 783 876 804 q 1121 751 1082 765 q 1176 731 1163 736 l 1176 919 l 1131 936 q 986 969 1088 953 q 778 986 889 986 q 400 913 539 986 q 264 713 264 839 l 264 576 l 46 576 l 46 408 l 264 408 l 264 321 q 218 219 264 263 q 118 178 172 178 l 118 0 l 1215 0 l 1215 193 l 481 193 l 481 200 q 540 343 540 251 l 540 408 "},"¤":{"ha":1093,"x_min":46,"x_max":1047,"o":"m 736 775 q 546 811 656 811 q 357 775 436 811 l 171 936 l 46 796 l 199 664 q 150 486 150 590 q 199 308 150 382 l 46 176 l 171 36 l 357 197 q 546 161 436 161 q 736 197 656 161 l 921 36 l 1047 176 l 893 308 q 943 486 943 381 q 893 664 943 592 l 1047 796 l 921 936 l 736 775 m 407 363 q 357 486 357 406 q 407 608 357 567 q 546 651 456 651 q 685 608 636 651 q 735 486 735 567 q 685 363 735 406 q 546 321 635 321 q 407 363 457 321 "},"¥":{"ha":1436,"x_min":46,"x_max":1390,"o":"m 1390 972 l 1079 972 l 722 554 l 715 554 l 358 972 l 46 972 l 507 431 l 507 424 l 222 424 l 221 325 l 578 325 l 578 247 l 222 247 l 221 149 l 578 149 l 578 0 l 858 0 l 858 149 l 1215 149 l 1215 247 l 858 247 l 858 325 l 1215 325 l 1215 424 l 931 424 l 931 431 l 1390 972 "},"¦":{"ha":490,"x_min":129,"x_max":361,"o":"m 129 368 l 129 -60 l 361 -60 l 361 368 l 129 368 m 361 611 l 361 1032 l 129 1032 l 129 611 l 361 611 "},"§":{"ha":1032,"x_min":46,"x_max":986,"o":"m 535 297 q 296 388 296 297 q 501 468 296 468 q 736 379 736 468 q 535 297 736 297 m 986 415 q 857 600 986 542 q 543 664 738 654 q 375 686 421 672 q 329 736 329 700 q 401 793 329 775 q 561 813 476 813 q 732 799 654 813 q 853 772 819 783 q 908 750 893 760 l 907 932 q 700 975 864 954 q 515 986 603 986 q 178 915 308 986 q 46 724 46 844 q 161 540 46 603 q 46 351 46 469 q 489 101 46 128 q 656 79 610 94 q 703 28 703 64 q 629 -31 703 -11 q 471 -49 551 -50 q 256 -28 361 -49 q 124 7 156 -10 l 124 -175 q 278 -204 147 -186 q 517 -222 404 -222 q 854 -151 722 -222 q 986 40 986 -81 q 867 225 986 163 q 986 415 986 300 "},"¨":{"ha":731,"x_min":56,"x_max":675,"o":"m 185 1082 q 90 1054 125 1082 q 56 976 56 1026 q 90 899 56 926 q 183 871 125 871 q 278 899 243 871 q 313 976 313 926 q 278 1054 313 1026 q 185 1082 243 1082 m 547 871 q 640 899 606 871 q 675 976 675 926 q 640 1054 675 1026 q 547 1082 606 1082 q 453 1054 488 1082 q 418 976 418 1026 q 453 899 418 926 q 547 871 488 871 "},"©":{"ha":1160,"x_min":46,"x_max":1115,"o":"m 626 361 q 501 393 549 361 q 453 486 453 425 q 501 578 453 546 q 626 610 549 610 q 767 585 717 607 l 767 704 q 618 724 692 724 q 384 661 471 725 q 297 486 297 597 q 383 312 297 375 q 618 247 469 249 q 794 271 726 247 l 794 393 q 626 361 733 361 m 579 139 q 276 231 386 139 q 167 486 165 324 q 278 742 167 650 q 579 833 389 833 q 881 742 769 833 q 992 486 992 651 q 881 229 992 321 q 579 139 769 136 m 579 940 q 189 818 332 940 q 46 486 46 697 q 188 153 46 275 q 579 32 331 32 q 969 151 826 31 q 1113 486 1113 274 q 971 818 1115 697 q 579 940 828 940 "},"ª":{"ha":665,"x_min":46,"x_max":619,"o":"m 322 986 q 189 975 274 986 q 86 954 111 964 l 86 840 q 176 867 113 854 q 299 881 238 881 q 410 858 372 881 q 449 797 449 836 l 449 789 q 279 815 382 815 q 108 781 169 815 q 46 683 46 747 q 103 584 46 621 q 254 547 160 547 q 457 618 406 547 l 461 618 l 475 554 l 619 554 l 619 815 q 322 986 619 986 m 314 632 q 213 692 213 632 q 339 750 213 750 q 447 731 397 750 l 447 724 q 314 632 447 632 "},"«":{"ha":993,"x_min":46,"x_max":947,"o":"m 428 486 l 714 111 l 947 111 l 657 483 l 657 489 l 947 861 l 714 861 l 428 486 m 46 486 l 332 111 l 565 111 l 274 483 l 274 489 l 565 861 l 332 861 l 46 486 "},"¬":{"ha":936,"x_min":46,"x_max":890,"o":"m 46 499 l 664 499 l 664 276 l 890 276 l 890 696 l 46 696 l 46 499 "},"­":{"ha":843,"x_min":46,"x_max":797,"o":"m 797 390 l 797 582 l 46 582 l 46 390 l 797 390 "},"®":{"ha":747,"x_min":22,"x_max":701,"o":"m 115 463 q 361 381 208 381 q 608 463 514 381 q 701 683 701 543 q 608 904 701 824 q 361 986 514 986 q 114 903 208 986 q 22 683 22 822 q 115 463 22 546 m 99 683 q 172 856 99 794 q 361 917 246 917 q 550 856 476 917 q 625 683 625 794 q 550 511 625 572 q 361 450 476 450 q 172 511 246 450 q 99 628 99 572 q 99 683 99 683 m 310 525 l 310 640 l 371 640 l 436 525 l 528 525 l 449 654 q 528 744 528 672 q 492 816 528 790 q 396 842 457 842 l 226 842 l 226 525 l 310 525 m 386 782 q 442 742 442 782 q 386 703 442 703 l 310 703 l 310 782 l 386 782 "},"¯":{"ha":739,"x_min":46,"x_max":693,"o":"m 46 878 l 693 878 l 693 1033 l 46 1033 l 46 878 "},"°":{"ha":583,"x_min":22,"x_max":538,"o":"m 467 581 q 538 751 538 644 q 467 922 538 858 q 281 986 399 986 q 93 922 163 986 q 22 751 22 858 q 93 581 22 644 q 281 517 163 517 q 467 581 399 517 m 197 674 q 165 751 165 703 q 197 830 165 801 q 281 858 229 858 q 363 829 332 858 q 394 751 394 800 q 363 674 394 703 q 281 646 332 646 q 213 660 229 646 q 197 674 197 674 "},"±":{"ha":986,"x_min":46,"x_max":940,"o":"m 606 674 l 606 908 l 390 908 l 390 674 l 54 674 l 54 481 l 390 481 l 390 246 l 606 246 l 606 481 l 924 481 l 924 674 l 606 674 m 940 0 l 940 157 l 46 157 l 46 0 l 940 0 "},"²":{"ha":729,"x_min":26,"x_max":683,"o":"m 238 565 q 276 634 236 611 q 406 674 315 657 q 479 688 460 683 q 547 710 493 690 q 614 742 589 724 q 674 854 674 786 q 350 1036 674 1036 q 219 1025 308 1036 q 106 1007 154 1017 l 106 879 l 133 889 q 328 914 218 914 q 497 856 497 914 q 488 832 497 842 q 322 781 461 801 q 93 664 160 753 q 56 446 26 575 l 683 446 l 683 565 l 238 565 "},"³":{"ha":726,"x_min":46,"x_max":681,"o":"m 531 757 q 651 886 651 797 q 306 1036 651 1033 q 74 1017 163 1036 l 74 900 q 286 924 168 924 q 475 863 475 924 q 289 794 475 797 l 146 794 l 146 697 q 319 703 194 703 q 501 629 501 699 q 444 571 501 592 q 282 550 386 550 q 153 560 222 550 q 46 581 79 571 l 46 460 q 306 438 133 438 q 583 482 485 438 q 681 613 681 526 q 531 753 681 714 l 531 757 "},"´":{"ha":576,"x_min":46,"x_max":531,"o":"m 46 878 l 232 878 l 531 1078 l 222 1078 l 46 878 "},"µ":{"ha":1285,"x_min":108,"x_max":1176,"o":"m 903 363 q 831 215 901 268 q 644 161 761 161 q 454 215 524 161 q 385 367 385 268 l 385 739 l 108 739 l 108 -279 l 383 -279 l 383 10 l 389 10 q 540 -14 451 -14 q 906 142 796 -14 l 913 142 l 931 0 l 1176 0 l 1176 739 l 903 739 l 903 363 "},"¶":{"ha":1454,"x_min":39,"x_max":1325,"o":"m 1325 972 l 492 972 q 160 881 281 972 q 39 626 39 789 q 165 372 39 465 q 506 281 292 281 l 704 282 l 703 0 l 942 0 l 940 767 l 1089 767 l 1088 0 l 1325 0 l 1325 972 m 490 483 q 371 521 415 483 q 326 622 326 558 q 369 724 326 686 q 483 763 411 763 l 703 763 l 704 483 l 490 483 "},"·":{"ha":421,"x_min":46,"x_max":375,"o":"m 210 639 q 92 596 139 639 q 46 486 46 553 q 92 376 46 419 q 210 333 139 333 q 326 376 282 333 q 374 486 374 419 q 328 596 375 553 q 210 639 282 639 "},"¸":{"ha":394,"x_min":46,"x_max":349,"o":"m 46 -256 l 199 -256 l 349 0 l 149 32 l 46 -256 "},"¹":{"ha":407,"x_min":46,"x_max":361,"o":"m 192 1028 q 150 939 190 971 q 46 907 110 907 l 47 796 q 179 819 125 796 l 183 819 l 183 446 l 361 446 l 361 1028 l 192 1028 "},"º":{"ha":699,"x_min":46,"x_max":653,"o":"m 349 656 q 251 685 289 656 q 214 768 214 714 q 251 851 214 822 q 349 881 289 881 q 446 851 408 881 q 483 768 483 822 q 446 685 483 714 q 378 656 408 656 q 349 656 349 656 m 125 607 q 349 550 207 550 q 572 607 490 550 q 653 768 653 665 q 572 928 653 872 q 349 986 492 986 q 125 928 207 986 q 46 768 46 872 q 125 607 46 665 "},"»":{"ha":993,"x_min":46,"x_max":947,"o":"m 46 861 l 336 489 l 336 483 l 46 111 l 279 111 l 565 486 l 279 861 l 46 861 m 428 861 l 719 489 l 719 483 l 428 111 l 661 111 l 947 486 l 661 861 l 428 861 "},"¼":{"ha":1564,"x_min":46,"x_max":1518,"o":"m 1406 582 l 1239 582 l 785 217 l 785 113 l 1226 113 l 1226 0 l 1406 0 l 1406 113 l 1518 113 l 1518 232 l 1406 232 l 1406 582 m 1200 972 l 958 972 l 238 0 l 479 0 l 1200 972 m 190 972 q 149 883 189 915 q 46 851 110 851 l 46 740 q 179 763 126 740 l 182 763 l 182 390 l 361 390 l 361 972 l 190 972 m 975 232 l 975 238 l 1222 426 l 1226 426 l 1226 232 l 975 232 "},"½":{"ha":1636,"x_min":46,"x_max":1590,"o":"m 1208 972 l 967 972 l 246 0 l 488 0 l 1208 972 m 1144 119 q 1168 174 1143 150 q 1226 208 1193 197 q 1314 229 1258 219 q 1456 264 1399 244 q 1521 296 1497 278 q 1581 408 1581 340 q 1258 590 1581 590 q 1126 579 1218 590 q 1014 561 1058 571 l 1014 433 l 1042 442 q 1235 468 1131 468 q 1404 410 1404 468 q 1401 393 1404 400 q 1388 381 1397 386 q 1372 372 1379 375 q 1349 363 1364 368 q 1325 353 1333 357 q 1299 348 1319 351 q 1274 342 1279 344 q 1260 340 1271 342 q 1240 336 1249 338 q 1229 335 1232 335 q 1001 218 1067 307 q 964 0 935 129 l 1590 0 l 1590 119 l 1144 119 m 190 972 q 149 883 189 915 q 46 851 110 851 l 46 740 q 179 763 126 740 l 182 763 l 182 390 l 361 390 l 361 972 l 190 972 "},"¾":{"ha":1750,"x_min":46,"x_max":1704,"o":"m 1592 582 l 1425 581 l 971 215 l 969 113 l 1413 113 l 1413 0 l 1592 0 l 1592 113 l 1704 113 l 1704 232 l 1592 232 l 1592 582 m 1385 972 l 1144 972 l 422 0 l 664 0 l 1385 972 m 531 701 q 651 831 651 744 q 306 981 651 981 q 72 963 163 981 l 72 844 q 285 868 167 868 q 428 854 383 868 q 474 807 474 840 q 289 739 474 740 l 146 739 l 146 642 q 318 647 221 650 q 501 574 501 643 q 444 515 501 536 q 282 496 386 494 q 151 504 225 496 q 46 525 76 515 l 46 404 q 304 382 133 382 q 582 426 483 382 q 681 557 681 471 q 531 697 681 660 l 531 701 m 1161 232 l 1161 236 l 1408 426 l 1413 426 l 1413 232 l 1161 232 "},"¿":{"ha":1004,"x_min":46,"x_max":958,"o":"m 558 -14 q 772 4 672 -14 q 908 33 878 24 q 958 51 919 38 l 958 240 l 908 222 q 757 185 856 203 q 558 167 661 167 q 384 201 446 167 q 322 293 322 236 q 401 393 322 361 q 690 425 482 425 l 660 644 l 432 644 l 417 525 q 46 260 46 489 q 182 58 46 132 q 558 -14 317 -14 m 660 951 q 546 986 617 986 q 432 951 475 986 q 389 853 389 915 q 432 754 389 790 q 546 718 475 718 q 660 754 618 718 q 703 853 703 790 q 681 933 703 915 q 660 951 660 951 "},"À":{"ha":1353,"x_min":7,"x_max":1346,"o":"m 478 972 l 7 0 l 308 0 l 393 178 l 961 178 l 1044 0 l 1346 0 l 875 972 l 478 972 m 672 776 l 681 776 l 881 358 l 472 358 l 672 776 m 588 1089 l 774 1089 l 597 1289 l 289 1289 l 588 1089 "},"Á":{"ha":1353,"x_min":7,"x_max":1346,"o":"m 478 972 l 7 0 l 308 0 l 393 178 l 961 178 l 1044 0 l 1346 0 l 875 972 l 478 972 m 672 776 l 681 776 l 881 358 l 472 358 l 672 776 m 567 1089 l 753 1089 l 1051 1289 l 743 1289 l 567 1089 "},"Â":{"ha":1353,"x_min":7,"x_max":1346,"o":"m 478 972 l 7 0 l 308 0 l 393 178 l 961 178 l 1044 0 l 1346 0 l 875 972 l 478 972 m 560 1089 l 678 1192 l 796 1089 l 1038 1089 l 819 1289 l 533 1289 l 315 1089 l 560 1089 m 672 776 l 681 776 l 881 358 l 472 358 l 672 776 "},"Ã":{"ha":1353,"x_min":7,"x_max":1346,"o":"m 478 972 l 7 0 l 308 0 l 393 178 l 961 178 l 1044 0 l 1346 0 l 875 972 l 478 972 m 431 1117 q 493 1156 463 1143 q 550 1167 501 1161 q 568 1165 556 1167 q 594 1160 581 1163 q 611 1157 608 1157 l 646 1147 l 682 1138 q 787 1114 754 1118 q 879 1118 819 1110 q 975 1164 931 1128 l 918 1333 q 799 1283 857 1283 q 765 1288 792 1283 q 738 1293 739 1293 q 667 1313 718 1296 q 563 1336 613 1328 q 471 1332 522 1342 q 376 1286 421 1322 l 431 1117 m 672 776 l 681 776 l 881 358 l 472 358 l 672 776 "},"Ä":{"ha":1353,"x_min":7,"x_max":1346,"o":"m 478 972 l 7 0 l 308 0 l 393 178 l 961 178 l 1044 0 l 1346 0 l 875 972 l 478 972 m 672 776 l 681 776 l 881 358 l 472 358 l 672 776 m 496 1293 q 401 1265 436 1293 q 367 1188 367 1238 q 401 1110 367 1138 q 494 1082 436 1082 q 589 1110 554 1082 q 624 1188 624 1138 q 589 1265 624 1238 q 496 1293 554 1293 m 858 1082 q 951 1110 917 1082 q 986 1188 986 1138 q 951 1265 986 1238 q 858 1293 917 1293 q 765 1265 800 1293 q 729 1188 729 1238 q 764 1110 729 1138 q 858 1082 799 1082 "},"Å":{"ha":1353,"x_min":7,"x_max":1346,"o":"m 478 972 l 7 0 l 308 0 l 393 178 l 961 178 l 1044 0 l 1346 0 l 875 972 l 478 972 m 676 1415 q 514 1370 575 1415 q 453 1247 453 1325 q 514 1124 453 1169 q 676 1079 575 1079 q 840 1124 779 1079 q 900 1247 900 1169 q 840 1370 900 1325 q 676 1415 779 1415 m 672 776 l 681 776 l 881 358 l 472 358 l 672 776 m 737 1299 q 758 1246 758 1279 q 737 1193 758 1213 q 678 1174 715 1174 q 618 1193 640 1174 q 596 1246 596 1213 q 618 1299 596 1281 q 678 1318 640 1318 q 726 1308 715 1318 q 737 1299 737 1299 "},"Æ":{"ha":2210,"x_min":-19,"x_max":2154,"o":"m 1289 406 l 2032 406 l 2032 575 l 1289 575 l 1289 779 l 2132 779 l 2132 972 l 871 972 l -19 0 l 303 0 l 464 178 l 1008 178 l 1008 0 l 2154 0 l 2154 193 l 1289 193 l 1289 406 m 1004 776 l 1008 776 l 1008 358 l 622 358 l 1004 776 "},"Ç":{"ha":1276,"x_min":65,"x_max":1235,"o":"m 1233 304 q 1054 213 1181 247 q 801 178 929 178 q 471 257 594 178 q 347 486 347 336 q 471 715 347 638 q 801 794 594 794 q 1042 760 921 794 q 1213 676 1164 726 l 1213 911 q 1014 965 1136 946 q 775 986 894 986 q 247 855 428 986 q 65 486 65 724 q 195 160 65 285 q 576 0 325 35 l 486 -256 l 639 -256 l 781 -14 q 1031 10 913 -11 q 1235 67 1163 33 l 1233 304 "},"È":{"ha":1331,"x_min":129,"x_max":1275,"o":"m 410 193 l 410 406 l 1153 406 l 1153 575 l 410 575 l 410 779 l 1253 779 l 1253 972 l 129 972 l 129 0 l 1275 0 l 1275 193 l 410 193 m 614 1089 l 800 1089 l 624 1289 l 315 1289 l 614 1089 "},"É":{"ha":1331,"x_min":129,"x_max":1275,"o":"m 410 193 l 410 406 l 1153 406 l 1153 575 l 410 575 l 410 779 l 1253 779 l 1253 972 l 129 972 l 129 0 l 1275 0 l 1275 193 l 410 193 m 588 1089 l 774 1089 l 1072 1289 l 764 1289 l 588 1089 "},"Ê":{"ha":1331,"x_min":129,"x_max":1275,"o":"m 410 193 l 410 406 l 1153 406 l 1153 575 l 410 575 l 410 779 l 1253 779 l 1253 972 l 129 972 l 129 0 l 1275 0 l 1275 193 l 410 193 m 549 1089 l 667 1192 l 785 1089 l 1026 1089 l 808 1289 l 522 1289 l 304 1089 l 549 1089 "},"Ë":{"ha":1331,"x_min":129,"x_max":1275,"o":"m 410 193 l 410 406 l 1153 406 l 1153 575 l 410 575 l 410 779 l 1253 779 l 1253 972 l 129 972 l 129 0 l 1275 0 l 1275 193 l 410 193 m 485 1293 q 390 1265 425 1293 q 356 1188 356 1238 q 390 1110 356 1138 q 483 1082 425 1082 q 578 1110 543 1082 q 613 1188 613 1138 q 578 1265 613 1238 q 485 1293 543 1293 m 847 1082 q 940 1110 906 1082 q 975 1188 975 1138 q 940 1265 975 1238 q 847 1293 906 1293 q 753 1265 789 1293 q 718 1188 718 1238 q 753 1110 718 1138 q 847 1082 788 1082 "},"Ì":{"ha":539,"x_min":-115,"x_max":410,"o":"m 410 0 l 410 972 l 129 972 l 129 0 l 410 0 m 183 1089 l 369 1089 l 193 1289 l -115 1289 l 183 1089 "},"Í":{"ha":539,"x_min":129,"x_max":664,"o":"m 410 0 l 410 972 l 129 972 l 129 0 l 410 0 m 179 1089 l 365 1089 l 664 1289 l 356 1289 l 179 1089 "},"Î":{"ha":539,"x_min":-92,"x_max":631,"o":"m 410 0 l 410 972 l 129 972 l 129 0 l 410 0 m 153 1089 l 271 1192 l 389 1089 l 631 1089 l 413 1289 l 126 1289 l -92 1089 l 153 1089 "},"Ï":{"ha":539,"x_min":-40,"x_max":579,"o":"m 410 0 l 410 972 l 129 972 l 129 0 l 410 0 m 89 1293 q -6 1265 29 1293 q -40 1188 -40 1238 q -6 1110 -40 1138 q 88 1082 29 1082 q 182 1110 147 1082 q 217 1188 217 1138 q 182 1265 217 1238 q 89 1293 147 1293 m 451 1082 q 544 1110 510 1082 q 579 1188 579 1138 q 544 1265 579 1238 q 451 1293 510 1293 q 357 1265 392 1293 q 322 1188 322 1238 q 357 1110 322 1138 q 451 1082 392 1082 "},"Ð":{"ha":1556,"x_min":-1,"x_max":1490,"o":"m 875 0 q 1331 129 1172 0 q 1490 486 1490 258 q 1331 843 1490 714 q 875 972 1172 972 l 269 972 l 269 532 l -1 532 l -1 428 l 269 428 l 269 0 l 875 0 m 858 428 l 858 532 l 551 532 l 551 781 l 863 781 q 1116 705 1026 781 q 1206 486 1206 629 q 1116 267 1206 343 q 863 192 1026 192 l 551 192 l 551 428 l 858 428 "},"Ñ":{"ha":1435,"x_min":129,"x_max":1306,"o":"m 1036 361 l 1029 361 l 410 972 l 129 972 l 129 0 l 400 0 l 400 610 l 407 610 l 1021 0 l 1306 0 l 1306 972 l 1036 972 l 1036 361 m 472 1117 q 535 1156 504 1143 q 592 1167 543 1161 q 610 1165 597 1167 q 636 1160 622 1163 q 653 1157 650 1157 l 688 1147 l 724 1138 q 828 1114 796 1118 q 921 1118 861 1110 q 1017 1164 972 1128 l 960 1333 q 840 1283 899 1283 q 807 1288 833 1283 q 779 1293 781 1293 q 708 1313 760 1296 q 604 1336 654 1328 q 513 1332 564 1342 q 418 1286 463 1322 l 472 1117 "},"Ò":{"ha":1386,"x_min":65,"x_max":1321,"o":"m 693 178 q 434 258 526 178 q 342 486 342 338 q 434 715 342 635 q 693 794 526 794 q 951 715 858 794 q 1043 486 1043 635 q 951 258 1043 338 q 693 178 858 178 m 228 851 q 65 486 65 718 q 228 119 65 256 q 693 -14 390 -14 q 1158 119 996 -14 q 1321 486 1321 256 q 1158 851 1321 718 q 693 986 997 986 q 228 851 389 986 m 592 1089 l 778 1089 l 601 1289 l 293 1289 l 592 1089 "},"Ó":{"ha":1386,"x_min":65,"x_max":1321,"o":"m 693 178 q 434 258 526 178 q 342 486 342 338 q 434 715 342 635 q 693 794 526 794 q 951 715 858 794 q 1043 486 1043 635 q 951 258 1043 338 q 693 178 858 178 m 228 851 q 65 486 65 718 q 228 119 65 256 q 693 -14 390 -14 q 1158 119 996 -14 q 1321 486 1321 256 q 1158 851 1321 718 q 693 986 997 986 q 228 851 389 986 m 592 1089 l 778 1089 l 1076 1289 l 768 1289 l 592 1089 "},"Ô":{"ha":1386,"x_min":65,"x_max":1321,"o":"m 693 178 q 434 258 526 178 q 342 486 342 338 q 434 715 342 635 q 693 794 526 794 q 951 715 858 794 q 1043 486 1043 635 q 951 258 1043 338 q 693 178 858 178 m 228 851 q 65 486 65 718 q 228 119 65 256 q 693 -14 390 -14 q 1158 119 996 -14 q 1321 486 1321 256 q 1158 851 1321 718 q 693 986 997 986 q 228 851 389 986 m 576 1089 l 694 1192 l 813 1089 l 1054 1089 l 836 1289 l 550 1289 l 332 1089 l 576 1089 "},"Õ":{"ha":1386,"x_min":65,"x_max":1321,"o":"m 693 178 q 434 258 526 178 q 342 486 342 338 q 434 715 342 635 q 693 794 526 794 q 951 715 858 794 q 1043 486 1043 635 q 951 258 1043 338 q 693 178 858 178 m 228 851 q 65 486 65 718 q 228 119 65 256 q 693 -14 390 -14 q 1158 119 996 -14 q 1321 486 1321 256 q 1158 851 1321 718 q 693 986 997 986 q 228 851 389 986 m 447 1117 q 510 1156 479 1143 q 567 1167 518 1161 q 585 1165 572 1167 q 611 1160 597 1163 q 628 1157 625 1157 l 663 1147 l 699 1138 q 803 1114 771 1118 q 896 1118 836 1110 q 992 1164 947 1128 l 935 1333 q 815 1283 874 1283 q 782 1288 808 1283 q 754 1293 756 1293 q 683 1313 735 1296 q 579 1336 629 1328 q 488 1332 539 1342 q 393 1286 438 1322 l 447 1117 "},"Ö":{"ha":1386,"x_min":65,"x_max":1321,"o":"m 693 178 q 434 258 526 178 q 342 486 342 338 q 434 715 342 635 q 693 794 526 794 q 951 715 858 794 q 1043 486 1043 635 q 951 258 1043 338 q 693 178 858 178 m 228 851 q 65 486 65 718 q 228 119 65 256 q 693 -14 390 -14 q 1158 119 996 -14 q 1321 486 1321 256 q 1158 851 1321 718 q 693 986 997 986 q 228 851 389 986 m 513 1293 q 418 1265 453 1293 q 383 1188 383 1238 q 418 1110 383 1138 q 511 1082 453 1082 q 606 1110 571 1082 q 640 1188 640 1138 q 606 1265 640 1238 q 513 1293 571 1293 m 875 1082 q 968 1110 933 1082 q 1003 1188 1003 1138 q 968 1265 1003 1238 q 875 1293 933 1293 q 781 1265 817 1293 q 746 1188 746 1238 q 781 1110 746 1138 q 875 1082 815 1082 "},"×":{"ha":801,"x_min":46,"x_max":756,"o":"m 611 819 l 404 625 l 399 625 l 190 819 l 46 683 l 253 489 l 253 483 l 46 289 l 190 153 l 399 347 l 404 347 l 611 153 l 756 289 l 549 483 l 549 489 l 756 683 l 611 819 "},"Ø":{"ha":1386,"x_min":65,"x_max":1321,"o":"m 1043 486 q 951 258 1043 338 q 693 178 858 178 q 499 217 578 178 l 972 690 q 1043 486 1043 614 m 693 794 q 888 754 803 794 l 414 282 q 342 486 342 356 q 434 715 342 635 q 693 794 526 794 m 693 -14 q 1158 119 996 -14 q 1321 486 1321 256 q 1144 863 1321 732 l 1275 993 l 1200 1068 l 1049 917 q 693 986 899 986 q 228 851 389 986 q 65 486 65 718 q 242 110 65 240 l 111 -21 l 186 -96 l 336 56 q 693 -14 486 -14 "},"Ù":{"ha":1393,"x_min":113,"x_max":1281,"o":"m 696 -14 q 1128 110 975 -14 q 1281 457 1281 235 l 1281 972 l 1000 972 l 1000 471 q 921 252 1000 328 q 697 176 842 176 q 473 252 553 176 q 393 471 393 328 l 393 972 l 113 972 l 113 454 q 265 110 115 232 q 696 -14 418 -14 m 611 1089 l 797 1089 l 621 1289 l 313 1289 l 611 1089 "},"Ú":{"ha":1393,"x_min":113,"x_max":1281,"o":"m 696 -14 q 1128 110 975 -14 q 1281 457 1281 235 l 1281 972 l 1000 972 l 1000 471 q 921 252 1000 328 q 697 176 842 176 q 473 252 553 176 q 393 471 393 328 l 393 972 l 113 972 l 113 454 q 265 110 115 232 q 696 -14 418 -14 m 593 1089 l 779 1089 l 1078 1289 l 769 1289 l 593 1089 "},"Û":{"ha":1393,"x_min":113,"x_max":1281,"o":"m 696 -14 q 1128 110 975 -14 q 1281 457 1281 235 l 1281 972 l 1000 972 l 1000 471 q 921 252 1000 328 q 697 176 842 176 q 473 252 553 176 q 393 471 393 328 l 393 972 l 113 972 l 113 454 q 265 110 115 232 q 696 -14 418 -14 m 579 1089 l 697 1192 l 815 1089 l 1057 1089 l 839 1289 l 553 1289 l 335 1089 l 579 1089 "},"Ü":{"ha":1393,"x_min":113,"x_max":1281,"o":"m 696 -14 q 1128 110 975 -14 q 1281 457 1281 235 l 1281 972 l 1000 972 l 1000 471 q 921 252 1000 328 q 697 176 842 176 q 473 252 553 176 q 393 471 393 328 l 393 972 l 113 972 l 113 454 q 265 110 115 232 q 696 -14 418 -14 m 515 1293 q 421 1265 456 1293 q 386 1188 386 1238 q 421 1110 386 1138 q 514 1082 456 1082 q 608 1110 574 1082 q 643 1188 643 1138 q 608 1265 643 1238 q 515 1293 574 1293 m 878 1082 q 971 1110 936 1082 q 1006 1188 1006 1138 q 971 1265 1006 1238 q 878 1293 936 1293 q 784 1265 819 1293 q 749 1188 749 1238 q 783 1110 749 1138 q 878 1082 818 1082 "},"Ý":{"ha":1364,"x_min":10,"x_max":1354,"o":"m 822 344 l 1354 972 l 1043 972 l 686 554 l 679 554 l 322 972 l 10 972 l 542 346 l 542 0 l 822 0 l 822 344 m 569 1089 l 756 1089 l 1054 1289 l 746 1289 l 569 1089 "},"Þ":{"ha":1332,"x_min":129,"x_max":1293,"o":"m 129 972 l 129 0 l 410 0 l 410 138 l 793 138 q 1293 486 1293 138 q 793 833 1293 833 l 410 833 l 410 972 l 129 972 m 792 642 q 955 602 897 642 q 1013 486 1013 563 q 955 370 1013 410 q 792 331 897 331 l 410 331 l 410 642 l 792 642 "},"ß":{"ha":1413,"x_min":113,"x_max":1363,"o":"m 392 596 q 480 817 392 736 q 718 899 568 899 q 861 867 794 899 q 926 789 926 835 l 564 579 l 564 476 q 946 468 817 510 q 1075 322 1075 426 q 994 201 1075 240 q 804 163 915 163 q 526 204 676 163 l 526 31 q 701 0 606 13 q 888 -14 808 -14 q 1261 88 1149 -14 q 1363 293 1363 176 q 1247 506 1363 424 q 868 579 1124 599 l 867 586 l 1203 765 q 1135 927 1203 861 q 959 1023 1068 993 q 710 1053 850 1053 q 279 933 447 1053 q 113 631 113 814 l 113 0 l 392 0 l 392 596 "},"à":{"ha":1133,"x_min":43,"x_max":1032,"o":"m 519 753 q 290 733 429 753 q 114 696 158 715 l 114 500 q 271 549 157 525 q 483 571 378 571 q 753 435 753 571 l 753 424 q 465 465 625 465 q 151 406 260 465 q 43 229 43 346 q 143 50 43 114 q 418 -14 243 -14 q 767 99 664 -14 l 774 99 l 794 0 l 1032 0 l 1032 456 q 519 753 1032 753 m 751 300 q 690 183 751 225 q 503 142 628 142 q 318 244 318 142 q 549 347 318 347 q 751 313 651 347 l 751 300 m 460 878 l 646 878 l 469 1078 l 161 1078 l 460 878 "},"á":{"ha":1133,"x_min":43,"x_max":1032,"o":"m 519 753 q 290 733 429 753 q 114 696 158 715 l 114 500 q 271 549 157 525 q 483 571 378 571 q 753 435 753 571 l 753 424 q 465 465 625 465 q 151 406 260 465 q 43 229 43 346 q 143 50 43 114 q 418 -14 243 -14 q 767 99 664 -14 l 774 99 l 794 0 l 1032 0 l 1032 456 q 519 753 1032 753 m 751 300 q 690 183 751 225 q 503 142 628 142 q 318 244 318 142 q 549 347 318 347 q 751 313 651 347 l 751 300 m 426 878 l 613 878 l 911 1078 l 603 1078 l 426 878 "},"â":{"ha":1133,"x_min":43,"x_max":1032,"o":"m 519 753 q 290 733 429 753 q 114 696 158 715 l 114 500 q 271 549 157 525 q 483 571 378 571 q 753 435 753 571 l 753 424 q 465 465 625 465 q 151 406 260 465 q 43 229 43 346 q 143 50 43 114 q 418 -14 243 -14 q 767 99 664 -14 l 774 99 l 794 0 l 1032 0 l 1032 456 q 519 753 1032 753 m 450 878 l 568 981 l 686 878 l 928 878 l 710 1078 l 424 1078 l 206 878 l 450 878 m 751 300 q 690 183 751 225 q 503 142 628 142 q 318 244 318 142 q 549 347 318 347 q 751 313 651 347 l 751 300 "},"ã":{"ha":1133,"x_min":43,"x_max":1032,"o":"m 519 753 q 290 733 429 753 q 114 696 158 715 l 114 500 q 271 549 157 525 q 483 571 378 571 q 753 435 753 571 l 753 424 q 465 465 625 465 q 151 406 260 465 q 43 229 43 346 q 143 50 43 114 q 418 -14 243 -14 q 767 99 664 -14 l 774 99 l 794 0 l 1032 0 l 1032 456 q 519 753 1032 753 m 321 906 q 383 944 353 932 q 440 956 392 950 q 458 953 446 956 q 485 949 471 951 q 501 946 499 946 l 536 936 l 572 926 q 677 903 644 907 q 769 907 710 899 q 865 953 822 917 l 808 1122 q 689 1072 747 1072 q 656 1077 682 1072 q 628 1082 629 1082 q 557 1101 608 1085 q 453 1125 503 1117 q 361 1121 414 1131 q 267 1075 311 1111 l 321 906 m 751 300 q 690 183 751 225 q 503 142 628 142 q 318 244 318 142 q 549 347 318 347 q 751 313 651 347 l 751 300 "},"ä":{"ha":1133,"x_min":43,"x_max":1032,"o":"m 519 753 q 290 733 429 753 q 114 696 158 715 l 114 500 q 271 549 157 525 q 483 571 378 571 q 753 435 753 571 l 753 424 q 465 465 625 465 q 151 406 260 465 q 43 229 43 346 q 143 50 43 114 q 418 -14 243 -14 q 767 99 664 -14 l 774 99 l 794 0 l 1032 0 l 1032 456 q 519 753 1032 753 m 751 300 q 690 183 751 225 q 503 142 628 142 q 318 244 318 142 q 549 347 318 347 q 751 313 651 347 l 751 300 m 386 1082 q 292 1054 326 1082 q 257 976 257 1026 q 292 899 257 926 q 385 871 326 871 q 479 899 444 871 q 514 976 514 926 q 479 1054 514 1026 q 386 1082 444 1082 m 749 871 q 842 899 807 871 q 876 976 876 926 q 842 1054 876 1026 q 749 1082 807 1082 q 655 1054 690 1082 q 619 976 619 1026 q 654 899 619 926 q 749 871 689 871 "},"å":{"ha":1133,"x_min":43,"x_max":1032,"o":"m 519 753 q 290 733 429 753 q 114 696 158 715 l 114 500 q 271 549 157 525 q 483 571 378 571 q 753 435 753 571 l 753 424 q 465 465 625 465 q 151 406 260 465 q 43 229 43 346 q 143 50 43 114 q 418 -14 243 -14 q 767 99 664 -14 l 774 99 l 794 0 l 1032 0 l 1032 456 q 519 753 1032 753 m 567 1204 q 404 1159 465 1204 q 343 1036 343 1114 q 404 913 343 958 q 567 868 465 868 q 730 913 669 868 q 790 1036 790 958 q 730 1159 790 1114 q 567 1204 669 1204 m 751 300 q 690 183 751 225 q 503 142 628 142 q 318 244 318 142 q 549 347 318 347 q 751 313 651 347 l 751 300 m 627 1088 q 649 1035 649 1068 q 627 982 649 1001 q 568 963 606 963 q 508 982 531 963 q 486 1035 486 1001 q 508 1088 486 1069 q 568 1107 531 1107 q 616 1097 606 1107 q 627 1088 627 1088 "},"æ":{"ha":1849,"x_min":43,"x_max":1799,"o":"m 1799 376 q 1671 647 1799 543 q 1318 753 1544 753 q 1097 710 1200 753 q 940 594 993 665 l 933 594 q 519 753 839 753 q 290 733 429 753 q 114 694 161 715 l 114 507 q 272 556 160 532 q 483 578 379 578 q 685 535 617 578 q 754 419 754 493 l 754 403 q 450 456 617 456 q 151 395 258 456 q 43 226 43 335 q 160 50 43 114 q 467 -14 278 -14 q 722 33 606 -14 q 896 169 842 82 l 903 169 q 1363 -14 1024 -14 q 1744 38 1585 -14 l 1744 214 q 1581 172 1685 192 q 1382 156 1478 156 q 1157 193 1235 156 q 1060 314 1079 231 l 1799 314 l 1799 376 m 757 296 q 688 172 757 219 q 501 125 618 125 q 366 156 419 125 q 313 239 313 186 q 376 322 313 294 q 549 349 439 349 q 757 308 657 349 l 757 296 m 1083 418 q 1159 537 1094 492 q 1315 582 1224 582 q 1476 539 1417 582 q 1542 418 1536 496 l 1083 418 "},"ç":{"ha":1046,"x_min":58,"x_max":1007,"o":"m 1007 240 q 863 188 963 210 q 660 165 768 165 q 421 218 506 165 q 336 369 336 271 q 420 520 336 468 q 658 572 504 572 q 838 551 744 572 q 983 500 933 531 l 983 706 q 822 739 931 726 q 626 753 719 753 q 203 653 347 753 q 58 369 58 553 q 172 111 58 210 q 504 -8 286 13 l 417 -256 l 569 -256 l 713 -11 q 1007 35 924 4 l 1007 240 "},"è":{"ha":1144,"x_min":58,"x_max":1094,"o":"m 1094 379 q 956 653 1092 553 q 575 753 818 753 q 196 647 335 753 q 58 369 58 543 q 201 86 58 186 q 601 -14 343 -14 q 838 0 714 -14 q 1040 36 974 15 l 1040 221 q 875 179 981 199 q 676 161 775 161 q 353 304 383 161 l 1094 304 l 1094 379 m 351 428 q 430 540 369 499 q 575 582 490 582 q 738 542 679 582 q 803 428 797 501 l 351 428 m 478 878 l 664 878 l 488 1078 l 179 1078 l 478 878 "},"é":{"ha":1144,"x_min":58,"x_max":1094,"o":"m 1094 379 q 956 653 1092 553 q 575 753 818 753 q 196 647 335 753 q 58 369 58 543 q 201 86 58 186 q 601 -14 343 -14 q 838 0 714 -14 q 1040 36 974 15 l 1040 221 q 875 179 981 199 q 676 161 775 161 q 353 304 383 161 l 1094 304 l 1094 379 m 351 428 q 430 540 369 499 q 575 582 490 582 q 738 542 679 582 q 803 428 797 501 l 351 428 m 458 878 l 644 878 l 943 1078 l 635 1078 l 458 878 "},"ê":{"ha":1144,"x_min":58,"x_max":1094,"o":"m 1094 379 q 956 653 1092 553 q 575 753 818 753 q 196 647 335 753 q 58 369 58 543 q 201 86 58 186 q 601 -14 343 -14 q 838 0 714 -14 q 1040 36 974 15 l 1040 221 q 875 179 981 199 q 676 161 775 161 q 353 304 383 161 l 1094 304 l 1094 379 m 456 878 l 574 981 l 692 878 l 933 878 l 715 1078 l 429 1078 l 211 878 l 456 878 m 351 428 q 430 540 369 499 q 575 582 490 582 q 738 542 679 582 q 803 428 797 501 l 351 428 "},"ë":{"ha":1144,"x_min":58,"x_max":1094,"o":"m 1094 379 q 956 653 1092 553 q 575 753 818 753 q 196 647 335 753 q 58 369 58 543 q 201 86 58 186 q 601 -14 343 -14 q 838 0 714 -14 q 1040 36 974 15 l 1040 221 q 875 179 981 199 q 676 161 775 161 q 353 304 383 161 l 1094 304 l 1094 379 m 351 428 q 430 540 369 499 q 575 582 490 582 q 738 542 679 582 q 803 428 797 501 l 351 428 m 392 1082 q 297 1054 332 1082 q 263 976 263 1026 q 297 899 263 926 q 390 871 332 871 q 485 899 450 871 q 519 976 519 926 q 485 1054 519 1026 q 392 1082 450 1082 m 754 871 q 847 899 813 871 q 882 976 882 926 q 847 1054 882 1026 q 754 1082 813 1082 q 660 1054 694 1082 q 625 976 625 1026 q 660 899 625 926 q 754 871 694 871 "},"ì":{"ha":518,"x_min":-142,"x_max":386,"o":"m 111 0 l 386 0 l 386 739 l 111 739 l 111 0 m 157 878 l 343 878 l 167 1078 l -142 1078 l 157 878 "},"í":{"ha":518,"x_min":111,"x_max":632,"o":"m 111 0 l 386 0 l 386 739 l 111 739 l 111 0 m 147 878 l 333 878 l 632 1078 l 324 1078 l 147 878 "},"î":{"ha":518,"x_min":-101,"x_max":621,"o":"m 111 0 l 386 0 l 386 739 l 111 739 l 111 0 m 143 878 l 261 981 l 379 878 l 621 878 l 403 1078 l 117 1078 l -101 878 l 143 878 "},"ï":{"ha":518,"x_min":-50,"x_max":569,"o":"m 111 0 l 386 0 l 386 739 l 111 739 l 111 0 m 79 1082 q -15 1054 19 1082 q -50 976 -50 1026 q -15 899 -50 926 q 78 871 19 871 q 172 899 138 871 q 207 976 207 926 q 172 1054 207 1026 q 79 1082 138 1082 m 442 871 q 535 899 500 871 q 569 976 569 926 q 535 1054 569 1026 q 442 1082 500 1082 q 348 1054 383 1082 q 313 976 313 1026 q 347 899 313 926 q 442 871 382 871 "},"ð":{"ha":1136,"x_min":42,"x_max":1069,"o":"m 1069 493 q 988 757 1069 635 q 760 956 906 879 l 760 963 l 900 1063 l 857 1122 l 676 993 q 208 1054 468 1072 l 208 861 q 467 843 339 871 q 468 836 467 838 l 331 742 l 374 682 l 565 817 q 796 585 756 739 l 790 581 q 489 665 689 665 q 161 581 281 665 q 42 347 42 497 q 114 144 42 228 q 294 23 186 60 q 533 -14 403 -14 q 922 118 778 -17 q 1069 493 1067 253 m 542 508 q 725 468 642 508 q 807 357 807 428 q 735 238 807 289 q 544 188 664 188 q 355 234 425 188 q 285 356 285 281 q 355 469 285 429 q 542 508 425 508 "},"ñ":{"ha":1278,"x_min":108,"x_max":1176,"o":"m 744 753 q 379 624 497 753 l 372 624 l 356 739 l 108 739 l 108 0 l 383 0 l 383 376 q 452 525 383 472 q 640 578 521 578 q 831 524 761 578 q 900 375 900 471 l 900 0 l 1176 0 l 1176 375 q 1063 652 1176 551 q 744 753 949 753 m 393 906 q 456 944 425 932 q 513 956 464 950 q 531 953 518 956 q 557 949 543 951 q 574 946 571 946 l 608 936 l 644 926 q 749 903 717 907 q 842 907 782 899 q 938 953 894 917 l 881 1122 q 761 1072 819 1072 q 728 1077 754 1072 q 700 1082 701 1082 q 629 1101 681 1085 q 525 1125 575 1117 q 433 1121 486 1131 q 339 1075 383 1111 l 393 906 "},"ò":{"ha":1163,"x_min":58,"x_max":1104,"o":"m 760 523 q 828 369 828 468 q 760 216 828 271 q 581 161 692 161 q 402 216 469 161 q 335 369 335 271 q 402 523 335 468 q 581 578 469 578 q 726 550 692 578 q 760 523 760 523 m 1104 369 q 965 650 1104 549 q 582 753 825 753 q 197 650 338 753 q 58 369 58 549 q 197 89 58 190 q 582 -14 338 -14 q 965 88 826 -14 q 1104 369 1104 189 m 500 878 l 686 878 l 510 1078 l 201 1078 l 500 878 "},"ó":{"ha":1163,"x_min":58,"x_max":1104,"o":"m 760 523 q 828 369 828 468 q 760 216 828 271 q 581 161 692 161 q 402 216 469 161 q 335 369 335 271 q 402 523 335 468 q 581 578 469 578 q 726 550 692 578 q 760 523 760 523 m 1104 369 q 965 650 1104 549 q 582 753 825 753 q 197 650 338 753 q 58 369 58 549 q 197 89 58 190 q 582 -14 338 -14 q 965 88 826 -14 q 1104 369 1104 189 m 650 1078 l 474 878 l 660 878 l 958 1078 l 650 1078 "},"ô":{"ha":1163,"x_min":58,"x_max":1104,"o":"m 760 523 q 828 369 828 468 q 760 216 828 271 q 581 161 692 161 q 402 216 469 161 q 335 369 335 271 q 402 523 335 468 q 581 578 469 578 q 726 550 692 578 q 760 523 760 523 m 1104 369 q 965 650 1104 549 q 582 753 825 753 q 197 650 338 753 q 58 369 58 549 q 197 89 58 190 q 582 -14 338 -14 q 965 88 826 -14 q 1104 369 1104 189 m 464 878 l 582 981 l 700 878 l 942 878 l 724 1078 l 438 1078 l 219 878 l 464 878 "},"õ":{"ha":1163,"x_min":58,"x_max":1104,"o":"m 760 523 q 828 369 828 468 q 760 216 828 271 q 581 161 692 161 q 402 216 469 161 q 335 369 335 271 q 402 523 335 468 q 581 578 469 578 q 726 550 692 578 q 760 523 760 523 m 1104 369 q 965 650 1104 549 q 582 753 825 753 q 197 650 338 753 q 58 369 58 549 q 197 89 58 190 q 582 -14 338 -14 q 965 88 826 -14 q 1104 369 1104 189 m 336 906 q 399 944 368 932 q 456 956 407 950 q 474 953 461 956 q 500 949 486 951 q 517 946 514 946 l 551 936 l 588 926 q 692 903 660 907 q 785 907 725 899 q 881 953 836 917 l 824 1122 q 751 1081 781 1086 q 729 1075 744 1079 q 711 1072 714 1071 q 685 1074 708 1072 q 653 1079 661 1079 l 613 1090 l 572 1101 q 468 1125 518 1117 q 376 1121 428 1131 q 282 1075 326 1111 l 336 906 "},"ö":{"ha":1163,"x_min":58,"x_max":1104,"o":"m 760 523 q 828 369 828 468 q 760 216 828 271 q 581 161 692 161 q 402 216 469 161 q 335 369 335 271 q 402 523 335 468 q 581 578 469 578 q 726 550 692 578 q 760 523 760 523 m 1104 369 q 965 650 1104 549 q 582 753 825 753 q 197 650 338 753 q 58 369 58 549 q 197 89 58 190 q 582 -14 338 -14 q 965 88 826 -14 q 1104 369 1104 189 m 400 1082 q 306 1054 340 1082 q 271 976 271 1026 q 306 899 271 926 q 399 871 340 871 q 493 899 458 871 q 528 976 528 926 q 493 1054 528 1026 q 400 1082 458 1082 m 763 871 q 856 899 821 871 q 890 976 890 926 q 856 1054 890 1026 q 763 1082 821 1082 q 669 1054 704 1082 q 633 976 633 1026 q 668 899 633 926 q 763 871 703 871 "},"÷":{"ha":1004,"x_min":46,"x_max":958,"o":"m 958 401 l 958 571 l 46 571 l 46 401 l 958 401 m 503 307 q 382 269 428 307 q 336 169 336 232 q 381 70 336 107 q 503 32 426 33 q 623 69 578 32 q 668 169 668 107 q 623 269 668 232 q 503 307 578 306 m 503 940 q 382 903 428 940 q 336 803 336 865 q 381 703 336 740 q 503 665 426 667 q 623 703 578 665 q 668 803 668 740 q 623 902 668 865 q 503 940 578 939 "},"ø":{"ha":1163,"x_min":58,"x_max":1104,"o":"m 115 -29 l 183 -97 l 314 32 q 582 -14 433 -14 q 965 89 825 -14 q 1104 369 1104 190 q 943 663 1104 560 l 1047 765 l 978 833 l 850 706 q 582 753 731 753 q 197 650 338 753 q 58 369 58 549 q 219 75 58 178 l 115 -29 m 581 576 q 697 553 635 576 l 383 239 q 335 369 335 292 q 402 522 335 468 q 581 576 469 576 m 779 497 q 828 369 828 444 q 760 217 828 272 q 581 163 692 163 q 467 185 517 163 l 779 497 "},"ù":{"ha":1278,"x_min":101,"x_max":1169,"o":"m 533 -14 q 899 115 781 -14 l 906 115 l 922 0 l 1169 0 l 1169 739 l 894 739 l 894 363 q 826 214 894 267 q 638 161 757 161 q 447 215 517 161 q 378 364 378 268 l 378 739 l 101 739 l 101 364 q 215 87 101 188 q 533 -14 329 -14 m 556 878 l 742 878 l 565 1078 l 257 1078 l 556 878 "},"ú":{"ha":1278,"x_min":101,"x_max":1169,"o":"m 533 -14 q 899 115 781 -14 l 906 115 l 922 0 l 1169 0 l 1169 739 l 894 739 l 894 363 q 826 214 894 267 q 638 161 757 161 q 447 215 517 161 q 378 364 378 268 l 378 739 l 101 739 l 101 364 q 215 87 101 188 q 533 -14 329 -14 m 524 878 l 710 878 l 1008 1078 l 700 1078 l 524 878 "},"û":{"ha":1278,"x_min":101,"x_max":1169,"o":"m 533 -14 q 899 115 781 -14 l 906 115 l 922 0 l 1169 0 l 1169 739 l 894 739 l 894 363 q 826 214 894 267 q 638 161 757 161 q 447 215 517 161 q 378 364 378 268 l 378 739 l 101 739 l 101 364 q 215 87 101 188 q 533 -14 329 -14 m 522 878 l 640 981 l 758 878 l 1000 878 l 782 1078 l 496 1078 l 278 878 l 522 878 "},"ü":{"ha":1278,"x_min":101,"x_max":1169,"o":"m 533 -14 q 899 115 781 -14 l 906 115 l 922 0 l 1169 0 l 1169 739 l 894 739 l 894 363 q 826 214 894 267 q 638 161 757 161 q 447 215 517 161 q 378 364 378 268 l 378 739 l 101 739 l 101 364 q 215 87 101 188 q 533 -14 329 -14 m 458 1082 q 364 1054 399 1082 q 329 976 329 1026 q 364 899 329 926 q 457 871 399 871 q 551 899 517 871 q 586 976 586 926 q 551 1054 586 1026 q 458 1082 517 1082 m 821 871 q 914 899 879 871 q 949 976 949 926 q 914 1054 949 1026 q 821 1082 879 1082 q 726 1054 761 1082 q 692 976 692 1026 q 726 899 692 926 q 821 871 761 871 "},"ý":{"ha":1171,"x_min":14,"x_max":1157,"o":"m 608 281 l 601 281 l 322 739 l 14 739 l 479 32 l 318 -279 l 596 -279 l 1157 739 l 850 739 l 608 281 m 517 878 l 703 878 l 1001 1078 l 693 1078 l 517 878 "},"þ":{"ha":1239,"x_min":108,"x_max":1181,"o":"m 733 -14 q 1063 90 944 -14 q 1181 371 1181 196 q 1063 650 1181 549 q 733 753 943 753 q 394 621 511 753 l 382 621 l 382 1014 l 108 1014 l 108 -279 l 383 -279 l 383 108 l 390 108 q 733 -14 508 -14 m 644 578 q 834 522 764 578 q 904 369 904 467 q 834 217 904 272 q 644 161 764 161 q 458 218 529 161 q 386 371 386 275 q 458 522 386 465 q 644 578 529 578 "},"ÿ":{"ha":1171,"x_min":14,"x_max":1157,"o":"m 608 281 l 601 281 l 322 739 l 14 739 l 479 32 l 318 -279 l 596 -279 l 1157 739 l 850 739 l 608 281 m 424 1082 q 329 1054 364 1082 q 294 976 294 1026 q 329 899 294 926 q 422 871 364 871 q 517 899 482 871 q 551 976 551 926 q 517 1054 551 1026 q 424 1082 482 1082 m 786 871 q 879 899 844 871 q 914 976 914 926 q 879 1054 914 1026 q 786 1082 844 1082 q 692 1054 728 1082 q 657 976 657 1026 q 692 899 657 926 q 786 871 726 871 "},"Ā":{"ha":1353,"x_min":7,"x_max":1346,"o":"m 478 972 l 7 0 l 308 0 l 393 178 l 961 178 l 1044 0 l 1346 0 l 875 972 l 478 972 m 353 1089 l 1000 1089 l 1000 1244 l 353 1244 l 353 1089 m 672 776 l 681 776 l 881 358 l 472 358 l 672 776 "},"ā":{"ha":1133,"x_min":43,"x_max":1032,"o":"m 519 753 q 290 733 429 753 q 114 696 158 715 l 114 500 q 271 549 157 525 q 483 571 378 571 q 753 435 753 571 l 753 424 q 465 465 625 465 q 151 406 260 465 q 43 229 43 346 q 143 50 43 114 q 418 -14 243 -14 q 767 99 664 -14 l 774 99 l 794 0 l 1032 0 l 1032 456 q 519 753 1032 753 m 243 878 l 890 878 l 890 1033 l 243 1033 l 243 878 m 751 300 q 690 183 751 225 q 503 142 628 142 q 318 244 318 142 q 549 347 318 347 q 751 313 651 347 l 751 300 "},"Ă":{"ha":1353,"x_min":7,"x_max":1346,"o":"m 478 972 l 7 0 l 308 0 l 393 178 l 961 178 l 1044 0 l 1346 0 l 875 972 l 478 972 m 672 776 l 681 776 l 881 358 l 472 358 l 672 776 m 800 1292 q 769 1233 800 1264 q 675 1203 739 1203 q 582 1233 613 1203 q 550 1292 553 1263 l 396 1292 q 478 1144 408 1210 q 675 1081 546 1081 q 872 1144 804 1081 q 956 1292 943 1208 l 800 1292 "},"ă":{"ha":1133,"x_min":43,"x_max":1032,"o":"m 519 753 q 290 733 429 753 q 114 696 158 715 l 114 500 q 271 549 157 525 q 483 571 378 571 q 753 435 753 571 l 753 424 q 465 465 625 465 q 151 406 260 465 q 43 229 43 346 q 143 50 43 114 q 418 -14 243 -14 q 767 99 664 -14 l 774 99 l 794 0 l 1032 0 l 1032 456 q 519 753 1032 753 m 690 1081 q 660 1022 690 1053 q 565 992 629 992 q 472 1022 503 992 q 440 1081 443 1051 l 286 1081 q 368 933 299 999 q 565 869 436 869 q 763 933 694 869 q 846 1081 833 997 l 690 1081 m 751 300 q 690 183 751 225 q 503 142 628 142 q 318 244 318 142 q 549 347 318 347 q 751 313 651 347 l 751 300 "},"Ą":{"ha":1353,"x_min":7,"x_max":1346,"o":"m 478 972 l 7 0 l 308 0 l 393 178 l 961 178 l 1044 0 l 1104 0 q 994 -75 1033 -25 q 954 -186 954 -125 q 1015 -309 954 -267 q 1174 -351 1076 -351 q 1344 -312 1283 -351 l 1346 -217 l 1333 -225 q 1243 -250 1293 -250 q 1167 -228 1194 -250 q 1139 -168 1139 -207 q 1184 -73 1139 -119 q 1294 0 1229 -26 l 1346 0 l 875 972 l 478 972 m 672 776 l 681 776 l 881 358 l 472 358 l 672 776 "},"ą":{"ha":1133,"x_min":43,"x_max":1063,"o":"m 519 753 q 290 733 429 753 q 114 696 158 715 l 114 500 q 271 549 157 525 q 483 571 378 571 q 753 435 753 571 l 753 424 q 465 465 625 465 q 151 406 260 465 q 43 229 43 346 q 143 50 43 114 q 418 -14 243 -14 q 767 99 664 -14 l 774 99 l 794 0 l 821 0 q 710 -75 750 -25 q 671 -186 671 -125 q 732 -309 671 -267 q 890 -351 793 -351 q 1061 -312 1000 -351 l 1063 -217 l 1050 -225 q 960 -250 1010 -250 q 883 -228 911 -250 q 856 -168 856 -207 q 901 -73 856 -119 q 1011 0 946 -26 l 1032 0 l 1032 456 q 519 753 1032 753 m 751 300 q 690 183 751 225 q 503 142 628 142 q 318 244 318 142 q 549 347 318 347 q 751 313 651 347 l 751 300 "},"Ć":{"ha":1276,"x_min":65,"x_max":1235,"o":"m 1233 304 q 1054 213 1181 247 q 801 178 929 178 q 471 257 594 178 q 347 486 347 336 q 471 715 347 638 q 801 794 594 794 q 1042 760 921 794 q 1213 676 1164 726 l 1213 911 q 1014 965 1136 946 q 775 986 894 986 q 247 855 428 986 q 65 486 65 724 q 247 117 65 249 q 775 -14 428 -14 q 1026 8 901 -14 q 1235 67 1158 31 l 1233 304 m 563 1089 l 749 1089 l 1047 1289 l 739 1289 l 563 1089 "},"ć":{"ha":1046,"x_min":58,"x_max":1007,"o":"m 1007 240 q 863 188 963 210 q 660 165 768 165 q 421 218 506 165 q 336 369 336 271 q 420 520 336 468 q 658 572 504 572 q 838 551 744 572 q 983 500 933 531 l 983 706 q 822 739 931 726 q 626 753 719 753 q 203 653 347 753 q 58 369 58 553 q 204 87 58 188 q 628 -14 350 -14 q 838 0 728 -14 q 1007 35 953 15 l 1007 240 m 419 878 l 606 878 l 904 1078 l 596 1078 l 419 878 "},"Ĉ":{"ha":1276,"x_min":65,"x_max":1235,"o":"m 1233 304 q 1054 213 1181 247 q 801 178 929 178 q 471 257 594 178 q 347 486 347 336 q 471 715 347 638 q 801 794 594 794 q 1042 760 921 794 q 1213 676 1164 726 l 1213 911 q 1014 965 1136 946 q 775 986 894 986 q 247 855 428 986 q 65 486 65 724 q 247 117 65 249 q 775 -14 428 -14 q 1026 8 901 -14 q 1235 67 1158 31 l 1233 304 m 521 1089 l 639 1192 l 757 1089 l 999 1089 l 781 1289 l 494 1289 l 276 1089 l 521 1089 "},"ĉ":{"ha":1046,"x_min":58,"x_max":1007,"o":"m 1007 240 q 863 188 963 210 q 660 165 768 165 q 421 218 506 165 q 336 369 336 271 q 420 520 336 468 q 658 572 504 572 q 838 551 744 572 q 983 500 933 531 l 983 706 q 822 739 931 726 q 626 753 719 753 q 203 653 347 753 q 58 369 58 553 q 204 87 58 188 q 628 -14 350 -14 q 838 0 728 -14 q 1007 35 953 15 l 1007 240 m 406 878 l 524 981 l 642 878 l 883 878 l 665 1078 l 379 1078 l 161 878 l 406 878 "},"Ċ":{"ha":1276,"x_min":65,"x_max":1235,"o":"m 1233 304 q 1054 213 1181 247 q 801 178 929 178 q 471 257 594 178 q 347 486 347 336 q 471 715 347 638 q 801 794 594 794 q 1042 760 921 794 q 1213 676 1164 726 l 1213 911 q 1014 965 1136 946 q 775 986 894 986 q 247 855 428 986 q 65 486 65 724 q 247 117 65 249 q 775 -14 428 -14 q 1026 8 901 -14 q 1235 67 1158 31 l 1233 304 m 638 1081 q 732 1108 697 1081 q 767 1186 767 1136 q 732 1264 767 1236 q 639 1292 697 1292 q 544 1264 579 1292 q 510 1186 510 1236 q 544 1108 510 1136 q 638 1081 579 1081 "},"ċ":{"ha":1046,"x_min":58,"x_max":1007,"o":"m 1007 240 q 863 188 963 210 q 660 165 768 165 q 421 218 506 165 q 336 369 336 271 q 420 520 336 468 q 658 572 504 572 q 838 551 744 572 q 983 500 933 531 l 983 706 q 822 739 931 726 q 626 753 719 753 q 203 653 347 753 q 58 369 58 553 q 204 87 58 188 q 628 -14 350 -14 q 838 0 728 -14 q 1007 35 953 15 l 1007 240 m 522 869 q 617 897 582 869 q 651 975 651 925 q 617 1053 651 1025 q 524 1081 582 1081 q 429 1053 464 1081 q 394 975 394 1025 q 429 897 394 925 q 522 869 464 869 "},"Č":{"ha":1276,"x_min":65,"x_max":1235,"o":"m 1233 304 q 1054 213 1181 247 q 801 178 929 178 q 471 257 594 178 q 347 486 347 336 q 471 715 347 638 q 801 794 594 794 q 1042 760 921 794 q 1213 676 1164 726 l 1213 911 q 1014 965 1136 946 q 775 986 894 986 q 247 855 428 986 q 65 486 65 724 q 247 117 65 249 q 775 -14 428 -14 q 1026 8 901 -14 q 1235 67 1158 31 l 1233 304 m 781 1089 l 999 1289 l 757 1289 l 639 1186 l 521 1289 l 276 1289 l 494 1089 l 781 1089 "},"č":{"ha":1046,"x_min":58,"x_max":1007,"o":"m 1007 240 q 863 188 963 210 q 660 165 768 165 q 421 218 506 165 q 336 369 336 271 q 420 520 336 468 q 658 572 504 572 q 838 551 744 572 q 983 500 933 531 l 983 706 q 822 739 931 726 q 626 753 719 753 q 203 653 347 753 q 58 369 58 553 q 204 87 58 188 q 628 -14 350 -14 q 838 0 728 -14 q 1007 35 953 15 l 1007 240 m 665 878 l 883 1078 l 642 1078 l 524 975 l 406 1078 l 161 1078 l 379 878 l 665 878 "},"Ď":{"ha":1414,"x_min":129,"x_max":1349,"o":"m 129 0 l 735 0 q 1190 129 1032 0 q 1349 486 1349 258 q 1190 843 1349 714 q 735 972 1032 972 l 129 972 l 129 0 m 721 781 q 975 705 885 781 q 1065 486 1065 629 q 975 267 1065 343 q 721 192 885 192 l 410 192 l 410 781 l 721 781 m 850 1089 l 1068 1289 l 826 1289 l 708 1186 l 590 1289 l 346 1289 l 564 1089 l 850 1089 "},"ď":{"ha":1697,"x_min":58,"x_max":1651,"o":"m 506 753 q 176 650 296 753 q 58 372 58 549 q 176 90 58 196 q 506 -14 294 -14 q 858 126 735 -14 l 865 126 l 883 0 l 1131 0 l 1131 1014 l 856 1014 l 856 629 l 849 629 q 506 753 732 753 m 594 161 q 406 217 476 161 q 335 372 335 274 q 405 523 335 468 q 594 578 475 578 q 781 522 710 578 q 853 372 853 467 q 781 219 853 276 q 594 161 710 161 m 1488 986 q 1369 949 1414 986 q 1324 846 1324 911 q 1366 746 1324 785 q 1468 707 1408 707 l 1463 694 q 1435 658 1457 679 q 1383 621 1414 636 l 1460 528 q 1590 640 1529 557 q 1651 824 1649 722 q 1607 942 1651 899 q 1488 986 1563 986 "},"Đ":{"ha":1556,"x_min":-1,"x_max":1490,"o":"m 875 0 q 1331 129 1172 0 q 1490 486 1490 258 q 1331 843 1490 714 q 875 972 1172 972 l 269 972 l 269 532 l -1 532 l -1 428 l 269 428 l 269 0 l 875 0 m 858 428 l 858 532 l 551 532 l 551 781 l 863 781 q 1116 705 1026 781 q 1206 486 1206 629 q 1116 267 1206 343 q 863 192 1026 192 l 551 192 l 551 428 l 858 428 "},"đ":{"ha":1428,"x_min":58,"x_max":1417,"o":"m 594 161 q 405 217 475 161 q 335 371 335 272 q 406 522 335 467 q 594 578 476 578 q 783 522 713 578 q 853 371 853 467 q 782 218 853 275 q 594 161 711 161 m 1131 910 l 1131 1014 l 856 1014 l 856 910 l 557 910 l 557 804 l 856 804 l 856 608 l 849 608 q 490 753 738 753 q 172 649 288 753 q 58 371 58 547 q 172 90 58 194 q 490 -14 286 -14 q 857 150 739 -14 l 863 150 l 883 0 l 1131 0 l 1131 804 l 1417 804 l 1417 910 l 1131 910 "},"Ē":{"ha":1331,"x_min":129,"x_max":1275,"o":"m 410 193 l 410 406 l 1153 406 l 1153 575 l 410 575 l 410 779 l 1253 779 l 1253 972 l 129 972 l 129 0 l 1275 0 l 1275 193 l 410 193 m 342 1089 l 989 1089 l 989 1244 l 342 1244 l 342 1089 "},"ē":{"ha":1144,"x_min":58,"x_max":1094,"o":"m 1094 379 q 956 653 1092 553 q 575 753 818 753 q 196 647 335 753 q 58 369 58 543 q 201 86 58 186 q 601 -14 343 -14 q 838 0 714 -14 q 1040 36 974 15 l 1040 221 q 875 179 981 199 q 676 161 775 161 q 353 304 383 161 l 1094 304 l 1094 379 m 249 878 l 896 878 l 896 1033 l 249 1033 l 249 878 m 351 428 q 430 540 369 499 q 575 582 490 582 q 738 542 679 582 q 803 428 797 501 l 351 428 "},"Ĕ":{"ha":1331,"x_min":129,"x_max":1275,"o":"m 410 193 l 410 406 l 1153 406 l 1153 575 l 410 575 l 410 779 l 1253 779 l 1253 972 l 129 972 l 129 0 l 1275 0 l 1275 193 l 410 193 m 789 1292 q 758 1233 789 1264 q 664 1203 728 1203 q 571 1233 601 1203 q 539 1292 542 1263 l 385 1292 q 467 1144 397 1210 q 664 1081 535 1081 q 861 1144 793 1081 q 944 1292 932 1208 l 789 1292 "},"ĕ":{"ha":1144,"x_min":58,"x_max":1094,"o":"m 1094 379 q 956 653 1092 553 q 575 753 818 753 q 196 647 335 753 q 58 369 58 543 q 201 86 58 186 q 601 -14 343 -14 q 838 0 714 -14 q 1040 36 974 15 l 1040 221 q 875 179 981 199 q 676 161 775 161 q 353 304 383 161 l 1094 304 l 1094 379 m 696 1081 q 665 1022 696 1053 q 571 992 635 992 q 478 1022 508 992 q 446 1081 449 1051 l 292 1081 q 374 933 304 999 q 571 869 442 869 q 768 933 700 869 q 851 1081 839 997 l 696 1081 m 351 428 q 430 540 369 499 q 575 582 490 582 q 738 542 679 582 q 803 428 797 501 l 351 428 "},"Ė":{"ha":1331,"x_min":129,"x_max":1275,"o":"m 410 193 l 410 406 l 1153 406 l 1153 575 l 410 575 l 410 779 l 1253 779 l 1253 972 l 129 972 l 129 0 l 1275 0 l 1275 193 l 410 193 m 664 1081 q 758 1108 724 1081 q 793 1186 793 1136 q 758 1264 793 1236 q 665 1292 724 1292 q 571 1264 606 1292 q 536 1186 536 1236 q 571 1108 536 1136 q 664 1081 606 1081 "},"ė":{"ha":1144,"x_min":58,"x_max":1094,"o":"m 1094 379 q 956 653 1092 553 q 575 753 818 753 q 196 647 335 753 q 58 369 58 543 q 201 86 58 186 q 601 -14 343 -14 q 838 0 714 -14 q 1040 36 974 15 l 1040 221 q 875 179 981 199 q 676 161 775 161 q 353 304 383 161 l 1094 304 l 1094 379 m 351 428 q 430 540 369 499 q 575 582 490 582 q 738 542 679 582 q 803 428 797 501 l 351 428 m 571 869 q 665 897 631 869 q 700 975 700 925 q 665 1053 700 1025 q 572 1081 631 1081 q 478 1053 513 1081 q 443 975 443 1025 q 478 897 443 925 q 571 869 513 869 "},"Ę":{"ha":1331,"x_min":129,"x_max":1275,"o":"m 1261 -225 q 1172 -250 1224 -250 q 1096 -228 1124 -250 q 1068 -168 1068 -207 q 1113 -73 1068 -119 q 1224 0 1158 -26 l 1275 0 l 1275 193 l 410 193 l 410 406 l 1153 406 l 1153 575 l 410 575 l 410 779 l 1253 779 l 1253 972 l 129 972 l 129 0 l 1033 0 q 923 -75 963 -25 q 883 -186 883 -125 q 944 -309 883 -267 q 1103 -351 1006 -351 q 1274 -312 1213 -351 l 1275 -217 l 1261 -225 "},"ę":{"ha":1144,"x_min":58,"x_max":1094,"o":"m 756 -225 q 665 -250 715 -250 q 589 -228 617 -250 q 561 -168 561 -207 q 597 -83 561 -125 q 690 -11 632 -42 q 1040 36 924 0 l 1040 221 q 875 179 981 199 q 676 161 775 161 q 353 304 383 161 l 1094 304 l 1094 379 q 956 653 1092 553 q 575 753 818 753 q 196 647 335 753 q 58 369 58 543 q 174 106 58 204 q 503 -10 290 8 q 409 -84 442 -37 q 376 -186 376 -131 q 438 -309 376 -267 q 596 -351 499 -351 q 767 -312 706 -351 l 768 -217 l 756 -225 m 351 428 q 430 540 369 499 q 575 582 490 582 q 738 542 679 582 q 803 428 797 501 l 351 428 "},"Ě":{"ha":1331,"x_min":129,"x_max":1275,"o":"m 410 193 l 410 406 l 1153 406 l 1153 575 l 410 575 l 410 779 l 1253 779 l 1253 972 l 129 972 l 129 0 l 1275 0 l 1275 193 l 410 193 m 808 1089 l 1026 1289 l 785 1289 l 667 1186 l 549 1289 l 304 1289 l 522 1089 l 808 1089 "},"ě":{"ha":1144,"x_min":58,"x_max":1094,"o":"m 1094 379 q 956 653 1092 553 q 575 753 818 753 q 196 647 335 753 q 58 369 58 543 q 201 86 58 186 q 601 -14 343 -14 q 838 0 714 -14 q 1040 36 974 15 l 1040 221 q 875 179 981 199 q 676 161 775 161 q 353 304 383 161 l 1094 304 l 1094 379 m 715 878 l 933 1078 l 692 1078 l 574 975 l 456 1078 l 211 1078 l 429 878 l 715 878 m 351 428 q 430 540 369 499 q 575 582 490 582 q 738 542 679 582 q 803 428 797 501 l 351 428 "},"Ĝ":{"ha":1344,"x_min":65,"x_max":1285,"o":"m 665 557 l 665 394 l 1004 394 l 1004 218 q 799 174 907 174 q 467 254 585 174 q 349 486 349 335 q 469 715 349 635 q 801 794 589 794 q 1218 714 1056 794 l 1218 915 q 776 986 1008 986 q 247 855 429 986 q 65 486 65 724 q 247 117 65 249 q 776 -14 429 -14 q 1051 19 900 -14 q 1285 97 1208 56 l 1285 557 l 665 557 m 556 1089 l 674 1192 l 792 1089 l 1033 1089 l 815 1289 l 529 1289 l 311 1089 l 556 1089 "},"ĝ":{"ha":1239,"x_min":58,"x_max":1131,"o":"m 865 615 l 860 615 q 500 753 744 753 q 175 651 292 753 q 58 372 58 550 q 175 94 58 197 q 500 -8 293 -8 q 854 125 739 -8 l 861 125 l 861 81 q 543 -107 861 -107 q 125 -39 299 -107 l 125 -239 q 325 -275 193 -258 q 579 -293 457 -293 q 982 -210 835 -293 q 1131 39 1131 -126 l 1131 739 l 883 739 l 865 615 m 783 222 q 594 167 713 167 q 405 221 475 167 q 335 372 335 275 q 405 524 335 469 q 594 578 475 578 q 783 523 713 578 q 853 372 853 468 q 818 249 853 276 q 783 222 783 222 m 503 878 l 621 981 l 739 878 l 981 878 l 763 1078 l 476 1078 l 258 878 l 503 878 "},"Ğ":{"ha":1344,"x_min":65,"x_max":1285,"o":"m 665 557 l 665 394 l 1004 394 l 1004 218 q 799 174 907 174 q 467 254 585 174 q 349 486 349 335 q 469 715 349 635 q 801 794 589 794 q 1218 714 1056 794 l 1218 915 q 776 986 1008 986 q 247 855 429 986 q 65 486 65 724 q 247 117 65 249 q 776 -14 429 -14 q 1051 19 900 -14 q 1285 97 1208 56 l 1285 557 l 665 557 m 796 1292 q 765 1233 796 1264 q 671 1203 735 1203 q 578 1233 608 1203 q 546 1292 549 1263 l 392 1292 q 474 1144 404 1210 q 671 1081 542 1081 q 868 1144 800 1081 q 951 1292 939 1208 l 796 1292 "},"ğ":{"ha":1239,"x_min":58,"x_max":1131,"o":"m 865 615 l 860 615 q 500 753 744 753 q 175 651 292 753 q 58 372 58 550 q 175 94 58 197 q 500 -8 293 -8 q 854 125 739 -8 l 861 125 l 861 81 q 543 -107 861 -107 q 125 -39 299 -107 l 125 -239 q 325 -275 193 -258 q 579 -293 457 -293 q 982 -210 835 -293 q 1131 39 1131 -126 l 1131 739 l 883 739 l 865 615 m 783 222 q 594 167 713 167 q 405 221 475 167 q 335 372 335 275 q 405 524 335 469 q 594 578 475 578 q 783 523 713 578 q 853 372 853 468 q 818 249 853 276 q 783 222 783 222 m 743 1081 q 713 1022 743 1053 q 618 992 682 992 q 525 1022 556 992 q 493 1081 496 1051 l 339 1081 q 421 933 351 999 q 618 869 489 869 q 815 933 747 869 q 899 1081 886 997 l 743 1081 "},"Ġ":{"ha":1344,"x_min":65,"x_max":1285,"o":"m 665 557 l 665 394 l 1004 394 l 1004 218 q 799 174 907 174 q 467 254 585 174 q 349 486 349 335 q 469 715 349 635 q 801 794 589 794 q 1218 714 1056 794 l 1218 915 q 776 986 1008 986 q 247 855 429 986 q 65 486 65 724 q 247 117 65 249 q 776 -14 429 -14 q 1051 19 900 -14 q 1285 97 1208 56 l 1285 557 l 665 557 m 671 1081 q 765 1108 731 1081 q 800 1186 800 1136 q 765 1264 800 1236 q 672 1292 731 1292 q 578 1264 613 1292 q 543 1186 543 1236 q 578 1108 543 1136 q 671 1081 613 1081 "},"ġ":{"ha":1239,"x_min":58,"x_max":1131,"o":"m 865 615 l 860 615 q 500 753 744 753 q 175 651 292 753 q 58 372 58 550 q 175 94 58 197 q 500 -8 293 -8 q 854 125 739 -8 l 861 125 l 861 81 q 543 -107 861 -107 q 125 -39 299 -107 l 125 -239 q 325 -275 193 -258 q 579 -293 457 -293 q 982 -210 835 -293 q 1131 39 1131 -126 l 1131 739 l 883 739 l 865 615 m 783 222 q 594 167 713 167 q 405 221 475 167 q 335 372 335 275 q 405 524 335 469 q 594 578 475 578 q 783 523 713 578 q 853 372 853 468 q 818 249 853 276 q 783 222 783 222 m 618 869 q 713 897 678 869 q 747 975 747 925 q 713 1053 747 1025 q 619 1081 678 1081 q 525 1053 560 1081 q 490 975 490 1025 q 525 897 490 925 q 618 869 560 869 "},"Ģ":{"ha":1344,"x_min":65,"x_max":1285,"o":"m 665 557 l 665 394 l 1004 394 l 1004 218 q 799 174 907 174 q 467 254 585 174 q 349 486 349 335 q 469 715 349 635 q 801 794 589 794 q 1218 714 1056 794 l 1218 915 q 776 986 1008 986 q 247 855 429 986 q 65 486 65 724 q 247 117 65 249 q 776 -14 429 -14 q 1051 19 900 -14 q 1285 97 1208 56 l 1285 557 l 665 557 m 672 -94 q 553 -132 599 -94 q 508 -235 508 -169 q 551 -335 508 -296 q 653 -374 593 -374 l 647 -386 q 620 -423 642 -401 q 568 -460 599 -444 l 644 -553 q 775 -440 714 -524 q 836 -257 833 -358 q 792 -138 836 -182 q 672 -94 747 -94 "},"ģ":{"ha":1239,"x_min":58,"x_max":1131,"o":"m 865 615 l 860 615 q 500 753 744 753 q 175 651 292 753 q 58 372 58 550 q 175 94 58 197 q 500 -8 293 -8 q 854 125 739 -8 l 861 125 l 861 81 q 543 -107 861 -107 q 125 -39 299 -107 l 125 -239 q 325 -275 193 -258 q 579 -293 457 -293 q 982 -210 835 -293 q 1131 39 1131 -126 l 1131 739 l 883 739 l 865 615 m 783 222 q 594 167 713 167 q 405 221 475 167 q 335 372 335 275 q 405 524 335 469 q 594 578 475 578 q 783 523 713 578 q 853 372 853 468 q 818 249 853 276 q 783 222 783 222 m 656 869 q 774 907 729 869 q 819 1010 819 944 q 777 1110 819 1071 q 675 1149 735 1149 l 681 1161 q 708 1198 686 1176 q 760 1235 729 1219 l 683 1328 q 553 1215 614 1299 q 492 1032 494 1133 q 536 913 492 957 q 656 869 581 869 "},"Ĥ":{"ha":1429,"x_min":129,"x_max":1300,"o":"m 1018 381 l 1018 0 l 1300 0 l 1300 972 l 1018 972 l 1018 592 l 410 592 l 410 972 l 129 972 l 129 0 l 410 0 l 410 381 l 1018 381 m 597 1089 l 715 1192 l 833 1089 l 1075 1089 l 857 1289 l 571 1289 l 353 1089 l 597 1089 "},"ĥ":{"ha":1278,"x_min":-111,"x_max":1176,"o":"m 744 753 q 390 629 511 753 l 383 629 l 383 1014 l 108 1014 l 108 0 l 383 0 l 383 375 q 453 524 383 471 q 640 578 522 578 q 831 524 761 578 q 900 372 900 471 l 900 0 l 1176 0 l 1176 372 q 1063 651 1176 550 q 744 753 949 753 m 133 1089 l 251 1192 l 369 1089 l 611 1089 l 393 1289 l 107 1289 l -111 1089 l 133 1089 "},"Ħ":{"ha":1599,"x_min":-4,"x_max":1603,"o":"m 1104 972 l 1104 814 l 496 814 l 496 972 l 214 972 l 214 814 l -4 814 l -4 717 l 214 717 l 214 0 l 496 0 l 496 381 l 1104 381 l 1104 0 l 1385 0 l 1385 717 l 1603 717 l 1603 814 l 1385 814 l 1385 972 l 1104 972 m 496 592 l 496 717 l 1104 717 l 1104 592 l 496 592 "},"ħ":{"ha":1450,"x_min":-4,"x_max":1349,"o":"m 917 753 q 563 611 672 753 l 556 611 l 556 796 l 856 796 l 856 901 l 556 901 l 556 1014 l 281 1014 l 281 901 l -4 901 l -4 796 l 281 796 l 281 0 l 556 0 l 556 376 q 625 524 556 471 q 813 578 694 578 q 1003 524 933 578 q 1072 372 1072 471 l 1072 0 l 1349 0 l 1349 372 q 1235 651 1349 550 q 917 753 1121 753 "},"Ĩ":{"ha":539,"x_min":-29,"x_max":569,"o":"m 410 0 l 410 972 l 129 972 l 129 0 l 410 0 m 25 1117 q 88 1156 57 1143 q 144 1167 96 1161 q 163 1165 150 1167 q 189 1160 175 1163 q 206 1157 203 1157 l 240 1147 l 276 1138 q 381 1114 349 1118 q 474 1118 414 1110 q 569 1164 525 1128 l 513 1333 q 393 1283 451 1283 q 360 1288 386 1283 q 332 1293 333 1293 q 261 1313 313 1296 q 157 1336 207 1328 q 65 1332 117 1342 q -29 1286 15 1322 l 25 1117 "},"ĩ":{"ha":518,"x_min":-40,"x_max":558,"o":"m 111 0 l 386 0 l 386 739 l 111 739 l 111 0 m 14 906 q 76 944 46 932 q 133 956 85 950 q 151 953 139 956 q 178 949 164 951 q 194 946 192 946 l 229 936 l 265 926 q 370 903 338 907 q 463 907 403 899 q 558 953 514 917 l 501 1122 q 382 1072 440 1072 q 349 1077 375 1072 q 321 1082 322 1082 q 250 1101 301 1085 q 146 1125 196 1117 q 54 1121 106 1131 q -40 1075 4 1111 l 14 906 "},"Ī":{"ha":539,"x_min":-54,"x_max":593,"o":"m 410 0 l 410 972 l 129 972 l 129 0 l 410 0 m -54 1089 l 593 1089 l 593 1244 l -54 1244 l -54 1089 "},"ī":{"ha":518,"x_min":-64,"x_max":583,"o":"m 111 0 l 386 0 l 386 739 l 111 739 l 111 0 m -64 878 l 583 878 l 583 1033 l -64 1033 l -64 878 "},"Į":{"ha":539,"x_min":29,"x_max":421,"o":"m 179 0 q 69 -75 108 -25 q 29 -186 29 -125 q 90 -309 29 -267 q 249 -351 151 -351 q 419 -312 358 -351 l 421 -217 l 408 -225 q 318 -250 368 -250 q 242 -228 269 -250 q 214 -168 214 -207 q 259 -73 214 -119 q 369 0 304 -26 l 410 0 l 410 972 l 129 972 l 129 0 l 179 0 "},"į":{"ha":518,"x_min":17,"x_max":408,"o":"m 394 -225 q 306 -250 357 -250 q 229 -228 257 -250 q 201 -168 201 -207 q 247 -73 201 -119 q 357 0 292 -26 l 386 0 l 386 739 l 111 739 l 111 0 l 167 0 q 56 -75 96 -25 q 17 -186 17 -125 q 78 -309 17 -267 q 236 -351 139 -351 q 407 -312 346 -351 l 408 -217 l 394 -225 m 249 842 q 363 876 319 840 q 406 975 406 913 q 363 1074 406 1039 q 249 1110 318 1110 q 135 1074 179 1110 q 92 975 92 1039 q 135 877 92 913 q 249 842 178 842 "},"İ":{"ha":539,"x_min":129,"x_max":410,"o":"m 410 0 l 410 972 l 129 972 l 129 0 l 410 0 m 268 1081 q 363 1108 328 1081 q 397 1186 397 1136 q 363 1264 397 1236 q 269 1292 328 1292 q 175 1264 210 1292 q 140 1186 140 1236 q 175 1108 140 1136 q 268 1081 210 1081 "},"ı":{"ha":518,"x_min":111,"x_max":386,"o":"m 111 0 l 386 0 l 386 739 l 111 739 l 111 0 "},"Ĳ":{"ha":1036,"x_min":129,"x_max":926,"o":"m 643 54 q 586 -81 643 -43 q 404 -119 529 -119 l 404 -294 q 575 -290 513 -294 q 651 -283 631 -287 q 779 -247 749 -265 q 925 63 926 -174 l 925 972 l 643 972 l 643 54 m 410 0 l 410 972 l 129 972 l 129 0 l 410 0 "},"ĳ":{"ha":1078,"x_min":92,"x_max":965,"o":"m 663 31 q 607 -87 663 -53 q 442 -121 551 -121 l 442 -293 q 535 -292 514 -293 q 619 -289 550 -292 q 699 -281 672 -286 q 826 -236 793 -262 q 908 -136 892 -183 q 938 38 938 -61 l 938 739 l 663 739 l 663 31 m 111 0 l 386 0 l 386 739 l 111 739 l 111 0 m 965 976 q 921 1074 965 1036 q 800 1113 876 1113 q 680 1074 725 1113 q 635 976 635 1036 q 680 878 635 917 q 800 840 725 840 q 921 878 876 840 q 965 976 965 915 m 249 842 q 363 876 319 840 q 406 975 406 913 q 363 1074 406 1039 q 249 1110 318 1110 q 135 1074 179 1110 q 92 975 92 1039 q 135 877 92 913 q 249 842 178 842 "},"Ĵ":{"ha":458,"x_min":-174,"x_max":590,"o":"m 65 54 q 8 -81 65 -43 q -174 -119 -49 -119 l -174 -294 q -3 -290 -65 -294 q 74 -283 53 -287 q 201 -247 171 -265 q 347 63 349 -174 l 347 972 l 65 972 l 65 54 m 113 1089 l 231 1192 l 349 1089 l 590 1089 l 372 1289 l 86 1289 l -132 1089 l 113 1089 "},"ĵ":{"ha":521,"x_min":-115,"x_max":615,"o":"m 106 31 q 50 -87 106 -53 q -115 -121 -6 -121 l -115 -293 q -21 -292 -42 -293 q 63 -289 -7 -292 q 142 -281 114 -286 q 269 -236 236 -262 q 351 -136 335 -183 q 381 38 381 -61 l 381 739 l 106 739 l 106 31 m 138 878 l 256 981 l 374 878 l 615 878 l 397 1078 l 111 1078 l -107 878 l 138 878 "},"Ķ":{"ha":1378,"x_min":129,"x_max":1379,"o":"m 1331 972 l 946 972 l 417 539 l 410 539 l 410 972 l 129 972 l 129 0 l 410 0 l 410 215 l 635 403 l 1025 0 l 1379 0 l 847 565 l 1331 972 m 689 -94 q 570 -132 615 -94 q 525 -235 525 -169 q 567 -335 525 -296 q 669 -374 610 -374 l 664 -386 q 637 -423 658 -401 q 585 -460 615 -444 l 661 -553 q 792 -440 731 -524 q 853 -257 850 -358 q 808 -138 853 -182 q 689 -94 764 -94 "},"ķ":{"ha":1193,"x_min":108,"x_max":1196,"o":"m 1160 739 l 811 739 l 383 422 l 383 1014 l 108 1014 l 108 0 l 383 0 l 383 169 l 569 303 l 849 0 l 1196 0 l 771 453 l 1160 739 m 596 -94 q 477 -132 522 -94 q 432 -235 432 -169 q 474 -335 432 -296 q 576 -374 517 -374 l 571 -386 q 544 -423 565 -401 q 492 -460 522 -444 l 568 -553 q 699 -440 638 -524 q 760 -257 757 -358 q 715 -138 760 -182 q 596 -94 671 -94 "},"ĸ":{"ha":1193,"x_min":108,"x_max":1196,"o":"m 1160 739 l 811 739 l 383 422 l 383 739 l 108 739 l 108 0 l 383 0 l 383 169 l 569 303 l 849 0 l 1196 0 l 771 453 l 1160 739 "},"Ĺ":{"ha":1233,"x_min":129,"x_max":1221,"o":"m 129 0 l 1221 0 l 1221 193 l 410 193 l 410 972 l 129 972 l 129 0 m 167 1089 l 353 1089 l 651 1289 l 343 1289 l 167 1089 "},"ĺ":{"ha":500,"x_min":113,"x_max":646,"o":"m 113 0 l 388 0 l 388 1014 l 113 1014 l 113 0 m 161 1089 l 347 1089 l 646 1289 l 338 1289 l 161 1089 "},"Ļ":{"ha":1233,"x_min":129,"x_max":1221,"o":"m 129 0 l 1221 0 l 1221 193 l 410 193 l 410 972 l 129 972 l 129 0 m 617 -94 q 498 -132 543 -94 q 453 -235 453 -169 q 495 -335 453 -296 q 597 -374 538 -374 l 592 -386 q 565 -423 586 -401 q 513 -460 543 -444 l 589 -553 q 719 -440 658 -524 q 781 -257 778 -358 q 736 -138 781 -182 q 617 -94 692 -94 "},"ļ":{"ha":500,"x_min":86,"x_max":414,"o":"m 113 0 l 388 0 l 388 1014 l 113 1014 l 113 0 m 250 -94 q 131 -132 176 -94 q 86 -235 86 -169 q 128 -335 86 -296 q 231 -374 171 -374 l 225 -386 q 198 -423 219 -401 q 146 -460 176 -444 l 222 -553 q 353 -440 292 -524 q 414 -257 411 -358 q 369 -138 414 -182 q 250 -94 325 -94 "},"Ľ":{"ha":1233,"x_min":129,"x_max":1221,"o":"m 129 0 l 1221 0 l 1221 193 l 410 193 l 410 972 l 129 972 l 129 0 m 943 986 q 824 949 869 986 q 779 846 779 911 q 822 746 779 785 q 924 707 864 707 l 918 694 q 891 658 913 679 q 839 621 869 636 l 915 528 q 1046 640 985 557 q 1107 824 1104 722 q 1063 942 1107 899 q 943 986 1018 986 "},"ľ":{"ha":958,"x_min":113,"x_max":913,"o":"m 113 0 l 388 0 l 388 1014 l 113 1014 l 113 0 m 749 986 q 630 949 675 986 q 585 846 585 911 q 627 746 585 785 q 729 707 669 707 l 724 694 q 697 658 718 679 q 644 621 675 636 l 721 528 q 851 640 790 557 q 913 824 910 722 q 868 942 913 899 q 749 986 824 986 "},"Ŀ":{"ha":1233,"x_min":129,"x_max":1221,"o":"m 129 0 l 1221 0 l 1221 193 l 410 193 l 410 972 l 129 972 l 129 0 m 897 753 q 780 710 826 753 q 733 600 733 667 q 779 490 733 533 q 897 447 826 447 q 1014 490 969 447 q 1061 600 1061 533 q 1016 710 1063 667 q 897 753 969 753 "},"ŀ":{"ha":960,"x_min":113,"x_max":914,"o":"m 113 0 l 388 0 l 388 1014 l 113 1014 l 113 0 m 749 753 q 631 710 678 753 q 585 600 585 667 q 631 490 585 533 q 749 447 678 447 q 865 490 821 447 q 913 600 913 533 q 867 710 914 667 q 749 753 821 753 "},"Ł":{"ha":1328,"x_min":-4,"x_max":1315,"o":"m 506 490 l 756 601 l 713 697 l 511 608 l 506 611 l 506 972 l 225 972 l 225 481 l -4 378 l 39 282 l 219 363 l 225 360 l 225 0 l 1315 0 l 1315 193 l 506 193 l 506 490 "},"ł":{"ha":722,"x_min":-4,"x_max":726,"o":"m 486 1014 l 211 1014 l 211 492 l -4 396 l 39 300 l 207 374 l 211 371 l 211 0 l 486 0 l 486 499 l 726 606 l 683 701 l 492 617 l 486 621 l 486 1014 "},"Ń":{"ha":1435,"x_min":129,"x_max":1306,"o":"m 1036 361 l 1029 361 l 410 972 l 129 972 l 129 0 l 400 0 l 400 610 l 407 610 l 1021 0 l 1306 0 l 1306 972 l 1036 972 l 1036 361 m 636 1089 l 822 1089 l 1121 1289 l 813 1289 l 636 1089 "},"ń":{"ha":1278,"x_min":108,"x_max":1176,"o":"m 744 753 q 379 624 497 753 l 372 624 l 356 739 l 108 739 l 108 0 l 383 0 l 383 376 q 452 525 383 472 q 640 578 521 578 q 831 524 761 578 q 900 375 900 471 l 900 0 l 1176 0 l 1176 375 q 1063 652 1176 551 q 744 753 949 753 m 463 878 l 649 878 l 947 1078 l 639 1078 l 463 878 "},"Ņ":{"ha":1435,"x_min":129,"x_max":1306,"o":"m 1036 361 l 1029 361 l 410 972 l 129 972 l 129 0 l 400 0 l 400 610 l 407 610 l 1021 0 l 1306 0 l 1306 972 l 1036 972 l 1036 361 m 717 -94 q 598 -132 643 -94 q 553 -235 553 -169 q 595 -335 553 -296 q 697 -374 638 -374 l 692 -386 q 665 -423 686 -401 q 613 -460 643 -444 l 689 -553 q 819 -440 758 -524 q 881 -257 878 -358 q 836 -138 881 -182 q 717 -94 792 -94 "},"ņ":{"ha":1278,"x_min":108,"x_max":1176,"o":"m 744 753 q 379 624 497 753 l 372 624 l 356 739 l 108 739 l 108 0 l 383 0 l 383 376 q 452 525 383 472 q 640 578 521 578 q 831 524 761 578 q 900 375 900 471 l 900 0 l 1176 0 l 1176 375 q 1063 652 1176 551 q 744 753 949 753 m 639 -94 q 520 -132 565 -94 q 475 -235 475 -169 q 517 -335 475 -296 q 619 -374 560 -374 l 614 -386 q 587 -423 608 -401 q 535 -460 565 -444 l 611 -553 q 742 -440 681 -524 q 803 -257 800 -358 q 758 -138 803 -182 q 639 -94 714 -94 "},"Ň":{"ha":1435,"x_min":129,"x_max":1306,"o":"m 1036 361 l 1029 361 l 410 972 l 129 972 l 129 0 l 400 0 l 400 610 l 407 610 l 1021 0 l 1306 0 l 1306 972 l 1036 972 l 1036 361 m 860 1089 l 1078 1289 l 836 1289 l 718 1186 l 600 1289 l 356 1289 l 574 1089 l 860 1089 "},"ň":{"ha":1278,"x_min":108,"x_max":1176,"o":"m 744 753 q 379 624 497 753 l 372 624 l 356 739 l 108 739 l 108 0 l 383 0 l 383 376 q 452 525 383 472 q 640 578 521 578 q 831 524 761 578 q 900 375 900 471 l 900 0 l 1176 0 l 1176 375 q 1063 652 1176 551 q 744 753 949 753 m 782 878 l 1000 1078 l 758 1078 l 640 975 l 522 1078 l 278 1078 l 496 878 l 782 878 "},"ŉ":{"ha":1669,"x_min":68,"x_max":1568,"o":"m 1136 753 q 771 624 889 753 l 764 624 l 747 739 l 500 739 l 500 0 l 775 0 l 775 376 q 844 525 775 472 q 1032 578 913 578 q 1222 524 1153 578 q 1292 375 1292 471 l 1292 0 l 1568 0 l 1568 375 q 1454 652 1568 551 q 1136 753 1340 753 m 232 986 q 113 949 158 986 q 68 846 68 911 q 110 746 68 785 q 213 707 153 707 l 207 694 q 180 658 201 679 q 128 621 158 636 l 204 528 q 335 640 274 557 q 396 824 393 722 q 351 942 396 899 q 232 986 307 986 "},"Ŋ":{"ha":1443,"x_min":129,"x_max":1314,"o":"m 1032 364 l 1025 364 l 410 972 l 129 972 l 129 0 l 400 0 l 400 610 l 407 610 l 1024 -3 q 953 -92 1007 -67 q 793 -118 899 -118 l 794 -293 q 967 -290 889 -293 q 1104 -269 1025 -289 q 1219 -218 1185 -253 q 1314 49 1314 -132 l 1314 972 l 1032 972 l 1032 364 "},"ŋ":{"ha":1286,"x_min":108,"x_max":1178,"o":"m 1176 372 q 1063 651 1176 550 q 744 753 949 753 q 379 597 489 753 l 372 597 l 356 739 l 108 739 l 108 0 l 383 0 l 383 376 q 454 524 385 471 q 640 578 524 578 q 831 524 761 578 q 900 372 900 469 l 900 56 q 844 -80 900 -42 q 663 -118 788 -118 l 664 -293 q 789 -292 760 -293 q 897 -283 835 -289 q 1069 -222 996 -272 q 1149 -119 1125 -186 q 1178 64 1174 -51 l 1176 372 "},"Ō":{"ha":1386,"x_min":65,"x_max":1321,"o":"m 693 178 q 434 258 526 178 q 342 486 342 338 q 434 715 342 635 q 693 794 526 794 q 951 715 858 794 q 1043 486 1043 635 q 951 258 1043 338 q 693 178 858 178 m 228 851 q 65 486 65 718 q 228 119 65 256 q 693 -14 390 -14 q 1158 119 996 -14 q 1321 486 1321 256 q 1158 851 1321 718 q 693 986 997 986 q 228 851 389 986 m 369 1089 l 1017 1089 l 1017 1244 l 369 1244 l 369 1089 "},"ō":{"ha":1163,"x_min":58,"x_max":1104,"o":"m 760 523 q 828 369 828 468 q 760 216 828 271 q 581 161 692 161 q 402 216 469 161 q 335 369 335 271 q 402 523 335 468 q 581 578 469 578 q 726 550 692 578 q 760 523 760 523 m 1104 369 q 965 650 1104 549 q 582 753 825 753 q 197 650 338 753 q 58 369 58 549 q 197 89 58 190 q 582 -14 338 -14 q 965 88 826 -14 q 1104 369 1104 189 m 257 878 l 904 878 l 904 1033 l 257 1033 l 257 878 "},"Ŏ":{"ha":1386,"x_min":65,"x_max":1321,"o":"m 693 178 q 434 258 526 178 q 342 486 342 338 q 434 715 342 635 q 693 794 526 794 q 951 715 858 794 q 1043 486 1043 635 q 951 258 1043 338 q 693 178 858 178 m 228 851 q 65 486 65 718 q 228 119 65 256 q 693 -14 390 -14 q 1158 119 996 -14 q 1321 486 1321 256 q 1158 851 1321 718 q 693 986 997 986 q 228 851 389 986 m 817 1292 q 786 1233 817 1264 q 692 1203 756 1203 q 599 1233 629 1203 q 567 1292 569 1263 l 413 1292 q 494 1144 425 1210 q 692 1081 563 1081 q 889 1144 821 1081 q 972 1292 960 1208 l 817 1292 "},"ŏ":{"ha":1163,"x_min":58,"x_max":1104,"o":"m 760 523 q 828 369 828 468 q 760 216 828 271 q 581 161 692 161 q 402 216 469 161 q 335 369 335 271 q 402 523 335 468 q 581 578 469 578 q 726 550 692 578 q 760 523 760 523 m 1104 369 q 965 650 1104 549 q 582 753 825 753 q 197 650 338 753 q 58 369 58 549 q 197 89 58 190 q 582 -14 338 -14 q 965 88 826 -14 q 1104 369 1104 189 m 706 1081 q 675 1022 706 1053 q 581 992 644 992 q 488 1022 518 992 q 456 1081 458 1051 l 301 1081 q 383 933 314 999 q 581 869 451 869 q 778 933 710 869 q 861 1081 849 997 l 706 1081 "},"Ő":{"ha":1386,"x_min":65,"x_max":1321,"o":"m 693 178 q 434 258 526 178 q 342 486 342 338 q 434 715 342 635 q 693 794 526 794 q 951 715 858 794 q 1043 486 1043 635 q 951 258 1043 338 q 693 178 858 178 m 228 851 q 65 486 65 718 q 228 119 65 256 q 693 -14 390 -14 q 1158 119 996 -14 q 1321 486 1321 256 q 1158 851 1321 718 q 693 986 997 986 q 228 851 389 986 m 926 1289 l 728 1089 l 965 1089 l 1164 1289 l 926 1289 m 583 1289 l 385 1089 l 622 1089 l 821 1289 l 583 1289 "},"ő":{"ha":1163,"x_min":58,"x_max":1104,"o":"m 760 523 q 828 369 828 468 q 760 216 828 271 q 581 161 692 161 q 402 216 469 161 q 335 369 335 271 q 402 523 335 468 q 581 578 469 578 q 726 550 692 578 q 760 523 760 523 m 1104 369 q 965 650 1104 549 q 582 753 825 753 q 197 650 338 753 q 58 369 58 549 q 197 89 58 190 q 582 -14 338 -14 q 965 88 826 -14 q 1104 369 1104 189 m 825 1078 l 626 878 l 864 878 l 1063 1078 l 825 1078 m 482 1078 l 283 878 l 521 878 l 719 1078 l 482 1078 "},"Œ":{"ha":2286,"x_min":65,"x_max":2221,"o":"m 1357 193 l 1357 406 l 2099 406 l 2099 575 l 1357 575 l 1357 779 l 2199 779 l 2199 972 l 1088 972 q 867 986 994 986 q 272 854 479 986 q 65 486 65 722 q 272 118 65 250 q 867 -14 479 -14 q 1096 0 983 -14 l 2221 0 l 2221 193 l 1357 193 m 843 178 q 471 257 600 178 q 342 486 342 336 q 471 715 342 636 q 843 794 600 794 q 1075 760 979 794 l 1075 213 q 843 178 979 178 "},"œ":{"ha":1919,"x_min":58,"x_max":1869,"o":"m 1869 379 q 1738 653 1869 553 q 1371 753 1606 753 q 967 596 1107 753 l 961 596 q 792 712 899 671 q 553 753 686 753 q 193 649 328 753 q 58 369 58 547 q 193 89 58 193 q 553 -14 329 -14 q 961 138 835 -14 l 967 138 q 1406 -14 1101 -14 q 1815 38 1657 -14 l 1815 218 q 1650 176 1754 196 q 1453 160 1547 160 q 1227 197 1306 160 q 1131 317 1149 235 l 1869 317 l 1869 379 m 400 218 q 332 369 332 272 q 400 521 332 467 q 579 575 468 575 q 758 521 690 575 q 825 369 825 467 q 758 218 825 272 q 579 164 690 164 q 434 191 468 164 q 400 218 400 218 m 1128 421 q 1209 539 1144 496 q 1365 582 1274 582 q 1540 540 1478 582 q 1607 421 1601 499 l 1128 421 "},"Ŕ":{"ha":1381,"x_min":129,"x_max":1335,"o":"m 1290 188 q 1235 357 1276 300 q 1094 428 1194 411 l 1094 436 q 1292 683 1292 507 q 790 972 1292 972 l 129 972 l 129 0 l 410 0 l 410 332 l 736 332 q 931 301 871 332 q 1000 188 990 272 l 1008 103 q 1010 90 1008 97 q 1014 71 1011 82 q 1018 51 1017 60 q 1039 0 1026 18 l 1335 0 q 1303 85 1311 25 l 1297 132 l 1290 188 m 410 507 l 410 781 l 790 781 q 1011 646 1011 781 q 953 542 1011 578 q 790 507 896 507 l 410 507 m 508 1089 l 694 1089 l 993 1289 l 685 1289 l 508 1089 "},"ŕ":{"ha":746,"x_min":108,"x_max":743,"o":"m 375 586 l 356 739 l 108 739 l 108 0 l 383 0 l 383 319 q 423 429 385 382 q 518 500 461 476 q 634 533 575 524 q 743 536 693 542 l 743 753 q 382 586 483 753 l 375 586 m 153 878 l 339 878 l 638 1078 l 329 1078 l 153 878 "},"Ŗ":{"ha":1381,"x_min":129,"x_max":1335,"o":"m 1290 188 q 1235 357 1276 300 q 1094 428 1194 411 l 1094 436 q 1292 683 1292 507 q 790 972 1292 972 l 129 972 l 129 0 l 410 0 l 410 332 l 736 332 q 931 301 871 332 q 1000 188 990 272 l 1008 103 q 1010 90 1008 97 q 1014 71 1011 82 q 1018 51 1017 60 q 1039 0 1026 18 l 1335 0 q 1303 85 1311 25 l 1297 132 l 1290 188 m 410 507 l 410 781 l 790 781 q 1011 646 1011 781 q 953 542 1011 578 q 790 507 896 507 l 410 507 m 690 -94 q 572 -132 617 -94 q 526 -235 526 -169 q 569 -335 526 -296 q 671 -374 611 -374 l 665 -386 q 638 -423 660 -401 q 586 -460 617 -444 l 663 -553 q 793 -440 732 -524 q 854 -257 851 -358 q 810 -138 854 -182 q 690 -94 765 -94 "},"ŗ":{"ha":746,"x_min":81,"x_max":743,"o":"m 375 586 l 356 739 l 108 739 l 108 0 l 383 0 l 383 319 q 423 429 385 382 q 518 500 461 476 q 634 533 575 524 q 743 536 693 542 l 743 753 q 382 586 483 753 l 375 586 m 244 -94 q 126 -132 171 -94 q 81 -235 81 -169 q 123 -335 81 -296 q 225 -374 165 -374 l 219 -386 q 192 -423 214 -401 q 140 -460 171 -444 l 217 -553 q 347 -440 286 -524 q 408 -257 406 -358 q 364 -138 408 -182 q 244 -94 319 -94 "},"Ř":{"ha":1381,"x_min":129,"x_max":1335,"o":"m 1290 188 q 1235 357 1276 300 q 1094 428 1194 411 l 1094 436 q 1292 683 1292 507 q 790 972 1292 972 l 129 972 l 129 0 l 410 0 l 410 332 l 736 332 q 931 301 871 332 q 1000 188 990 272 l 1008 103 q 1010 90 1008 97 q 1014 71 1011 82 q 1018 51 1017 60 q 1039 0 1026 18 l 1335 0 q 1303 85 1311 25 l 1297 132 l 1290 188 m 410 507 l 410 781 l 790 781 q 1011 646 1011 781 q 953 542 1011 578 q 790 507 896 507 l 410 507 m 833 1089 l 1051 1289 l 810 1289 l 692 1186 l 574 1289 l 329 1289 l 547 1089 l 833 1089 "},"ř":{"ha":746,"x_min":13,"x_max":743,"o":"m 375 586 l 356 739 l 108 739 l 108 0 l 383 0 l 383 319 q 423 429 385 382 q 518 500 461 476 q 634 533 575 524 q 743 536 693 542 l 743 753 q 382 586 483 753 l 375 586 m 517 878 l 735 1078 l 493 1078 l 375 975 l 257 1078 l 13 1078 l 231 878 l 517 878 "},"Ś":{"ha":1289,"x_min":46,"x_max":1243,"o":"m 667 608 q 418 638 492 621 q 346 703 346 656 q 649 793 346 793 q 960 761 813 793 q 1161 706 1110 729 l 1161 911 q 889 968 1076 943 q 650 986 771 986 q 54 685 54 986 q 217 457 46 533 q 335 422 260 438 q 468 403 418 408 q 622 389 574 392 q 883 354 814 374 q 957 282 957 335 q 629 182 957 182 q 314 222 494 182 q 46 303 144 260 l 46 89 q 342 17 176 46 q 664 -14 515 -14 q 1096 69 949 -14 q 1243 307 1243 151 q 1187 469 1238 411 q 1025 558 1136 528 q 869 589 953 578 q 675 608 782 600 l 667 608 m 401 1089 l 588 1089 l 886 1289 l 578 1289 l 401 1089 "},"ś":{"ha":1035,"x_min":40,"x_max":994,"o":"m 546 469 q 515 471 529 469 q 356 490 399 479 q 313 533 313 501 q 539 590 313 590 q 910 542 736 590 l 910 711 q 515 753 743 753 q 170 690 294 753 q 46 515 46 626 q 178 343 46 397 q 499 285 304 294 q 677 262 629 276 q 725 213 725 247 q 526 150 725 150 q 40 222 274 150 l 40 46 q 526 -14 261 -14 q 994 239 994 -14 q 883 403 994 349 q 546 469 771 457 m 275 878 l 461 878 l 760 1078 l 451 1078 l 275 878 "},"Ŝ":{"ha":1289,"x_min":46,"x_max":1243,"o":"m 667 608 q 418 638 492 621 q 346 703 346 656 q 649 793 346 793 q 960 761 813 793 q 1161 706 1110 729 l 1161 911 q 889 968 1076 943 q 650 986 771 986 q 54 685 54 986 q 217 457 46 533 q 335 422 260 438 q 468 403 418 408 q 622 389 574 392 q 883 354 814 374 q 957 282 957 335 q 629 182 957 182 q 314 222 494 182 q 46 303 144 260 l 46 89 q 342 17 176 46 q 664 -14 515 -14 q 1096 69 949 -14 q 1243 307 1243 151 q 1187 469 1238 411 q 1025 558 1136 528 q 869 589 953 578 q 675 608 782 600 l 667 608 m 528 1089 l 646 1192 l 764 1089 l 1006 1089 l 788 1289 l 501 1289 l 283 1089 l 528 1089 "},"ŝ":{"ha":1035,"x_min":40,"x_max":994,"o":"m 546 469 q 515 471 529 469 q 356 490 399 479 q 313 533 313 501 q 539 590 313 590 q 910 542 736 590 l 910 711 q 515 753 743 753 q 170 690 294 753 q 46 515 46 626 q 178 343 46 397 q 499 285 304 294 q 677 262 629 276 q 725 213 725 247 q 526 150 725 150 q 40 222 274 150 l 40 46 q 526 -14 261 -14 q 994 239 994 -14 q 883 403 994 349 q 546 469 771 457 m 400 878 l 518 981 l 636 878 l 878 878 l 660 1078 l 374 1078 l 156 878 l 400 878 "},"Ş":{"ha":1289,"x_min":46,"x_max":1243,"o":"m 667 608 q 418 638 492 621 q 346 703 346 656 q 649 793 346 793 q 960 761 813 793 q 1161 706 1110 729 l 1161 911 q 889 968 1076 943 q 650 986 771 986 q 54 685 54 986 q 217 457 46 533 q 335 422 260 438 q 468 403 418 408 q 622 389 574 392 q 883 354 814 374 q 957 282 957 335 q 629 182 957 182 q 314 222 494 182 q 46 303 144 260 l 46 89 q 296 26 147 56 q 581 -11 443 -3 l 493 -256 l 646 -256 l 790 -8 q 1128 89 1014 8 q 1243 307 1243 169 q 1187 469 1238 411 q 1025 558 1136 528 q 869 589 953 578 q 675 608 782 600 l 667 608 "},"ş":{"ha":1035,"x_min":40,"x_max":994,"o":"m 546 469 q 515 471 529 469 q 356 490 399 479 q 313 533 313 501 q 539 590 313 590 q 910 542 736 590 l 910 711 q 515 753 743 753 q 170 690 294 753 q 46 515 46 626 q 178 343 46 397 q 499 285 304 294 q 677 262 629 276 q 725 213 725 247 q 526 150 725 150 q 40 222 274 150 l 40 46 q 451 -12 219 -4 l 365 -256 l 518 -256 l 664 -7 q 994 239 994 26 q 883 403 994 349 q 546 469 771 457 "},"Š":{"ha":1289,"x_min":46,"x_max":1243,"o":"m 667 608 q 418 638 492 621 q 346 703 346 656 q 649 793 346 793 q 960 761 813 793 q 1161 706 1110 729 l 1161 911 q 889 968 1076 943 q 650 986 771 986 q 54 685 54 986 q 217 457 46 533 q 335 422 260 438 q 468 403 418 408 q 622 389 574 392 q 883 354 814 374 q 957 282 957 335 q 629 182 957 182 q 314 222 494 182 q 46 303 144 260 l 46 89 q 342 17 176 46 q 664 -14 515 -14 q 1096 69 949 -14 q 1243 307 1243 151 q 1187 469 1238 411 q 1025 558 1136 528 q 869 589 953 578 q 675 608 782 600 l 667 608 m 788 1089 l 1006 1289 l 764 1289 l 646 1186 l 528 1289 l 283 1289 l 501 1089 l 788 1089 "},"š":{"ha":1035,"x_min":40,"x_max":994,"o":"m 546 469 q 515 471 529 469 q 356 490 399 479 q 313 533 313 501 q 539 590 313 590 q 910 542 736 590 l 910 711 q 515 753 743 753 q 170 690 294 753 q 46 515 46 626 q 178 343 46 397 q 499 285 304 294 q 677 262 629 276 q 725 213 725 247 q 526 150 725 150 q 40 222 274 150 l 40 46 q 526 -14 261 -14 q 994 239 994 -14 q 883 403 994 349 q 546 469 771 457 m 660 878 l 878 1078 l 636 1078 l 518 975 l 400 1078 l 156 1078 l 374 878 l 660 878 "},"Ţ":{"ha":1139,"x_min":11,"x_max":1128,"o":"m 429 779 l 429 0 l 710 0 l 710 779 l 1128 779 l 1128 972 l 11 972 l 11 779 l 429 779 m 569 -94 q 451 -132 496 -94 q 406 -235 406 -169 q 448 -335 406 -296 q 550 -374 490 -374 l 544 -386 q 517 -423 539 -401 q 465 -460 496 -444 l 542 -553 q 672 -440 611 -524 q 733 -257 731 -358 q 689 -138 733 -182 q 569 -94 644 -94 "},"ţ":{"ha":894,"x_min":7,"x_max":894,"o":"m 756 164 q 570 208 625 164 q 515 354 515 253 l 515 574 l 867 574 l 867 739 l 515 739 l 515 972 l 242 972 l 242 739 l 7 739 l 7 574 l 242 574 l 242 343 q 426 25 242 93 q 735 -14 539 -14 q 894 -3 799 -14 l 894 176 l 756 164 m 447 -94 q 328 -132 374 -94 q 283 -235 283 -169 q 326 -335 283 -296 q 428 -374 368 -374 l 422 -386 q 395 -423 417 -401 q 343 -460 374 -444 l 419 -553 q 550 -440 489 -524 q 611 -257 608 -358 q 567 -138 611 -182 q 447 -94 522 -94 "},"Ť":{"ha":1139,"x_min":11,"x_max":1128,"o":"m 429 779 l 429 0 l 710 0 l 710 779 l 1128 779 l 1128 972 l 11 972 l 11 779 l 429 779 m 713 1089 l 931 1289 l 689 1289 l 571 1186 l 453 1289 l 208 1289 l 426 1089 l 713 1089 "},"ť":{"ha":1353,"x_min":7,"x_max":1307,"o":"m 756 164 q 570 208 625 164 q 515 354 515 253 l 515 574 l 867 574 l 867 739 l 515 739 l 515 972 l 242 972 l 242 739 l 7 739 l 7 574 l 242 574 l 242 343 q 426 25 242 93 q 735 -14 539 -14 q 894 -3 799 -14 l 894 176 l 756 164 m 1143 986 q 1024 949 1069 986 q 979 846 979 911 q 1022 746 979 785 q 1124 707 1064 707 l 1118 694 q 1091 658 1113 679 q 1039 621 1069 636 l 1115 528 q 1246 640 1185 557 q 1307 824 1304 722 q 1263 942 1307 899 q 1143 986 1218 986 "},"Ŧ":{"ha":1139,"x_min":11,"x_max":1128,"o":"m 429 779 l 429 539 l 60 539 l 60 433 l 429 433 l 429 0 l 710 0 l 710 433 l 1079 433 l 1079 539 l 710 539 l 710 779 l 1128 779 l 1128 972 l 11 972 l 11 779 l 429 779 "},"ŧ":{"ha":892,"x_min":4,"x_max":892,"o":"m 808 163 q 592 203 664 163 q 514 333 519 243 l 864 333 l 864 439 l 513 439 l 513 574 l 864 574 l 864 739 l 513 739 l 513 972 l 239 972 l 239 739 l 4 739 l 4 574 l 239 574 l 239 439 l 4 439 l 4 333 l 239 333 q 408 42 239 121 q 657 -10 486 1 q 810 -14 722 -14 q 892 -10 836 -14 l 892 167 l 808 163 "},"Ũ":{"ha":1393,"x_min":113,"x_max":1281,"o":"m 696 -14 q 1128 110 975 -14 q 1281 457 1281 235 l 1281 972 l 1000 972 l 1000 471 q 921 252 1000 328 q 697 176 842 176 q 473 252 553 176 q 393 471 393 328 l 393 972 l 113 972 l 113 454 q 265 110 115 232 q 696 -14 418 -14 m 451 1117 q 514 1156 483 1143 q 571 1167 522 1161 q 589 1165 576 1167 q 615 1160 601 1163 q 632 1157 629 1157 l 667 1147 l 703 1138 q 808 1114 775 1118 q 900 1118 840 1110 q 996 1164 953 1128 l 939 1333 q 819 1283 878 1283 q 786 1288 813 1283 q 758 1293 760 1293 q 688 1313 739 1296 q 583 1336 633 1328 q 492 1332 544 1342 q 397 1286 442 1322 l 451 1117 "},"ũ":{"ha":1278,"x_min":101,"x_max":1169,"o":"m 533 -14 q 899 115 781 -14 l 906 115 l 922 0 l 1169 0 l 1169 739 l 894 739 l 894 363 q 826 214 894 267 q 638 161 757 161 q 447 215 517 161 q 378 364 378 268 l 378 739 l 101 739 l 101 364 q 215 87 101 188 q 533 -14 329 -14 m 393 906 q 456 944 425 932 q 513 956 464 950 q 531 953 518 956 q 557 949 543 951 q 574 946 571 946 l 608 936 l 644 926 q 749 903 717 907 q 842 907 782 899 q 938 953 894 917 l 881 1122 q 761 1072 819 1072 q 728 1077 754 1072 q 700 1082 701 1082 q 629 1101 681 1085 q 525 1125 575 1117 q 433 1121 486 1131 q 339 1075 383 1111 l 393 906 "},"Ū":{"ha":1393,"x_min":113,"x_max":1281,"o":"m 696 -14 q 1128 110 975 -14 q 1281 457 1281 235 l 1281 972 l 1000 972 l 1000 471 q 921 252 1000 328 q 697 176 842 176 q 473 252 553 176 q 393 471 393 328 l 393 972 l 113 972 l 113 454 q 265 110 115 232 q 696 -14 418 -14 m 372 1089 l 1019 1089 l 1019 1244 l 372 1244 l 372 1089 "},"ū":{"ha":1278,"x_min":101,"x_max":1169,"o":"m 533 -14 q 899 115 781 -14 l 906 115 l 922 0 l 1169 0 l 1169 739 l 894 739 l 894 363 q 826 214 894 267 q 638 161 757 161 q 447 215 517 161 q 378 364 378 268 l 378 739 l 101 739 l 101 364 q 215 87 101 188 q 533 -14 329 -14 m 315 878 l 963 878 l 963 1033 l 315 1033 l 315 878 "},"Ŭ":{"ha":1393,"x_min":113,"x_max":1281,"o":"m 696 -14 q 1128 110 975 -14 q 1281 457 1281 235 l 1281 972 l 1000 972 l 1000 471 q 921 252 1000 328 q 697 176 842 176 q 473 252 553 176 q 393 471 393 328 l 393 972 l 113 972 l 113 454 q 265 110 115 232 q 696 -14 418 -14 m 821 1292 q 790 1233 821 1264 q 696 1203 760 1203 q 603 1233 633 1203 q 571 1292 574 1263 l 417 1292 q 499 1144 429 1210 q 696 1081 567 1081 q 893 1144 825 1081 q 976 1292 964 1208 l 821 1292 "},"ŭ":{"ha":1278,"x_min":101,"x_max":1169,"o":"m 533 -14 q 899 115 781 -14 l 906 115 l 922 0 l 1169 0 l 1169 739 l 894 739 l 894 363 q 826 214 894 267 q 638 161 757 161 q 447 215 517 161 q 378 364 378 268 l 378 739 l 101 739 l 101 364 q 215 87 101 188 q 533 -14 329 -14 m 763 1081 q 732 1022 763 1053 q 638 992 701 992 q 544 1022 575 992 q 513 1081 515 1051 l 358 1081 q 440 933 371 999 q 638 869 508 869 q 835 933 767 869 q 918 1081 906 997 l 763 1081 "},"Ů":{"ha":1393,"x_min":113,"x_max":1281,"o":"m 696 -14 q 1128 110 975 -14 q 1281 457 1281 235 l 1281 972 l 1000 972 l 1000 471 q 921 252 1000 328 q 697 176 842 176 q 473 252 553 176 q 393 471 393 328 l 393 972 l 113 972 l 113 454 q 265 110 115 232 q 696 -14 418 -14 m 696 1415 q 533 1370 594 1415 q 472 1247 472 1325 q 533 1124 472 1169 q 696 1079 594 1079 q 859 1124 799 1079 q 919 1247 919 1169 q 859 1370 919 1325 q 696 1415 799 1415 m 756 1299 q 778 1246 778 1279 q 756 1193 778 1213 q 697 1174 735 1174 q 638 1193 660 1174 q 615 1246 615 1213 q 638 1299 615 1281 q 697 1318 660 1318 q 745 1308 735 1318 q 756 1299 756 1299 "},"ů":{"ha":1278,"x_min":101,"x_max":1169,"o":"m 533 -14 q 899 115 781 -14 l 906 115 l 922 0 l 1169 0 l 1169 739 l 894 739 l 894 363 q 826 214 894 267 q 638 161 757 161 q 447 215 517 161 q 378 364 378 268 l 378 739 l 101 739 l 101 364 q 215 87 101 188 q 533 -14 329 -14 m 639 1204 q 476 1159 538 1204 q 415 1036 415 1114 q 476 913 415 958 q 639 868 538 868 q 802 913 742 868 q 863 1036 863 958 q 802 1159 863 1114 q 639 1204 742 1204 m 699 1088 q 721 1035 721 1068 q 699 982 721 1001 q 640 963 678 963 q 581 982 603 963 q 558 1035 558 1001 q 581 1088 558 1069 q 640 1107 603 1107 q 689 1097 678 1107 q 699 1088 699 1088 "},"Ű":{"ha":1393,"x_min":113,"x_max":1281,"o":"m 696 -14 q 1128 110 975 -14 q 1281 457 1281 235 l 1281 972 l 1000 972 l 1000 471 q 921 252 1000 328 q 697 176 842 176 q 473 252 553 176 q 393 471 393 328 l 393 972 l 113 972 l 113 454 q 265 110 115 232 q 696 -14 418 -14 m 601 1289 l 403 1089 l 640 1089 l 839 1289 l 601 1289 m 944 1289 l 746 1089 l 983 1089 l 1182 1289 l 944 1289 "},"ű":{"ha":1278,"x_min":101,"x_max":1169,"o":"m 533 -14 q 899 115 781 -14 l 906 115 l 922 0 l 1169 0 l 1169 739 l 894 739 l 894 363 q 826 214 894 267 q 638 161 757 161 q 447 215 517 161 q 378 364 378 268 l 378 739 l 101 739 l 101 364 q 215 87 101 188 q 533 -14 329 -14 m 869 1078 l 671 878 l 908 878 l 1107 1078 l 869 1078 m 526 1078 l 328 878 l 565 878 l 764 1078 l 526 1078 "},"Ų":{"ha":1393,"x_min":113,"x_max":1281,"o":"m 878 -225 q 789 -250 840 -250 q 713 -228 740 -250 q 685 -168 685 -207 q 725 -77 685 -121 q 826 -6 765 -33 q 1163 141 1046 21 q 1281 457 1281 261 l 1281 972 l 1000 972 l 1000 471 q 921 252 1000 328 q 697 176 842 176 q 473 252 553 176 q 393 471 393 328 l 393 972 l 113 972 l 113 454 q 246 126 114 249 q 622 -11 378 4 q 532 -85 564 -39 q 500 -186 500 -132 q 561 -309 500 -267 q 719 -351 622 -351 q 890 -312 829 -351 l 892 -217 l 878 -225 "},"ų":{"ha":1278,"x_min":101,"x_max":1199,"o":"m 1186 -225 q 1096 -250 1146 -250 q 1019 -228 1047 -250 q 992 -168 992 -207 q 1037 -73 992 -119 q 1147 0 1082 -26 l 1169 0 l 1169 739 l 894 739 l 894 363 q 826 214 894 267 q 638 161 757 161 q 447 215 517 161 q 378 364 378 268 l 378 739 l 101 739 l 101 364 q 215 87 101 188 q 533 -14 329 -14 q 899 115 781 -14 l 906 115 l 922 0 l 957 0 q 847 -75 886 -25 q 807 -186 807 -125 q 868 -309 807 -267 q 1026 -351 929 -351 q 1197 -312 1136 -351 l 1199 -217 l 1186 -225 "},"Ŵ":{"ha":1772,"x_min":25,"x_max":1749,"o":"m 1242 308 l 1235 308 l 1024 972 l 749 972 l 539 308 l 532 308 l 322 972 l 25 972 l 326 0 l 683 0 l 883 604 l 890 604 l 1090 0 l 1447 0 l 1749 972 l 1450 972 l 1242 308 m 769 1089 l 888 1192 l 1006 1089 l 1247 1089 l 1029 1289 l 743 1289 l 525 1089 l 769 1089 "},"ŵ":{"ha":1607,"x_min":26,"x_max":1581,"o":"m 1122 246 l 1115 246 l 928 739 l 679 739 l 492 246 l 485 246 l 311 739 l 26 739 l 303 0 l 622 0 l 800 435 l 807 435 l 985 0 l 1304 0 l 1581 739 l 1296 739 l 1122 246 m 686 878 l 804 981 l 922 878 l 1164 878 l 946 1078 l 660 1078 l 442 878 l 686 878 "},"Ŷ":{"ha":1364,"x_min":10,"x_max":1354,"o":"m 822 344 l 1354 972 l 1043 972 l 686 554 l 679 554 l 322 972 l 10 972 l 542 346 l 542 0 l 822 0 l 822 344 m 565 1089 l 683 1192 l 801 1089 l 1043 1089 l 825 1289 l 539 1289 l 321 1089 l 565 1089 "},"ŷ":{"ha":1171,"x_min":14,"x_max":1157,"o":"m 608 281 l 601 281 l 322 739 l 14 739 l 479 32 l 318 -279 l 596 -279 l 1157 739 l 850 739 l 608 281 m 468 878 l 586 981 l 704 878 l 946 878 l 728 1078 l 442 1078 l 224 878 l 468 878 "},"Ÿ":{"ha":1364,"x_min":10,"x_max":1354,"o":"m 822 344 l 1354 972 l 1043 972 l 686 554 l 679 554 l 322 972 l 10 972 l 542 346 l 542 0 l 822 0 l 822 344 m 501 1293 q 407 1265 442 1293 q 372 1188 372 1238 q 407 1110 372 1138 q 500 1082 442 1082 q 594 1110 560 1082 q 629 1188 629 1138 q 594 1265 629 1238 q 501 1293 560 1293 m 864 1082 q 957 1110 922 1082 q 992 1188 992 1138 q 957 1265 992 1238 q 864 1293 922 1293 q 770 1265 806 1293 q 735 1188 735 1238 q 769 1110 735 1138 q 864 1082 804 1082 "},"Ź":{"ha":1232,"x_min":39,"x_max":1190,"o":"m 471 197 l 1161 803 l 1161 972 l 71 972 l 71 782 l 721 782 l 721 775 l 39 169 l 39 0 l 1190 0 l 1190 190 l 472 190 l 471 197 m 489 1089 l 675 1089 l 974 1289 l 665 1289 l 489 1089 "},"ź":{"ha":1074,"x_min":35,"x_max":1039,"o":"m 1000 747 l 58 747 l 58 574 l 583 574 l 583 567 l 35 146 l 35 8 l 1039 8 l 1039 181 l 467 181 l 465 188 l 1000 604 l 1000 747 m 407 878 l 593 878 l 892 1078 l 583 1078 l 407 878 "},"Ż":{"ha":1232,"x_min":39,"x_max":1190,"o":"m 471 197 l 1161 803 l 1161 972 l 71 972 l 71 782 l 721 782 l 721 775 l 39 169 l 39 0 l 1190 0 l 1190 190 l 472 190 l 471 197 m 615 1081 q 710 1108 675 1081 q 744 1186 744 1136 q 710 1264 744 1236 q 617 1292 675 1292 q 522 1264 557 1292 q 488 1186 488 1236 q 522 1108 488 1136 q 615 1081 557 1081 "},"ż":{"ha":1074,"x_min":35,"x_max":1039,"o":"m 1000 747 l 58 747 l 58 574 l 583 574 l 583 567 l 35 146 l 35 8 l 1039 8 l 1039 181 l 467 181 l 465 188 l 1000 604 l 1000 747 m 536 869 q 631 897 596 869 q 665 975 665 925 q 631 1053 665 1025 q 538 1081 596 1081 q 443 1053 478 1081 q 408 975 408 1025 q 443 897 408 925 q 536 869 478 869 "},"Ž":{"ha":1232,"x_min":39,"x_max":1190,"o":"m 471 197 l 1161 803 l 1161 972 l 71 972 l 71 782 l 721 782 l 721 775 l 39 169 l 39 0 l 1190 0 l 1190 190 l 472 190 l 471 197 m 758 1089 l 976 1289 l 735 1289 l 617 1186 l 499 1289 l 254 1289 l 472 1089 l 758 1089 "},"ž":{"ha":1074,"x_min":35,"x_max":1039,"o":"m 1000 747 l 58 747 l 58 574 l 583 574 l 583 567 l 35 146 l 35 8 l 1039 8 l 1039 181 l 467 181 l 465 188 l 1000 604 l 1000 747 m 679 878 l 897 1078 l 656 1078 l 538 975 l 419 1078 l 175 1078 l 393 878 l 679 878 "},"ſ":{"ha":886,"x_min":7,"x_max":893,"o":"m 779 882 q 893 881 881 882 l 893 1050 q 736 1054 844 1054 q 244 776 244 1054 l 244 739 l 7 739 l 7 574 l 244 574 l 244 0 l 518 0 l 518 739 q 589 856 518 829 q 779 882 653 882 "},"ƒ":{"ha":914,"x_min":46,"x_max":868,"o":"m 785 811 q 850 803 825 811 l 850 997 q 782 999 826 997 q 711 1000 739 1000 q 335 647 379 1000 l 328 593 l 46 593 l 46 447 l 308 449 l 293 332 q 122 160 272 160 q 61 168 107 160 l 61 -25 q 128 -26 85 -25 q 197 -28 171 -28 q 463 62 371 -28 q 578 340 554 151 l 592 447 l 868 447 l 868 593 l 611 593 l 617 640 q 785 811 638 811 "},"Ǻ":{"ha":1353,"x_min":7,"x_max":1346,"o":"m 478 972 l 7 0 l 308 0 l 393 178 l 961 178 l 1044 0 l 1346 0 l 875 972 l 478 972 m 506 1365 q 453 1247 453 1319 q 514 1124 453 1169 q 676 1079 575 1079 q 840 1124 779 1079 q 900 1247 900 1169 q 767 1404 900 1368 l 969 1540 l 661 1540 l 506 1365 m 672 776 l 681 776 l 881 358 l 472 358 l 672 776 m 737 1299 q 758 1246 758 1279 q 737 1193 758 1213 q 678 1174 715 1174 q 618 1193 640 1174 q 596 1246 596 1213 q 618 1299 596 1281 q 678 1318 640 1318 q 726 1308 715 1318 q 737 1299 737 1299 "},"ǻ":{"ha":1133,"x_min":43,"x_max":1032,"o":"m 519 753 q 290 733 429 753 q 114 696 158 715 l 114 500 q 271 549 157 525 q 483 571 378 571 q 753 435 753 571 l 753 424 q 465 465 625 465 q 151 406 260 465 q 43 229 43 346 q 143 50 43 114 q 418 -14 243 -14 q 767 99 664 -14 l 774 99 l 794 0 l 1032 0 l 1032 456 q 519 753 1032 753 m 396 1154 q 343 1036 343 1108 q 404 913 343 958 q 567 868 465 868 q 730 913 669 868 q 790 1036 790 958 q 657 1193 790 1157 l 860 1329 l 551 1329 l 396 1154 m 751 300 q 690 183 751 225 q 503 142 628 142 q 318 244 318 142 q 549 347 318 347 q 751 313 651 347 l 751 300 m 627 1088 q 649 1035 649 1068 q 627 982 649 1001 q 568 963 606 963 q 508 982 531 963 q 486 1035 486 1001 q 508 1088 486 1069 q 568 1107 531 1107 q 616 1097 606 1107 q 627 1088 627 1088 "},"Ǽ":{"ha":2210,"x_min":-19,"x_max":2154,"o":"m 1289 406 l 2032 406 l 2032 575 l 1289 575 l 1289 779 l 2132 779 l 2132 972 l 871 972 l -19 0 l 303 0 l 464 178 l 1008 178 l 1008 0 l 2154 0 l 2154 193 l 1289 193 l 1289 406 m 1004 776 l 1008 776 l 1008 358 l 622 358 l 1004 776 m 1044 1111 l 1231 1111 l 1529 1311 l 1221 1311 l 1044 1111 "},"ǽ":{"ha":1849,"x_min":43,"x_max":1799,"o":"m 1799 376 q 1671 647 1799 543 q 1318 753 1544 753 q 1097 710 1200 753 q 940 594 993 665 l 933 594 q 519 753 839 753 q 290 733 429 753 q 114 694 161 715 l 114 507 q 272 556 160 532 q 483 578 379 578 q 685 535 617 578 q 754 419 754 493 l 754 403 q 450 456 617 456 q 151 395 258 456 q 43 226 43 335 q 160 50 43 114 q 467 -14 278 -14 q 722 33 606 -14 q 896 169 842 82 l 903 169 q 1363 -14 1024 -14 q 1744 38 1585 -14 l 1744 214 q 1581 172 1685 192 q 1382 156 1478 156 q 1157 193 1235 156 q 1060 314 1079 231 l 1799 314 l 1799 376 m 757 296 q 688 172 757 219 q 501 125 618 125 q 366 156 419 125 q 313 239 313 186 q 376 322 313 294 q 549 349 439 349 q 757 308 657 349 l 757 296 m 1083 418 q 1159 537 1094 492 q 1315 582 1224 582 q 1476 539 1417 582 q 1542 418 1536 496 l 1083 418 m 826 878 l 1013 878 l 1311 1078 l 1003 1078 l 826 878 "},"Ǿ":{"ha":1386,"x_min":65,"x_max":1321,"o":"m 1043 486 q 951 258 1043 338 q 693 178 858 178 q 499 217 578 178 l 972 690 q 1043 486 1043 614 m 693 794 q 888 754 803 794 l 414 282 q 342 486 342 356 q 434 715 342 635 q 693 794 526 794 m 693 -14 q 1158 119 996 -14 q 1321 486 1321 256 q 1144 863 1321 732 l 1275 993 l 1200 1068 l 1049 917 q 693 986 899 986 q 228 851 389 986 q 65 486 65 718 q 242 110 65 240 l 111 -21 l 186 -96 l 336 56 q 693 -14 486 -14 m 588 1111 l 774 1111 l 1072 1311 l 764 1311 l 588 1111 "},"ǿ":{"ha":1163,"x_min":58,"x_max":1104,"o":"m 115 -29 l 183 -97 l 314 32 q 582 -14 433 -14 q 965 89 825 -14 q 1104 369 1104 190 q 943 663 1104 560 l 1047 765 l 978 833 l 850 706 q 582 753 731 753 q 197 650 338 753 q 58 369 58 549 q 219 75 58 178 l 115 -29 m 581 576 q 697 553 635 576 l 383 239 q 335 369 335 292 q 402 522 335 468 q 581 576 469 576 m 779 497 q 828 369 828 444 q 760 217 828 272 q 581 163 692 163 q 467 185 517 163 l 779 497 m 474 878 l 660 878 l 958 1078 l 650 1078 l 474 878 "},"Ș":{"ha":1289,"x_min":46,"x_max":1243,"o":"m 667 608 q 418 638 492 621 q 346 703 346 656 q 649 793 346 793 q 960 761 813 793 q 1161 706 1110 729 l 1161 911 q 889 968 1076 943 q 650 986 771 986 q 54 685 54 986 q 217 457 46 533 q 335 422 260 438 q 468 403 418 408 q 622 389 574 392 q 883 354 814 374 q 957 282 957 335 q 629 182 957 182 q 314 222 494 182 q 46 303 144 260 l 46 89 q 342 17 176 46 q 664 -14 515 -14 q 1096 69 949 -14 q 1243 307 1243 151 q 1187 469 1238 411 q 1025 558 1136 528 q 869 589 953 578 q 675 608 782 600 l 667 608 m 644 -94 q 526 -132 571 -94 q 481 -235 481 -169 q 523 -335 481 -296 q 625 -374 565 -374 l 619 -386 q 592 -423 614 -401 q 540 -460 571 -444 l 617 -553 q 747 -440 686 -524 q 808 -257 806 -358 q 764 -138 808 -182 q 644 -94 719 -94 "},"ș":{"ha":1035,"x_min":40,"x_max":994,"o":"m 546 469 q 515 471 529 469 q 356 490 399 479 q 313 533 313 501 q 539 590 313 590 q 910 542 736 590 l 910 711 q 515 753 743 753 q 170 690 294 753 q 46 515 46 626 q 178 343 46 397 q 499 285 304 294 q 677 262 629 276 q 725 213 725 247 q 526 150 725 150 q 40 222 274 150 l 40 46 q 526 -14 261 -14 q 994 239 994 -14 q 883 403 994 349 q 546 469 771 457 m 517 -94 q 398 -132 443 -94 q 353 -235 353 -169 q 395 -335 353 -296 q 497 -374 438 -374 l 492 -386 q 465 -423 486 -401 q 413 -460 443 -444 l 489 -553 q 619 -440 558 -524 q 681 -257 678 -358 q 636 -138 681 -182 q 517 -94 592 -94 "},"Ț":{"ha":1139,"x_min":11,"x_max":1128,"o":"m 429 779 l 429 0 l 710 0 l 710 779 l 1128 779 l 1128 972 l 11 972 l 11 779 l 429 779 m 569 -94 q 451 -132 496 -94 q 406 -235 406 -169 q 448 -335 406 -296 q 550 -374 490 -374 l 544 -386 q 517 -423 539 -401 q 465 -460 496 -444 l 542 -553 q 672 -440 611 -524 q 733 -257 731 -358 q 689 -138 733 -182 q 569 -94 644 -94 "},"ț":{"ha":894,"x_min":7,"x_max":894,"o":"m 756 164 q 570 208 625 164 q 515 354 515 253 l 515 574 l 867 574 l 867 739 l 515 739 l 515 972 l 242 972 l 242 739 l 7 739 l 7 574 l 242 574 l 242 343 q 426 25 242 93 q 735 -14 539 -14 q 894 -3 799 -14 l 894 176 l 756 164 m 447 -94 q 328 -132 374 -94 q 283 -235 283 -169 q 326 -335 283 -296 q 428 -374 368 -374 l 422 -386 q 395 -423 417 -401 q 343 -460 374 -444 l 419 -553 q 550 -440 489 -524 q 611 -257 608 -358 q 567 -138 611 -182 q 447 -94 522 -94 "},"ȷ":{"ha":419,"x_min":46,"x_max":374,"o":"m 210 -94 q 91 -132 136 -94 q 46 -235 46 -169 q 88 -335 46 -296 q 190 -374 131 -374 l 185 -386 q 158 -423 179 -401 q 106 -460 136 -444 l 182 -553 q 313 -440 251 -524 q 374 -257 371 -358 q 329 -138 374 -182 q 210 -94 285 -94 "},"ˆ":{"ha":814,"x_min":46,"x_max":768,"o":"m 290 878 l 408 981 l 526 878 l 768 878 l 550 1078 l 264 1078 l 46 878 l 290 878 "},"ˇ":{"ha":814,"x_min":46,"x_max":768,"o":"m 550 878 l 768 1078 l 526 1078 l 408 975 l 290 1078 l 46 1078 l 264 878 l 550 878 "},"ˉ":{"ha":739,"x_min":46,"x_max":693,"o":"m 46 878 l 693 878 l 693 1033 l 46 1033 l 46 878 "},"˘":{"ha":651,"x_min":46,"x_max":606,"o":"m 450 1081 q 419 1022 450 1053 q 325 992 389 992 q 232 1022 263 992 q 200 1081 203 1051 l 46 1081 q 128 933 58 999 q 325 869 196 869 q 522 933 454 869 q 606 1081 593 997 l 450 1081 "},"˙":{"ha":349,"x_min":46,"x_max":303,"o":"m 174 869 q 268 897 233 869 q 303 975 303 925 q 268 1053 303 1025 q 175 1081 233 1081 q 81 1053 115 1081 q 46 975 46 1025 q 81 897 46 925 q 174 869 115 869 "},"˚":{"ha":539,"x_min":46,"x_max":493,"o":"m 269 1204 q 107 1159 168 1204 q 46 1036 46 1114 q 107 913 46 958 q 269 868 168 868 q 433 913 372 868 q 493 1036 493 958 q 433 1159 493 1114 q 269 1204 372 1204 m 330 1088 q 351 1035 351 1068 q 330 982 351 1001 q 271 963 308 963 q 211 982 233 963 q 189 1035 189 1001 q 211 1088 189 1069 q 271 1107 233 1107 q 319 1097 308 1107 q 330 1088 330 1088 "},"˛":{"ha":483,"x_min":46,"x_max":438,"o":"m 425 -225 q 335 -250 385 -250 q 258 -228 286 -250 q 231 -168 231 -207 q 276 -73 231 -119 q 386 0 321 -26 l 258 15 q 103 -56 160 0 q 46 -186 46 -112 q 107 -309 46 -267 q 265 -351 168 -351 q 436 -312 375 -351 l 438 -217 l 425 -225 "},"˜":{"ha":690,"x_min":46,"x_max":644,"o":"m 100 906 q 163 944 132 932 q 219 956 171 950 q 238 953 225 956 q 264 949 250 951 q 281 946 278 946 l 315 936 l 351 926 q 456 903 424 907 q 549 907 489 899 q 644 953 600 917 l 588 1122 q 468 1072 526 1072 q 435 1077 461 1072 q 407 1082 408 1082 q 336 1101 388 1085 q 232 1125 282 1117 q 140 1121 192 1131 q 46 1075 90 1111 l 100 906 "},"˝":{"ha":871,"x_min":46,"x_max":825,"o":"m 588 1078 l 389 878 l 626 878 l 825 1078 l 588 1078 m 244 1078 l 46 878 l 283 878 l 482 1078 l 244 1078 "},"Δ":{"ha":1294,"x_min":-4,"x_max":1299,"o":"m -4 0 l 1299 0 l 647 1001 l -4 0 m 933 183 l 929 178 l 361 178 l 357 183 l 643 643 l 649 643 l 933 183 "},"Ω":{"ha":1325,"x_min":46,"x_max":1279,"o":"m 1003 181 q 1206 331 1135 232 q 1278 561 1278 429 q 1108 883 1278 767 q 663 1001 940 1001 q 215 883 385 1001 q 46 561 46 767 q 117 331 46 429 q 321 181 189 232 l 321 172 l 46 172 l 46 0 l 569 0 l 569 185 q 392 287 457 208 q 326 481 326 365 q 417 707 326 625 q 663 789 507 789 q 908 707 818 789 q 997 481 997 625 q 933 287 997 365 q 756 185 868 208 l 756 0 l 1279 0 l 1278 172 l 1003 172 l 1003 181 "},"μ":{"ha":1285,"x_min":108,"x_max":1176,"o":"m 903 363 q 831 215 901 268 q 644 161 761 161 q 454 215 524 161 q 385 367 385 268 l 385 739 l 108 739 l 108 -279 l 383 -279 l 383 10 l 389 10 q 540 -14 451 -14 q 906 142 796 -14 l 913 142 l 931 0 l 1176 0 l 1176 739 l 903 739 l 903 363 "},"π":{"ha":1433,"x_min":46,"x_max":1388,"o":"m 519 0 l 519 574 l 892 574 l 892 335 q 943 117 892 210 q 1031 43 961 89 q 1153 10 1054 29 q 1225 3 1186 4 l 1303 0 l 1388 0 l 1388 175 q 1222 209 1278 175 q 1167 326 1167 243 l 1167 574 l 1367 574 l 1367 739 l 46 739 l 46 574 l 246 574 l 246 0 l 519 0 "},"Ẁ":{"ha":1772,"x_min":25,"x_max":1749,"o":"m 1242 308 l 1235 308 l 1024 972 l 749 972 l 539 308 l 532 308 l 322 972 l 25 972 l 326 0 l 683 0 l 883 604 l 890 604 l 1090 0 l 1447 0 l 1749 972 l 1450 972 l 1242 308 m 796 1089 l 982 1089 l 806 1289 l 497 1289 l 796 1089 "},"ẁ":{"ha":1607,"x_min":26,"x_max":1581,"o":"m 1122 246 l 1115 246 l 928 739 l 679 739 l 492 246 l 485 246 l 311 739 l 26 739 l 303 0 l 622 0 l 800 435 l 807 435 l 985 0 l 1304 0 l 1581 739 l 1296 739 l 1122 246 m 714 878 l 900 878 l 724 1078 l 415 1078 l 714 878 "},"Ẃ":{"ha":1772,"x_min":25,"x_max":1749,"o":"m 1242 308 l 1235 308 l 1024 972 l 749 972 l 539 308 l 532 308 l 322 972 l 25 972 l 326 0 l 683 0 l 883 604 l 890 604 l 1090 0 l 1447 0 l 1749 972 l 1450 972 l 1242 308 m 790 1089 l 976 1089 l 1275 1289 l 967 1289 l 790 1089 "},"ẃ":{"ha":1607,"x_min":26,"x_max":1581,"o":"m 1122 246 l 1115 246 l 928 739 l 679 739 l 492 246 l 485 246 l 311 739 l 26 739 l 303 0 l 622 0 l 800 435 l 807 435 l 985 0 l 1304 0 l 1581 739 l 1296 739 l 1122 246 m 697 878 l 883 878 l 1182 1078 l 874 1078 l 697 878 "},"Ẅ":{"ha":1772,"x_min":25,"x_max":1749,"o":"m 1242 308 l 1235 308 l 1024 972 l 749 972 l 539 308 l 532 308 l 322 972 l 25 972 l 326 0 l 683 0 l 883 604 l 890 604 l 1090 0 l 1447 0 l 1749 972 l 1450 972 l 1242 308 m 706 1293 q 611 1265 646 1293 q 576 1188 576 1238 q 611 1110 576 1138 q 704 1082 646 1082 q 799 1110 764 1082 q 833 1188 833 1138 q 799 1265 833 1238 q 706 1293 764 1293 m 1068 1082 q 1161 1110 1126 1082 q 1196 1188 1196 1138 q 1161 1265 1196 1238 q 1068 1293 1126 1293 q 974 1265 1008 1293 q 939 1188 939 1238 q 974 1110 939 1138 q 1068 1082 1008 1082 "},"ẅ":{"ha":1607,"x_min":26,"x_max":1581,"o":"m 1122 246 l 1115 246 l 928 739 l 679 739 l 492 246 l 485 246 l 311 739 l 26 739 l 303 0 l 622 0 l 800 435 l 807 435 l 985 0 l 1304 0 l 1581 739 l 1296 739 l 1122 246 m 622 1082 q 528 1054 563 1082 q 493 976 493 1026 q 528 899 493 926 q 621 871 563 871 q 715 899 681 871 q 750 976 750 926 q 715 1054 750 1026 q 622 1082 681 1082 m 985 871 q 1078 899 1043 871 q 1113 976 1113 926 q 1078 1054 1113 1026 q 985 1082 1043 1082 q 890 1054 925 1082 q 856 976 856 1026 q 890 899 856 926 q 985 871 925 871 "},"Ỳ":{"ha":1364,"x_min":10,"x_max":1354,"o":"m 822 344 l 1354 972 l 1043 972 l 686 554 l 679 554 l 322 972 l 10 972 l 542 346 l 542 0 l 822 0 l 822 344 m 590 1111 l 776 1111 l 600 1311 l 292 1311 l 590 1111 "},"ỳ":{"ha":1171,"x_min":14,"x_max":1157,"o":"m 608 281 l 601 281 l 322 739 l 14 739 l 479 32 l 318 -279 l 596 -279 l 1157 739 l 850 739 l 608 281 m 519 878 l 706 878 l 529 1078 l 221 1078 l 519 878 "},"–":{"ha":871,"x_min":46,"x_max":825,"o":"m 825 390 l 825 582 l 46 582 l 46 390 l 825 390 "},"—":{"ha":899,"x_min":46,"x_max":853,"o":"m 853 390 l 853 582 l 46 582 l 46 390 l 853 390 "},"‘":{"ha":419,"x_min":46,"x_max":374,"o":"m 210 528 q 328 565 283 528 q 374 668 374 603 q 331 768 374 729 q 229 807 289 807 l 235 819 q 262 856 240 835 q 314 893 283 878 l 238 986 q 106 872 165 957 q 46 690 46 790 q 90 572 46 615 q 210 528 135 528 "},"’":{"ha":419,"x_min":46,"x_max":374,"o":"m 210 986 q 91 949 136 986 q 46 846 46 911 q 88 746 46 785 q 190 707 131 707 l 185 694 q 158 658 179 679 q 106 621 136 636 l 182 528 q 313 640 251 557 q 374 824 371 722 q 329 942 374 899 q 210 986 285 986 "},"‚":{"ha":419,"x_min":46,"x_max":374,"o":"m 210 265 q 91 228 136 265 q 46 125 46 190 q 88 25 46 64 q 190 -14 131 -14 l 185 -28 q 157 -63 179 -42 q 106 -100 135 -85 l 182 -193 q 313 -81 251 -164 q 374 103 371 1 q 329 222 374 178 q 210 265 285 265 "},"“":{"ha":828,"x_min":46,"x_max":782,"o":"m 618 528 q 737 565 692 528 q 782 668 782 603 q 740 768 782 729 q 638 807 697 807 l 643 819 q 670 856 649 835 q 722 893 692 878 l 646 986 q 515 874 576 957 q 454 690 457 792 q 499 572 454 615 q 618 528 543 528 m 210 528 q 328 565 283 528 q 374 668 374 603 q 331 768 374 729 q 229 807 289 807 l 235 819 q 262 856 240 835 q 314 893 283 878 l 238 986 q 106 872 165 957 q 46 690 46 790 q 90 572 46 615 q 210 528 135 528 "},"”":{"ha":828,"x_min":46,"x_max":782,"o":"m 210 986 q 91 949 136 986 q 46 846 46 911 q 88 746 46 785 q 190 707 131 707 l 185 694 q 158 658 179 679 q 106 621 136 636 l 182 528 q 313 640 251 557 q 374 824 371 722 q 329 942 374 899 q 210 986 285 986 m 618 986 q 499 949 544 986 q 454 846 454 911 q 497 746 454 785 q 599 707 539 707 l 593 694 q 566 658 588 679 q 514 621 544 636 l 590 528 q 722 640 661 556 q 782 824 782 725 q 738 942 782 899 q 618 986 693 986 "},"„":{"ha":828,"x_min":46,"x_max":782,"o":"m 210 265 q 91 228 136 265 q 46 125 46 190 q 88 25 46 64 q 190 -14 131 -14 l 185 -28 q 157 -63 179 -42 q 106 -100 135 -85 l 182 -193 q 313 -81 251 -164 q 374 103 371 1 q 329 222 374 178 q 210 265 285 265 m 618 265 q 499 228 544 265 q 454 125 454 190 q 497 25 454 64 q 599 -14 539 -14 l 593 -28 q 565 -63 588 -42 q 514 -100 543 -85 l 590 -193 q 722 -79 663 -164 q 782 103 782 3 q 738 222 782 178 q 618 265 693 265 "},"†":{"ha":839,"x_min":46,"x_max":793,"o":"m 318 738 l 46 738 l 46 581 l 318 581 l 318 0 l 521 0 l 521 581 l 793 581 l 793 738 l 521 738 l 521 972 l 318 972 l 318 738 "},"‡":{"ha":839,"x_min":46,"x_max":793,"o":"m 318 738 l 46 738 l 46 581 l 318 581 l 318 392 l 46 392 l 46 235 l 318 235 l 318 0 l 521 0 l 521 235 l 793 235 l 793 392 l 521 392 l 521 581 l 793 581 l 793 738 l 521 738 l 521 972 l 318 972 l 318 738 "},"•":{"ha":421,"x_min":46,"x_max":375,"o":"m 210 639 q 92 596 139 639 q 46 486 46 553 q 92 376 46 419 q 210 333 139 333 q 326 376 282 333 q 374 486 374 419 q 328 596 375 553 q 210 639 282 639 "},"…":{"ha":1340,"x_min":46,"x_max":1294,"o":"m 210 268 q 91 231 136 268 q 46 128 46 193 q 91 24 46 63 q 210 -14 136 -14 q 328 24 283 -14 q 374 126 374 61 q 330 229 375 192 q 210 268 285 267 m 669 268 q 551 231 596 268 q 506 128 506 193 q 551 24 506 63 q 669 -14 596 -14 q 788 24 743 -14 q 833 126 833 61 q 790 229 835 192 q 669 268 744 267 m 1129 268 q 1010 231 1056 268 q 965 128 965 193 q 1010 24 965 63 q 1129 -14 1056 -14 q 1248 24 1203 -14 q 1293 126 1293 61 q 1249 229 1294 192 q 1129 268 1204 267 "},"‰":{"ha":2076,"x_min":46,"x_max":2031,"o":"m 1379 244 q 1300 431 1379 357 q 1104 503 1224 503 q 907 431 985 503 q 829 244 829 357 q 907 58 829 132 q 1104 -14 985 -14 q 1300 58 1224 -14 q 1379 244 1379 131 m 2031 244 q 1951 431 2031 357 q 1756 503 1875 503 q 1558 431 1636 503 q 1481 244 1481 357 q 1558 58 1481 132 q 1756 -14 1636 -14 q 1951 58 1875 -14 q 2031 244 2031 131 m 596 728 q 517 913 596 839 q 321 986 439 986 q 124 913 204 986 q 46 728 46 839 q 124 542 46 615 q 321 469 201 469 q 517 542 440 469 q 596 728 596 614 m 1086 972 l 864 972 l 338 0 l 560 0 l 1086 972 m 1018 164 q 983 244 983 194 q 1018 326 983 296 q 1104 358 1053 358 q 1190 326 1156 358 q 1225 244 1225 294 q 1190 163 1225 194 q 1103 132 1156 132 q 1018 164 1051 132 m 235 810 q 322 840 269 840 q 407 808 374 840 q 442 728 442 778 q 407 646 442 676 q 321 614 372 614 q 235 646 269 614 q 200 728 200 678 q 235 810 200 778 m 1669 164 q 1635 244 1635 194 q 1669 326 1635 296 q 1756 358 1704 358 q 1842 326 1807 358 q 1876 244 1876 294 q 1842 163 1876 194 q 1755 132 1807 132 q 1669 164 1703 132 "},"‹":{"ha":611,"x_min":46,"x_max":565,"o":"m 46 486 l 332 111 l 565 111 l 275 483 l 275 489 l 565 861 l 332 861 l 46 486 "},"›":{"ha":611,"x_min":46,"x_max":565,"o":"m 46 861 l 336 489 l 336 483 l 46 111 l 279 111 l 565 486 l 279 861 l 46 861 "},"⁄":{"ha":457,"x_min":-246,"x_max":717,"o":"m 717 972 l 476 972 l -246 0 l -4 0 l 717 972 "},"⁰":{"ha":811,"x_min":46,"x_max":765,"o":"m 406 558 q 275 606 324 558 q 226 736 226 653 q 275 868 226 821 q 406 915 324 915 q 535 868 486 915 q 583 736 583 821 q 535 606 583 653 q 406 558 486 558 m 670 956 q 406 1036 575 1036 q 141 956 236 1036 q 46 736 46 875 q 141 517 46 597 q 406 438 236 438 q 670 517 575 438 q 765 736 765 597 q 718 915 765 875 q 670 956 670 956 "},"⁴":{"ha":825,"x_min":46,"x_max":779,"o":"m 236 678 l 236 682 l 483 872 l 488 872 l 488 678 l 236 678 m 667 1028 l 500 1026 l 46 661 l 46 558 l 488 558 l 488 446 l 667 446 l 667 558 l 779 558 l 779 678 l 667 678 l 667 1028 "},"⁵":{"ha":756,"x_min":46,"x_max":710,"o":"m 665 1028 l 57 1028 l 57 725 l 126 692 q 217 707 149 699 q 343 717 285 717 q 529 640 529 717 q 476 581 529 603 q 342 558 422 558 q 206 569 283 558 q 94 590 133 581 q 46 607 54 601 l 46 481 q 233 447 58 472 q 367 438 306 438 q 620 491 531 438 q 710 639 710 544 q 635 782 710 735 q 451 831 558 831 q 215 786 315 831 q 213 788 214 786 l 213 906 l 665 907 l 665 1028 "},"⁶":{"ha":813,"x_min":44,"x_max":767,"o":"m 475 918 q 700 879 585 918 l 700 1004 q 458 1036 601 1036 q 163 951 281 1036 q 47 732 44 868 q 148 516 47 594 q 422 438 249 438 q 590 459 515 438 q 715 529 665 481 q 767 647 765 578 q 683 783 767 735 q 454 832 600 832 q 239 778 318 832 l 236 781 q 308 881 243 844 q 475 918 374 918 m 413 736 q 588 653 588 736 q 541 586 588 611 q 414 561 494 561 q 288 588 336 561 q 239 654 239 615 q 292 714 239 690 q 413 736 342 736 "},"⁷":{"ha":700,"x_min":46,"x_max":654,"o":"m 46 908 l 447 908 l 447 904 l 117 446 l 318 446 l 654 925 l 654 1028 l 46 1028 l 46 908 "},"⁸":{"ha":808,"x_min":46,"x_max":763,"o":"m 46 608 q 142 482 46 526 q 404 438 238 438 q 667 482 572 438 q 763 608 763 526 q 604 751 763 711 l 604 756 q 738 882 738 794 q 648 994 738 953 q 404 1036 558 1035 q 160 996 250 1036 q 71 882 71 956 q 204 757 71 792 l 204 751 q 46 608 46 711 m 588 628 q 538 571 588 593 q 404 549 488 549 q 270 571 319 549 q 221 629 221 593 q 270 687 221 665 q 404 708 319 708 q 538 686 489 708 q 588 628 588 664 m 247 860 q 290 907 247 889 q 404 925 333 925 q 518 907 476 925 q 539 896 529 903 q 549 833 581 868 q 404 793 507 789 q 291 811 335 793 q 247 860 247 829 "},"⁹":{"ha":813,"x_min":46,"x_max":767,"o":"m 338 556 q 113 594 228 556 l 113 469 q 354 438 211 438 q 649 521 532 438 q 765 742 767 606 q 665 958 765 879 q 390 1036 564 1036 q 222 1015 297 1036 q 97 944 147 993 q 46 826 47 896 q 129 690 46 739 q 358 642 213 642 q 574 696 494 642 l 576 693 q 504 592 569 629 q 338 556 439 556 m 400 738 q 225 821 225 738 q 272 888 225 863 q 399 913 318 913 q 525 885 476 913 q 574 819 574 858 q 521 760 574 783 q 400 738 471 738 "},"₀":{"ha":811,"x_min":46,"x_max":765,"o":"m 406 57 q 275 104 324 57 q 226 235 226 151 q 275 367 226 319 q 406 414 324 414 q 535 367 486 414 q 583 235 583 319 q 535 104 583 151 q 406 57 486 57 m 670 454 q 406 535 575 535 q 141 454 236 535 q 46 235 46 374 q 141 16 46 96 q 406 -64 236 -64 q 670 16 575 -64 q 765 235 765 96 q 718 414 765 374 q 670 454 670 454 "},"₁":{"ha":407,"x_min":46,"x_max":361,"o":"m 192 526 q 150 438 190 469 q 46 406 110 406 l 47 294 q 179 318 125 294 l 183 318 l 183 -56 l 361 -56 l 361 526 l 192 526 "},"₂":{"ha":729,"x_min":26,"x_max":683,"o":"m 238 64 q 276 133 236 110 q 406 172 315 156 q 479 186 460 182 q 547 208 493 189 q 614 240 589 222 q 674 353 674 285 q 350 535 674 535 q 219 524 308 535 q 106 506 154 515 l 106 378 l 133 386 q 328 413 222 413 q 497 354 497 413 q 488 331 497 340 q 322 279 461 300 q 93 163 160 251 q 56 -56 26 74 l 683 -56 l 683 64 l 238 64 "},"₃":{"ha":726,"x_min":46,"x_max":681,"o":"m 531 256 q 651 385 651 294 q 306 535 651 533 q 74 515 163 535 l 74 399 q 286 422 168 422 q 475 361 475 422 q 289 293 475 296 l 146 293 l 146 196 q 319 201 194 201 q 501 128 501 197 q 444 69 501 90 q 282 49 386 49 q 153 58 222 49 q 46 79 79 69 l 46 -42 q 306 -64 133 -64 q 583 -19 485 -64 q 681 111 681 25 q 531 251 681 211 l 531 256 "},"₄":{"ha":825,"x_min":46,"x_max":779,"o":"m 236 176 l 236 181 l 483 371 l 488 371 l 488 176 l 236 176 m 667 526 l 500 525 l 46 160 l 46 57 l 488 57 l 488 -56 l 667 -56 l 667 57 l 779 57 l 779 176 l 667 176 l 667 526 "},"₅":{"ha":756,"x_min":46,"x_max":710,"o":"m 665 526 l 57 526 l 57 224 l 126 190 q 217 206 149 197 q 343 215 285 215 q 529 139 529 215 q 476 79 529 101 q 342 57 422 57 q 206 68 283 57 q 94 89 133 79 q 46 106 54 100 l 46 -21 q 233 -53 65 -33 q 367 -64 315 -64 q 620 -10 531 -64 q 710 138 710 43 q 635 281 710 233 q 451 329 558 329 q 215 285 315 329 q 213 286 214 285 l 213 404 l 665 406 l 665 526 "},"₆":{"ha":813,"x_min":44,"x_max":767,"o":"m 475 417 q 700 378 585 417 l 700 503 q 458 535 601 535 q 163 450 281 535 q 47 231 44 367 q 148 15 47 93 q 422 -64 249 -64 q 590 -42 515 -64 q 715 28 665 -21 q 767 146 765 76 q 683 282 767 233 q 454 331 600 331 q 239 276 318 331 l 236 279 q 308 380 243 343 q 475 417 374 417 m 413 235 q 588 151 588 235 q 541 85 588 110 q 414 60 494 60 q 288 87 336 60 q 239 153 239 114 q 292 213 239 189 q 413 235 342 235 "},"₇":{"ha":700,"x_min":46,"x_max":654,"o":"m 46 407 l 447 407 l 447 403 l 117 -56 l 318 -56 l 654 424 l 654 526 l 46 526 l 46 407 "},"₈":{"ha":808,"x_min":46,"x_max":763,"o":"m 46 107 q 142 -19 46 25 q 404 -64 238 -64 q 667 -19 572 -64 q 763 107 763 25 q 604 250 763 211 l 604 254 q 738 381 738 294 q 648 492 738 451 q 404 535 558 533 q 160 494 250 535 q 71 381 71 454 q 204 256 71 292 l 204 250 q 46 107 46 211 m 588 126 q 538 69 588 92 q 404 47 488 47 q 270 69 319 47 q 221 128 221 92 q 270 185 221 164 q 404 207 319 207 q 538 185 489 207 q 588 126 588 163 m 247 358 q 290 406 247 388 q 404 424 333 424 q 518 406 476 424 q 539 394 529 401 q 549 332 581 367 q 404 292 507 288 q 291 310 335 292 q 247 358 247 328 "},"₉":{"ha":813,"x_min":46,"x_max":767,"o":"m 338 54 q 113 93 228 54 l 113 -32 q 354 -64 211 -64 q 649 19 532 -64 q 765 240 767 106 q 665 456 765 378 q 390 535 564 535 q 222 513 297 535 q 97 443 147 492 q 46 325 47 394 q 129 189 46 238 q 358 140 213 140 q 574 194 494 140 l 576 192 q 504 91 569 128 q 338 54 439 54 m 400 236 q 225 319 225 236 q 272 386 225 361 q 399 411 318 411 q 525 384 476 411 q 574 318 574 357 q 521 258 574 282 q 400 236 471 236 "},"₣":{"ha":1533,"x_min":46,"x_max":1488,"o":"m 644 0 l 644 147 l 1000 147 l 1000 253 l 644 253 l 644 378 l 1394 378 l 1394 551 l 644 551 l 644 779 l 1488 779 l 1488 972 l 364 972 l 364 253 l 46 253 l 46 147 l 364 147 l 364 0 l 644 0 "},"₤":{"ha":1261,"x_min":46,"x_max":1215,"o":"m 118 0 l 1215 0 l 1215 193 l 460 193 l 460 204 q 536 338 517 256 l 1110 338 l 1110 436 l 540 436 l 540 514 l 1110 514 l 1110 613 l 540 613 l 540 679 q 602 769 540 735 q 778 804 664 804 q 981 783 876 804 q 1121 751 1082 765 q 1176 731 1163 736 l 1176 919 l 1131 936 q 986 969 1088 953 q 778 986 889 986 q 400 913 539 986 q 264 713 264 839 l 264 613 l 46 613 l 46 514 l 264 514 l 264 436 l 46 436 l 46 338 l 264 338 l 264 321 q 218 219 264 263 q 118 178 172 178 l 118 0 "},"₧":{"ha":1785,"x_min":46,"x_max":1739,"o":"m 1492 643 q 1351 887 1475 801 q 994 972 1226 972 l 331 972 l 331 643 l 46 643 l 46 546 l 331 546 l 331 0 l 611 0 l 611 221 l 994 221 q 1350 306 1225 221 q 1492 546 1475 390 l 1739 546 l 1739 643 l 1492 643 m 993 781 q 1143 746 1083 781 q 1219 650 1203 711 l 1219 643 l 611 643 l 611 781 l 993 781 m 611 414 l 611 546 l 1219 546 l 1219 540 q 1140 447 1200 481 q 993 414 1081 414 l 611 414 "},"₨":{"ha":1176,"x_min":46,"x_max":1131,"o":"m 1131 881 l 46 881 l 46 742 l 482 742 q 728 628 693 735 l 728 619 l 46 619 l 46 489 l 728 489 l 728 482 q 457 363 690 363 l 46 363 l 46 228 l 486 229 l 743 0 l 957 0 l 679 250 l 679 258 q 921 489 885 314 l 1131 489 l 1131 619 l 921 619 q 857 742 913 692 l 857 750 l 1131 750 l 1131 881 "},"€":{"ha":1454,"x_min":46,"x_max":1408,"o":"m 949 -14 q 1200 8 1072 -14 q 1408 67 1331 31 l 1407 303 q 1228 213 1354 247 q 974 178 1103 178 q 716 222 824 178 q 560 349 608 265 l 1096 349 l 1096 447 l 524 447 q 522 525 517 496 l 1096 525 l 1096 625 l 565 625 q 719 751 611 707 q 974 794 826 794 q 1215 760 1094 794 q 1386 676 1339 726 l 1386 911 q 1188 965 1310 944 q 949 986 1067 986 q 482 892 657 986 q 257 625 307 799 l 46 625 l 46 525 l 240 525 q 240 447 235 478 l 46 447 l 46 349 l 257 349 q 479 79 304 172 q 949 -14 654 -14 "},"ℓ":{"ha":832,"x_min":46,"x_max":788,"o":"m 503 1017 q 244 860 293 1011 q 222 724 222 794 l 222 399 l 46 324 l 94 193 l 219 246 l 225 243 q 346 32 242 88 q 535 -14 436 -14 q 722 18 643 -14 l 721 197 l 700 186 q 538 153 643 153 q 442 196 468 153 q 419 322 419 231 l 489 351 q 785 744 775 475 q 767 853 788 793 q 725 931 751 897 q 638 992 697 967 q 503 1017 578 1017 m 419 488 q 418 696 418 519 q 501 849 418 849 q 585 729 585 849 q 547 593 585 650 q 425 485 508 536 l 419 488 "},"™":{"ha":1101,"x_min":22,"x_max":1079,"o":"m 801 768 l 794 768 l 682 972 l 517 972 l 517 639 l 636 639 l 636 847 l 644 847 l 761 639 l 835 639 l 951 847 l 960 847 l 960 639 l 1079 639 l 1079 972 l 914 972 l 801 768 m 22 888 l 181 888 l 181 639 l 306 639 l 306 888 l 465 888 l 464 972 l 22 972 l 22 888 "},"Ω":{"ha":1325,"x_min":46,"x_max":1279,"o":"m 1003 181 q 1206 331 1135 232 q 1278 561 1278 429 q 1108 883 1278 767 q 663 1001 940 1001 q 215 883 385 1001 q 46 561 46 767 q 117 331 46 429 q 321 181 189 232 l 321 172 l 46 172 l 46 0 l 569 0 l 569 185 q 392 287 457 208 q 326 481 326 365 q 417 707 326 625 q 663 789 507 789 q 908 707 818 789 q 997 481 997 625 q 933 287 997 365 q 756 185 868 208 l 756 0 l 1279 0 l 1278 172 l 1003 172 l 1003 181 "},"℮":{"ha":1243,"x_min":46,"x_max":1197,"o":"m 621 918 q 919 835 804 917 l 921 569 l 324 568 l 324 835 q 621 918 444 918 m 624 53 q 325 135 444 53 l 324 485 l 1197 488 q 1043 864 1197 725 q 621 1001 890 1004 q 199 861 349 999 q 47 485 46 721 q 200 108 47 249 q 621 -29 353 -29 q 951 44 813 -29 q 1151 250 1089 117 l 1065 297 q 899 119 1017 185 q 624 53 781 54 "},"←":{"ha":742,"x_min":46,"x_max":696,"o":"m 376 263 l 201 436 l 201 443 l 696 443 l 696 528 l 201 528 l 201 536 l 376 710 l 269 710 l 46 486 l 269 263 l 376 263 "},"↑":{"ha":539,"x_min":46,"x_max":493,"o":"m 46 588 l 46 481 l 219 656 l 226 656 l 226 161 l 311 161 l 311 656 l 319 656 l 493 481 l 493 588 l 269 811 l 46 588 "},"→":{"ha":742,"x_min":46,"x_max":696,"o":"m 365 710 l 540 536 l 540 528 l 46 528 l 46 443 l 540 443 l 540 436 l 365 263 l 472 263 l 696 486 l 472 710 l 365 710 "},"↓":{"ha":539,"x_min":46,"x_max":493,"o":"m 493 492 l 319 317 l 311 317 l 311 811 l 226 811 l 226 317 l 219 317 l 46 492 l 46 385 l 269 161 l 493 385 l 493 492 "},"↔":{"ha":961,"x_min":46,"x_max":915,"o":"m 583 710 l 758 536 l 758 528 l 203 528 l 203 536 l 378 710 l 271 710 l 46 486 l 271 263 l 378 263 l 203 436 l 203 443 l 758 443 l 758 436 l 583 263 l 690 263 l 915 486 l 690 710 l 583 710 "},"↕":{"ha":539,"x_min":46,"x_max":493,"o":"m 493 383 l 319 208 l 311 208 l 311 764 l 319 764 l 493 589 l 493 696 l 269 921 l 46 696 l 46 589 l 219 764 l 226 764 l 226 208 l 219 208 l 46 383 l 46 276 l 269 51 l 493 276 l 493 383 "},"↖":{"ha":581,"x_min":46,"x_max":535,"o":"m 121 339 l 121 586 l 126 590 l 475 242 l 535 301 l 186 650 l 190 656 l 438 656 l 363 731 l 46 731 l 46 414 l 121 339 "},"↗":{"ha":581,"x_min":46,"x_max":535,"o":"m 218 731 l 143 656 l 390 656 l 394 650 l 46 301 l 106 242 l 454 590 l 460 586 l 460 339 l 535 414 l 535 731 l 218 731 "},"↘":{"ha":581,"x_min":46,"x_max":535,"o":"m 460 633 l 460 386 l 454 382 l 106 731 l 46 671 l 394 322 l 390 317 l 143 317 l 218 242 l 535 242 l 535 558 l 460 633 "},"↙":{"ha":581,"x_min":46,"x_max":535,"o":"m 438 317 l 190 317 l 186 322 l 535 671 l 475 731 l 126 382 l 121 386 l 121 633 l 46 558 l 46 242 l 363 242 l 438 317 "},"∂":{"ha":1118,"x_min":44,"x_max":1072,"o":"m 536 -14 q 925 118 781 -17 q 1072 492 1069 251 q 854 889 1072 729 q 244 1053 636 1050 l 244 850 q 615 781 465 850 q 799 583 765 713 l 793 579 q 492 665 688 665 q 164 581 283 665 q 44 346 44 494 q 117 142 44 226 q 297 22 189 58 q 536 -14 404 -14 m 547 186 q 358 233 428 186 q 288 354 288 279 q 356 467 288 428 q 544 508 425 507 q 728 467 647 508 q 810 356 810 426 q 738 238 810 289 q 547 186 668 189 "},"∆":{"ha":1294,"x_min":-4,"x_max":1299,"o":"m -4 0 l 1299 0 l 647 1001 l -4 0 m 933 183 l 929 178 l 361 178 l 357 183 l 643 643 l 649 643 l 933 183 "},"∏":{"ha":1235,"x_min":129,"x_max":1106,"o":"m 400 -181 l 400 771 l 835 771 l 833 -181 l 1106 -181 l 1104 972 l 131 972 l 129 -181 l 400 -181 "},"∑":{"ha":1104,"x_min":46,"x_max":1058,"o":"m 1058 972 l 46 972 l 46 743 l 476 407 l 476 401 l 46 67 l 46 -181 l 1058 -181 l 1058 19 l 400 21 l 400 28 l 853 404 l 413 764 l 413 772 l 1058 771 l 1058 972 "},"−":{"ha":843,"x_min":46,"x_max":797,"o":"m 797 390 l 797 582 l 46 582 l 46 390 l 797 390 "},"∕":{"ha":897,"x_min":46,"x_max":851,"o":"m 851 972 l 572 972 l 46 0 l 325 0 l 851 972 "},"∙":{"ha":421,"x_min":46,"x_max":375,"o":"m 210 639 q 92 596 139 639 q 46 486 46 553 q 92 376 46 419 q 210 333 139 333 q 326 376 282 333 q 374 486 374 419 q 328 596 375 553 q 210 639 282 639 "},"√":{"ha":1117,"x_min":46,"x_max":1071,"o":"m 499 60 l 492 60 l 390 422 l 46 422 l 46 233 l 214 233 l 340 -181 l 699 -181 l 1071 972 l 793 972 l 499 60 "},"∞":{"ha":1467,"x_min":46,"x_max":1421,"o":"m 1074 790 q 736 608 910 790 l 731 608 q 393 790 556 790 q 140 709 233 790 q 46 486 46 628 q 140 263 46 344 q 393 182 233 182 q 731 364 556 182 l 736 364 q 1074 182 910 182 q 1327 263 1233 182 q 1421 486 1421 344 q 1327 709 1421 628 q 1074 790 1233 790 m 1058 339 q 838 483 946 339 l 838 489 q 1058 633 946 633 q 1175 593 1131 633 q 1219 486 1219 553 q 1175 379 1219 419 q 1058 339 1131 339 m 407 339 q 292 379 336 339 q 247 486 247 419 q 292 593 247 553 q 407 633 336 633 q 558 565 490 633 q 628 489 607 519 l 628 483 q 558 406 608 453 q 407 339 489 339 "},"∫":{"ha":715,"x_min":46,"x_max":669,"o":"m 221 272 q 46 93 221 106 l 46 -67 q 396 11 300 -64 q 494 272 494 89 l 494 647 q 669 826 494 814 l 669 986 q 321 907 421 983 q 221 647 221 831 l 221 272 "},"≈":{"ha":1011,"x_min":46,"x_max":965,"o":"m 965 781 q 596 750 815 710 l 414 783 q 46 754 197 824 l 46 554 q 414 586 197 625 q 596 554 485 575 q 965 581 818 514 l 965 781 m 965 415 q 596 385 815 344 l 414 418 q 46 390 194 458 l 46 190 q 414 222 197 261 q 596 190 485 211 q 965 217 818 150 l 965 415 "},"≠":{"ha":1036,"x_min":46,"x_max":990,"o":"m 990 769 l 799 769 l 796 775 l 900 921 l 817 983 l 660 769 l 46 769 l 46 576 l 507 576 l 510 571 l 392 399 l 46 399 l 46 203 l 236 203 l 240 197 l 135 51 l 219 -11 l 375 203 l 990 203 l 990 399 l 531 399 l 528 404 l 646 576 l 990 576 l 990 769 "},"≤":{"ha":835,"x_min":46,"x_max":789,"o":"m 46 424 l 789 239 l 789 425 l 283 532 l 283 540 l 789 646 l 789 833 l 46 649 l 46 424 m 46 0 l 789 0 l 789 181 l 46 181 l 46 0 "},"≥":{"ha":835,"x_min":46,"x_max":789,"o":"m 46 646 l 551 540 l 551 532 l 46 425 l 46 239 l 789 424 l 789 649 l 46 833 l 46 646 m 46 0 l 789 0 l 789 181 l 46 181 l 46 0 "},"◇":{"ha":1333,"x_min":46,"x_max":1288,"o":"m 46 486 l 667 71 l 1288 486 l 667 901 l 46 486 m 667 786 l 1115 486 l 667 186 l 218 486 l 667 786 "},"◊":{"ha":1028,"x_min":46,"x_max":982,"o":"m 46 494 l 382 0 l 646 0 l 982 494 l 646 972 l 382 972 l 46 494 m 319 494 l 514 778 l 708 494 l 514 201 l 319 494 "},"☜":{"ha":1047,"x_min":46,"x_max":1001,"o":"m 444 218 q 393 340 436 283 q 282 435 350 397 l 282 444 l 1001 444 l 1001 528 l 282 528 l 282 536 q 444 754 428 619 l 351 754 q 243 592 333 656 q 46 524 154 531 l 46 449 q 243 379 156 442 q 351 218 332 317 l 444 218 "},"☝":{"ha":628,"x_min":46,"x_max":582,"o":"m 46 565 q 168 617 111 574 q 263 728 225 660 l 272 728 l 272 8 l 356 8 l 356 728 l 364 728 q 582 565 447 582 l 582 658 q 419 767 483 678 q 351 964 358 856 l 276 964 q 207 767 269 854 q 46 658 144 678 l 46 565 "},"☞":{"ha":1047,"x_min":46,"x_max":1001,"o":"m 603 754 q 765 536 619 619 l 765 528 l 46 528 l 46 444 l 765 444 l 765 435 q 654 340 697 397 q 603 218 611 283 l 696 218 q 804 379 715 317 q 1001 449 892 442 l 1001 524 q 804 592 893 531 q 696 754 714 656 l 603 754 "},"☟":{"ha":628,"x_min":46,"x_max":582,"o":"m 46 314 q 207 206 144 294 q 276 8 269 118 l 351 8 q 419 206 358 117 q 582 314 483 294 l 582 407 q 364 244 447 390 l 356 244 l 356 964 l 272 964 l 272 244 l 263 244 q 168 356 225 313 q 46 407 111 399 l 46 314 "},"☯":{"ha":1119,"x_min":46,"x_max":1074,"o":"m 193 840 q 46 486 46 697 q 192 131 46 276 q 560 -14 340 -14 q 926 131 779 -14 q 1074 486 1074 276 q 926 840 1074 697 q 560 986 781 986 q 193 840 339 986 m 549 213 q 501 240 515 213 q 501 294 488 267 q 549 321 515 321 q 595 294 582 322 q 595 239 608 267 q 549 213 582 211 m 611 58 q 723 136 679 78 q 767 267 767 194 q 703 421 767 357 q 549 485 639 485 q 394 549 458 485 q 331 703 331 613 q 374 834 331 776 q 485 911 417 892 q 560 917 514 917 q 876 792 751 917 q 1003 486 1003 667 q 893 196 1003 318 q 611 58 782 75 m 549 649 q 595 675 582 647 q 595 731 608 703 q 549 757 582 758 q 510 741 526 757 q 494 703 494 725 q 510 665 494 681 q 549 649 525 649 "},"☺":{"ha":1119,"x_min":46,"x_max":1074,"o":"m 193 840 q 46 486 46 697 q 192 131 46 276 q 560 -14 340 -14 q 926 131 779 -14 q 1074 486 1074 276 q 926 840 1074 697 q 560 986 781 986 q 193 840 339 986 m 242 181 q 117 486 117 306 q 242 792 117 667 q 560 917 368 917 q 876 792 751 917 q 1003 486 1003 667 q 876 181 1003 306 q 560 56 751 56 q 242 181 368 56 m 808 482 q 738 310 808 381 q 560 240 665 240 q 382 310 454 240 q 311 482 311 381 l 246 482 q 335 265 246 354 q 560 176 424 176 q 783 265 694 176 q 874 482 874 356 l 808 482 m 496 611 q 483 676 496 649 q 453 703 471 703 q 422 676 435 703 q 410 611 410 649 q 422 546 410 572 q 453 519 435 519 q 483 546 471 519 q 496 611 496 572 m 708 611 q 697 676 708 649 q 667 703 685 703 q 636 676 649 703 q 624 611 624 649 q 636 546 624 572 q 667 519 649 519 q 697 546 685 519 q 708 611 708 572 "},"✓":{"ha":861,"x_min":46,"x_max":815,"o":"m 403 122 q 497 389 439 258 q 603 593 550 508 q 708 738 657 676 q 783 822 761 800 l 815 850 l 606 850 q 483 700 543 792 q 390 519 425 607 q 307 275 325 358 l 299 275 l 190 493 l 46 493 l 238 122 l 403 122 "},"✕":{"ha":778,"x_min":46,"x_max":732,"o":"m 581 850 l 426 635 l 418 635 l 343 850 l 190 850 l 318 493 l 46 122 l 199 122 l 361 350 l 369 350 l 451 122 l 603 122 l 469 493 l 732 850 l 581 850 "},"➀":{"ha":1119,"x_min":46,"x_max":1074,"o":"m 193 840 q 46 486 46 697 q 192 131 46 276 q 560 -14 340 -14 q 926 131 779 -14 q 1074 486 1074 276 q 926 840 1074 697 q 560 986 781 986 q 193 840 339 986 m 242 181 q 117 486 117 306 q 242 792 117 667 q 560 917 368 917 q 876 792 751 917 q 1003 486 1003 667 q 876 181 1003 306 q 560 56 751 56 q 242 181 368 56 m 529 738 q 493 661 528 689 q 404 633 458 633 l 404 536 q 519 557 472 536 l 522 557 l 522 235 l 676 235 l 676 738 l 529 738 "},"➁":{"ha":1119,"x_min":46,"x_max":1074,"o":"m 193 840 q 46 486 46 697 q 192 131 46 276 q 560 -14 340 -14 q 926 131 779 -14 q 1074 486 1074 276 q 926 840 1074 697 q 560 986 781 986 q 193 840 339 986 m 242 181 q 117 486 117 306 q 242 792 117 667 q 560 917 368 917 q 876 792 751 917 q 1003 486 1003 667 q 876 181 1003 306 q 560 56 751 56 q 242 181 368 56 m 449 342 q 483 401 447 381 q 596 435 518 421 q 718 465 678 451 q 775 493 761 482 q 826 590 826 533 q 547 747 826 747 q 336 722 454 747 l 336 613 l 361 619 q 526 643 429 643 q 674 592 674 643 q 522 528 674 550 q 325 427 383 504 q 293 239 267 350 l 833 239 l 833 342 l 449 342 "},"➂":{"ha":1119,"x_min":46,"x_max":1074,"o":"m 193 840 q 46 486 46 697 q 192 131 46 276 q 560 -14 340 -14 q 926 131 779 -14 q 1074 486 1074 276 q 926 840 1074 697 q 560 986 781 986 q 193 840 339 986 m 242 181 q 117 486 117 306 q 242 792 117 667 q 560 917 368 917 q 876 792 751 917 q 1003 486 1003 667 q 876 181 1003 306 q 560 56 751 56 q 242 181 368 56 m 717 504 q 821 615 821 538 q 522 744 821 744 q 321 728 396 744 l 321 628 q 506 647 401 647 q 668 594 668 647 q 508 536 668 536 l 385 536 l 385 451 q 533 457 424 457 q 692 393 692 453 q 642 344 692 363 q 501 325 592 325 q 389 333 453 325 q 299 351 322 342 l 299 247 q 522 228 376 228 q 761 266 676 228 q 846 378 846 304 q 717 500 846 467 l 717 504 "},"➃":{"ha":1119,"x_min":46,"x_max":1074,"o":"m 193 840 q 46 486 46 697 q 192 131 46 276 q 560 -14 340 -14 q 926 131 779 -14 q 1074 486 1074 276 q 926 840 1074 697 q 560 986 781 986 q 193 840 339 986 m 242 181 q 117 486 117 306 q 242 792 117 667 q 560 917 368 917 q 876 792 751 917 q 1003 486 1003 667 q 876 181 1003 306 q 560 56 751 56 q 242 181 368 56 m 768 743 l 624 742 l 232 426 l 232 338 l 614 338 l 614 240 l 768 240 l 768 338 l 865 338 l 865 442 l 768 442 l 768 743 m 397 442 l 397 444 l 610 608 l 614 608 l 614 442 l 397 442 "},"➄":{"ha":1119,"x_min":46,"x_max":1074,"o":"m 193 840 q 46 486 46 697 q 192 131 46 276 q 560 -14 340 -14 q 926 131 779 -14 q 1074 486 1074 276 q 926 840 1074 697 q 560 986 781 986 q 193 840 339 986 m 242 181 q 117 486 117 306 q 242 792 117 667 q 560 917 368 917 q 876 792 751 917 q 1003 486 1003 667 q 876 181 1003 306 q 560 56 751 56 q 242 181 368 56 m 818 735 l 294 735 l 294 474 l 354 444 q 433 458 376 453 q 542 467 496 467 q 701 400 701 467 q 655 349 701 368 q 539 329 608 329 q 326 358 433 329 q 285 372 289 369 l 285 264 q 446 235 299 253 q 563 226 514 226 q 781 272 704 226 q 857 400 857 317 q 792 524 857 482 q 635 565 728 565 q 431 526 513 565 l 429 528 l 428 528 l 428 631 l 818 631 l 818 735 "},"➅":{"ha":1119,"x_min":46,"x_max":1074,"o":"m 565 486 q 715 414 715 486 q 675 357 715 379 q 565 335 635 335 q 456 358 499 335 q 414 414 414 381 q 458 466 414 446 q 565 486 503 486 m 618 643 q 715 635 667 643 q 789 618 764 626 q 813 608 814 610 l 813 717 q 718 738 796 726 q 604 744 660 744 q 350 671 453 744 q 249 482 249 599 q 335 295 249 363 q 572 228 422 228 q 783 274 697 228 q 871 408 871 319 q 799 526 871 483 q 601 568 726 568 q 415 522 483 568 q 411 524 414 524 q 474 611 418 579 q 618 643 531 643 m 242 181 q 117 486 117 306 q 242 792 117 667 q 560 917 368 917 q 876 792 751 917 q 1003 486 1003 667 q 876 181 1003 306 q 560 56 751 56 q 242 181 368 56 m 193 840 q 46 486 46 697 q 192 131 46 276 q 560 -14 340 -14 q 926 131 779 -14 q 1074 486 1074 276 q 926 840 1074 697 q 560 986 781 986 q 193 840 339 986 "},"➆":{"ha":1119,"x_min":46,"x_max":1074,"o":"m 308 615 l 656 615 l 656 613 l 369 218 l 544 218 l 833 631 l 833 719 l 308 721 l 308 615 m 242 181 q 117 486 117 306 q 242 792 117 667 q 560 917 368 917 q 876 792 751 917 q 1003 486 1003 667 q 876 181 1003 306 q 560 56 751 56 q 242 181 368 56 m 193 840 q 46 486 46 697 q 192 131 46 276 q 560 -14 340 -14 q 926 131 779 -14 q 1074 486 1074 276 q 926 840 1074 697 q 560 986 781 986 q 193 840 339 986 "},"➇":{"ha":1119,"x_min":46,"x_max":1074,"o":"m 193 840 q 46 486 46 697 q 192 131 46 276 q 560 -14 340 -14 q 926 131 779 -14 q 1074 486 1074 276 q 926 840 1074 697 q 560 986 781 986 q 193 840 339 986 m 242 181 q 117 486 117 306 q 242 792 117 667 q 560 917 368 917 q 876 792 751 917 q 1003 486 1003 667 q 876 181 1003 306 q 560 56 751 56 q 242 181 368 56 m 250 375 q 333 267 250 306 q 560 228 417 228 q 786 267 703 228 q 869 375 869 306 q 732 499 869 465 l 732 503 q 847 611 847 535 q 769 709 847 674 q 560 744 692 744 q 349 709 426 744 q 272 611 272 674 q 388 503 272 535 l 388 499 q 250 375 250 465 m 401 393 q 444 443 401 425 q 560 461 486 461 q 676 443 633 461 q 718 393 718 425 q 674 343 718 363 q 560 324 631 324 q 444 343 488 324 q 401 393 401 363 m 657 632 q 694 592 694 617 q 657 550 694 567 q 560 535 618 535 q 463 550 501 535 q 425 592 425 567 q 461 632 425 617 q 560 649 499 649 q 657 632 622 649 "},"➈":{"ha":1119,"x_min":46,"x_max":1074,"o":"m 193 840 q 46 486 46 697 q 192 131 46 276 q 560 -14 340 -14 q 926 131 779 -14 q 1074 486 1074 276 q 926 840 1074 697 q 560 986 781 986 q 193 840 339 986 m 242 181 q 117 486 117 306 q 242 792 117 667 q 560 917 368 917 q 876 792 751 917 q 1003 486 1003 667 q 876 181 1003 306 q 560 56 751 56 q 242 181 368 56 m 501 329 q 404 338 453 329 q 331 354 356 346 q 307 364 306 363 l 307 256 q 401 235 324 246 q 515 228 460 228 q 769 300 668 228 q 871 490 871 372 q 784 677 871 610 q 547 744 697 744 q 335 697 419 742 q 249 564 249 653 q 321 447 249 489 q 518 404 393 404 q 704 450 636 404 l 707 447 q 645 361 701 393 q 501 329 589 329 m 554 486 q 403 558 403 486 q 444 615 403 593 q 554 638 485 638 q 663 615 621 638 q 704 558 704 592 q 660 506 704 526 q 554 486 615 486 "},"➊":{"ha":1119,"x_min":46,"x_max":1074,"o":"m 193 840 q 46 486 46 697 q 192 131 46 276 q 560 -14 340 -14 q 926 131 779 -14 q 1074 486 1074 276 q 926 840 1074 697 q 560 986 781 986 q 193 840 339 986 m 522 235 l 522 557 l 519 557 q 404 536 472 536 l 404 633 q 493 661 458 633 q 529 738 528 689 l 676 738 l 676 235 l 522 235 "},"➋":{"ha":1119,"x_min":46,"x_max":1074,"o":"m 193 840 q 46 486 46 697 q 192 131 46 276 q 560 -14 340 -14 q 926 131 779 -14 q 1074 486 1074 276 q 926 840 1074 697 q 560 986 781 986 q 193 840 339 986 m 293 239 q 325 427 267 350 q 522 528 383 504 q 674 592 674 550 q 526 643 674 643 q 336 613 419 643 l 336 722 q 547 747 456 747 q 826 590 826 747 q 796 513 821 540 q 718 465 771 485 q 596 435 678 451 q 483 401 518 421 q 449 342 447 381 l 833 342 l 833 239 l 293 239 "},"➌":{"ha":1119,"x_min":46,"x_max":1074,"o":"m 193 840 q 46 486 46 697 q 192 131 46 276 q 560 -14 340 -14 q 926 131 779 -14 q 1074 486 1074 276 q 926 840 1074 697 q 560 986 781 986 q 193 840 339 986 m 522 228 q 299 247 376 228 l 299 351 q 389 333 322 342 q 501 325 453 325 q 642 344 592 325 q 692 393 692 363 q 533 457 692 453 q 385 451 424 457 l 385 536 l 508 536 q 668 594 668 536 q 506 647 668 647 q 321 628 401 647 l 321 728 q 522 744 396 744 q 821 615 821 744 q 717 504 821 538 l 717 500 q 846 378 846 467 q 761 266 846 304 q 522 228 676 228 "},"➍":{"ha":1119,"x_min":46,"x_max":1074,"o":"m 193 840 q 46 486 46 697 q 192 131 46 276 q 560 -14 340 -14 q 926 131 779 -14 q 1074 486 1074 276 q 926 840 1074 697 q 560 986 781 986 q 193 840 339 986 m 768 338 l 768 240 l 614 240 l 614 338 l 232 338 l 232 426 l 624 742 l 768 743 l 768 442 l 865 442 l 865 338 l 768 338 m 397 442 l 614 442 l 614 608 l 610 608 l 397 444 l 397 442 "},"➎":{"ha":1119,"x_min":46,"x_max":1074,"o":"m 193 840 q 46 486 46 697 q 192 131 46 276 q 560 -14 340 -14 q 926 131 779 -14 q 1074 486 1074 276 q 926 840 1074 697 q 560 986 781 986 q 193 840 339 986 m 563 226 q 446 235 514 226 q 333 251 379 243 l 285 264 l 285 372 q 422 339 314 356 q 539 329 479 329 q 655 349 608 329 q 701 400 701 368 q 542 467 701 467 q 433 458 496 467 q 354 444 376 453 l 294 474 l 294 735 l 818 735 l 818 631 l 428 631 l 428 528 l 429 528 l 431 526 q 635 565 513 565 q 792 524 728 565 q 857 400 857 482 q 781 272 857 317 q 563 226 704 226 "},"➏":{"ha":1119,"x_min":46,"x_max":1074,"o":"m 565 486 q 458 466 503 486 q 414 414 414 446 q 456 358 414 381 q 565 335 499 335 q 675 357 635 335 q 715 414 715 379 q 565 486 715 486 m 193 840 q 46 486 46 697 q 192 131 46 276 q 560 -14 340 -14 q 926 131 779 -14 q 1074 486 1074 276 q 926 840 1074 697 q 560 986 781 986 q 193 840 339 986 m 572 228 q 335 295 422 228 q 249 482 249 363 q 350 671 249 599 q 604 744 453 744 q 789 725 722 744 l 813 717 l 813 608 q 789 618 814 610 q 715 635 764 626 q 618 643 667 643 q 474 611 531 643 q 411 524 418 579 q 415 522 414 524 q 601 568 483 568 q 799 526 726 568 q 871 408 871 483 q 783 274 871 319 q 572 228 697 228 "},"➐":{"ha":1119,"x_min":46,"x_max":1074,"o":"m 193 840 q 46 486 46 697 q 192 131 46 276 q 560 -14 340 -14 q 926 131 779 -14 q 1074 486 1074 276 q 926 840 1074 697 q 560 986 781 986 q 193 840 339 986 m 544 218 l 369 218 l 656 613 l 656 615 l 308 615 l 308 721 q 833 719 393 719 l 833 631 l 544 218 "},"➑":{"ha":1119,"x_min":46,"x_max":1074,"o":"m 193 840 q 46 486 46 697 q 192 131 46 276 q 560 -14 340 -14 q 926 131 779 -14 q 1074 486 1074 276 q 926 840 1074 697 q 560 986 781 986 q 193 840 339 986 m 869 375 q 786 267 869 306 q 560 228 703 228 q 333 267 417 228 q 250 375 250 306 q 388 499 250 465 l 388 503 q 272 611 272 535 q 349 709 272 674 q 560 744 426 744 q 769 709 692 744 q 847 611 847 674 q 732 503 847 535 l 732 499 q 869 375 869 465 m 718 393 q 676 443 718 425 q 560 461 633 461 q 444 443 486 461 q 401 393 401 425 q 444 343 401 363 q 560 324 488 324 q 674 343 631 324 q 718 393 718 363 m 657 550 q 694 592 694 567 q 657 632 694 617 q 560 649 622 649 q 461 632 499 649 q 425 592 425 617 q 463 550 425 567 q 560 535 501 535 q 657 550 618 535 "},"➒":{"ha":1119,"x_min":46,"x_max":1074,"o":"m 193 840 q 46 486 46 697 q 192 131 46 276 q 560 -14 340 -14 q 926 131 779 -14 q 1074 486 1074 276 q 926 840 1074 697 q 560 986 781 986 q 193 840 339 986 m 515 228 q 331 247 397 228 l 307 256 l 307 364 q 331 354 306 363 q 404 338 356 346 q 501 329 453 329 q 645 361 589 329 q 707 447 701 393 l 704 450 q 518 404 636 404 q 321 447 393 404 q 249 564 249 489 q 335 697 249 653 q 547 744 419 742 q 784 677 697 744 q 871 490 871 610 q 769 300 871 372 q 515 228 668 228 m 554 638 q 444 615 485 638 q 403 558 403 593 q 554 486 403 486 q 660 506 615 486 q 704 558 704 526 q 663 615 704 592 q 554 638 621 638 "},"":{"ha":419,"x_min":46,"x_max":374,"o":"m 210 -94 q 91 -132 136 -94 q 46 -235 46 -169 q 88 -335 46 -296 q 190 -374 131 -374 l 185 -386 q 158 -423 179 -401 q 106 -460 136 -444 l 182 -553 q 313 -440 251 -524 q 374 -257 371 -358 q 329 -138 374 -182 q 210 -94 285 -94 "},"":{"ha":0,"x_min":0,"x_max":0,"o":""},"ﬀ":{"ha":1793,"x_min":11,"x_max":1782,"o":"m 1668 882 q 1782 881 1769 882 l 1782 1050 q 1625 1054 1733 1054 q 1133 776 1133 1054 l 1133 739 l 522 739 q 583 852 524 822 q 783 882 643 882 q 897 881 885 882 l 897 1050 q 740 1054 850 1054 q 249 776 249 1054 l 249 739 l 11 739 l 11 574 l 249 574 l 249 0 l 522 0 l 522 574 l 1133 574 l 1133 0 l 1407 0 l 1407 574 l 1782 574 l 1782 739 l 1407 739 q 1468 852 1408 822 q 1668 882 1528 882 "},"ﬁ":{"ha":1404,"x_min":7,"x_max":1292,"o":"m 779 882 q 893 881 881 882 l 893 1050 q 736 1054 844 1054 q 244 776 244 1054 l 244 739 l 7 739 l 7 574 l 244 574 l 244 0 l 518 0 l 518 574 l 893 574 l 893 739 l 518 739 q 579 852 519 822 q 779 882 639 882 m 997 0 l 1272 0 l 1272 739 l 997 739 l 997 0 m 1135 842 q 1249 876 1206 840 q 1292 975 1292 913 q 1249 1074 1292 1039 q 1135 1110 1204 1110 q 1021 1074 1065 1110 q 978 975 978 1039 q 1021 877 978 913 q 1135 842 1064 842 "},"ﬂ":{"ha":1386,"x_min":7,"x_max":1274,"o":"m 779 882 q 893 881 881 882 l 893 1050 q 736 1054 844 1054 q 244 776 244 1054 l 244 739 l 7 739 l 7 574 l 244 574 l 244 0 l 518 0 l 518 574 l 893 574 l 893 739 l 518 739 q 579 852 519 822 q 779 882 639 882 m 999 0 l 1274 0 l 1274 1014 l 999 1014 l 999 0 "}}}
